<svg width="14" height="14" viewBox="0 0 14 14" fill="none" xmlns="http://www.w3.org/2000/svg">
<path d="M11.1328 2.24609C12.3633 3.47656 13.125 5.08789 13.125 6.8457C13.125 10.4199 10.1367 13.3496 6.5332 13.3496C5.44922 13.3496 4.39453 13.0566 3.42773 12.5586L0 13.4375L0.908203 10.0684C0.351562 9.10156 0.0292969 7.98828 0.0292969 6.81641C0.0292969 3.24219 2.95898 0.3125 6.5332 0.3125C8.29102 0.3125 9.93164 1.01562 11.1328 2.24609ZM6.5332 12.2363C9.52148 12.2363 12.0117 9.80469 12.0117 6.8457C12.0117 5.38086 11.3965 4.0332 10.3711 3.00781C9.3457 1.98242 7.99805 1.42578 6.5625 1.42578C3.57422 1.42578 1.14258 3.85742 1.14258 6.81641C1.14258 7.8418 1.43555 8.83789 1.96289 9.7168L2.10938 9.92188L1.55273 11.9141L3.60352 11.3574L3.7793 11.4746C4.62891 11.9727 5.56641 12.2363 6.5332 12.2363ZM9.52148 8.19336C9.66797 8.28125 9.78516 8.31055 9.81445 8.39844C9.87305 8.45703 9.87305 8.7793 9.72656 9.16016C9.58008 9.54102 8.93555 9.89258 8.64258 9.92188C8.11523 10.0098 7.70508 9.98047 6.67969 9.51172C5.03906 8.80859 3.98438 7.16797 3.89648 7.08008C3.80859 6.96289 3.25195 6.20117 3.25195 5.38086C3.25195 4.58984 3.66211 4.20898 3.80859 4.0332C3.95508 3.85742 4.13086 3.82812 4.24805 3.82812C4.33594 3.82812 4.45312 3.82812 4.54102 3.82812C4.6582 3.82812 4.77539 3.79883 4.92188 4.12109C5.03906 4.44336 5.39062 5.23438 5.41992 5.32227C5.44922 5.41016 5.47852 5.49805 5.41992 5.61523C5.12695 6.23047 4.77539 6.20117 4.95117 6.49414C5.5957 7.57812 6.21094 7.95898 7.17773 8.42773C7.32422 8.51562 7.41211 8.48633 7.5293 8.39844C7.61719 8.28125 7.93945 7.90039 8.02734 7.75391C8.14453 7.57812 8.26172 7.60742 8.4082 7.66602C8.55469 7.72461 9.3457 8.10547 9.52148 8.19336Z" fill="#C23234"/>
</svg>
