<svg width="1359" height="156" viewBox="0 0 1359 156" fill="none" xmlns="http://www.w3.org/2000/svg">
<path d="M51.3472 32.0234L51.2477 33.0185L51.2652 33.0202L51.2828 33.0214L51.3472 32.0234ZM55.1313 32.4775L56.1281 32.5577L56.1987 31.6803L55.3374 31.499L55.1313 32.4775ZM53.3906 54.123L53.0744 55.0717L54.2851 55.4753L54.3874 54.2032L53.3906 54.123ZM50.1362 53.5933L50.0258 54.5871L50.0454 54.5893L50.065 54.5907L50.1362 53.5933ZM37.8755 54.5015L37.6167 53.5355L37.6124 53.5367L37.8755 54.5015ZM30.3828 58.21L30.9828 59.01L30.9886 59.0056L30.9943 59.0012L30.3828 58.21ZM25.085 64.8701L24.1809 64.4427L24.1775 64.45L25.085 64.8701ZM23.1929 118V119H24.1929V118H23.1929ZM0.109375 118H-0.890625V119H0.109375V118ZM0.109375 33.3857V32.3857H-0.890625V33.3857H0.109375ZM17.5923 33.3857L18.5648 33.153L18.3812 32.3857H17.5923V33.3857ZM20.998 47.6143L20.0255 47.847L20.2092 48.6143H20.998V47.6143ZM22.1333 47.6143V48.6143H22.7099L22.9987 48.1153L22.1333 47.6143ZM28.3394 39.7432L29.0316 40.4648L29.0319 40.4646L28.3394 39.7432ZM36.8916 33.9912L37.2978 34.905L37.3043 34.9021L36.8916 33.9912ZM47.3359 32.7964C48.4548 32.7964 49.7575 32.8695 51.2477 33.0185L51.4467 31.0284C49.9094 30.8747 48.538 30.7964 47.3359 30.7964V32.7964ZM51.2828 33.0214C52.8239 33.1208 54.0325 33.2681 54.9253 33.4561L55.3374 31.499C54.3129 31.2833 52.9987 31.1279 51.4115 31.0255L51.2828 33.0214ZM54.1346 32.3974L52.3938 54.0429L54.3874 54.2032L56.1281 32.5577L54.1346 32.3974ZM53.7069 53.1744C52.8322 52.8828 51.6499 52.6988 50.2075 52.5958L50.065 54.5907C51.4481 54.6895 52.4354 54.8587 53.0744 55.0717L53.7069 53.1744ZM50.2467 52.5994C48.8597 52.4453 47.6355 52.3662 46.5791 52.3662V54.3662C47.5409 54.3662 48.6881 54.4385 50.0258 54.5871L50.2467 52.5994ZM46.5791 52.3662C43.5164 52.3662 40.5282 52.7557 37.6168 53.5355L38.1342 55.4674C40.8739 54.7336 43.688 54.3662 46.5791 54.3662V52.3662ZM37.6124 53.5367C34.7142 54.3271 32.0977 55.6211 29.7714 57.4187L30.9943 59.0012C33.108 57.3679 35.4866 56.1895 38.1386 55.4662L37.6124 53.5367ZM29.7828 57.41C27.4192 59.1826 25.5548 61.5365 24.1809 64.4427L25.989 65.2975C27.2389 62.6536 28.9063 60.5674 30.9828 59.01L29.7828 57.41ZM24.1775 64.45C22.8386 67.342 22.1929 70.8502 22.1929 74.936H24.1929C24.1929 71.0499 24.8085 67.8475 25.9924 65.2902L24.1775 64.45ZM22.1929 74.936V118H24.1929V74.936H22.1929ZM23.1929 117H0.109375V119H23.1929V117ZM1.10938 118V33.3857H-0.890625V118H1.10938ZM0.109375 34.3857H17.5923V32.3857H0.109375V34.3857ZM16.6198 33.6185L20.0255 47.847L21.9706 47.3815L18.5648 33.153L16.6198 33.6185ZM20.998 48.6143H22.1333V46.6143H20.998V48.6143ZM22.9987 48.1153C24.6152 45.3231 26.625 42.7732 29.0316 40.4648L27.6471 39.0215C25.1091 41.4559 22.9814 44.1534 21.2679 47.1132L22.9987 48.1153ZM29.0319 40.4646C31.4715 38.1225 34.2255 36.2705 37.2977 34.905L36.4855 33.0774C33.2003 34.5375 30.2527 36.5201 27.6468 39.0218L29.0319 40.4646ZM37.3043 34.9021C40.397 33.5007 43.7368 32.7964 47.3359 32.7964V30.7964C43.4676 30.7964 39.8446 31.5553 36.4789 33.0804L37.3043 34.9021ZM123.519 39.062L124.152 38.2875L123.519 39.062ZM132.601 118V119H133.601V118H132.601ZM116.48 118L115.548 118.362L115.796 119H116.48V118ZM112.015 106.496L112.947 106.134L112.7 105.496H112.015V106.496ZM111.41 106.496V105.496H110.929L110.629 105.871L111.41 106.496ZM69.8594 116.638L69.4214 117.537L69.4259 117.539L69.8594 116.638ZM60.5503 107.858L59.6814 108.353L59.6841 108.358L60.5503 107.858ZM66.605 72.8926L67.1628 73.7226L67.1673 73.7195L66.605 72.8926ZM94.9863 65.7783L94.9554 64.7788L94.9503 64.779L94.9863 65.7783ZM109.669 65.3242L109.7 66.3237L110.669 66.2938V65.3242H109.669ZM72.6597 54.8799L71.7618 55.3201L72.1873 56.1879L73.0691 55.7922L72.6597 54.8799ZM65.0156 39.2891L64.5487 38.4048L63.6905 38.858L64.1177 39.7293L65.0156 39.2891ZM80.0767 33.6885L79.8403 32.7168L79.8383 32.7173L80.0767 33.6885ZM109.669 78.7959H110.669V77.7614L109.635 77.7965L109.669 78.7959ZM100.738 79.0986L100.765 80.0983L100.772 80.0981L100.738 79.0986ZM85.1475 83.1099L84.5021 82.3459L84.4956 82.3515L85.1475 83.1099ZM83.9365 100.441L83.346 101.248L83.3525 101.253L83.3591 101.258L83.9365 100.441ZM104.522 98.2466L103.873 97.4857L103.868 97.4905L104.522 98.2466ZM97.4082 32.645C108.632 32.645 117.076 35.091 122.887 39.8365L124.152 38.2875C117.853 33.1437 108.89 30.645 97.4082 30.645V32.645ZM122.887 39.8365C128.644 44.5387 131.601 51.7305 131.601 61.6157H133.601C133.601 51.3187 130.503 43.4746 124.152 38.2875L122.887 39.8365ZM131.601 61.6157V118H133.601V61.6157H131.601ZM132.601 117H116.48V119H132.601V117ZM117.413 117.638L112.947 106.134L111.083 106.858L115.548 118.362L117.413 117.638ZM112.015 105.496H111.41V107.496H112.015V105.496ZM110.629 105.871C108.247 108.848 105.832 111.259 103.388 113.117L104.598 114.709C107.199 112.733 109.728 110.199 112.191 107.121L110.629 105.871ZM103.388 113.117C100.973 114.952 98.1886 116.311 95.0222 117.188L95.5559 119.115C98.9488 118.176 101.967 116.709 104.598 114.709L103.388 113.117ZM95.0222 117.188C91.8553 118.065 87.9647 118.514 83.3311 118.514V120.514C88.0822 120.514 92.1636 120.055 95.5559 119.115L95.0222 117.188ZM83.3311 118.514C78.4665 118.514 74.1271 117.581 70.2928 115.737L69.4259 117.539C73.5637 119.529 78.2054 120.514 83.3311 120.514V118.514ZM70.2973 115.739C66.5482 113.912 63.5913 111.128 61.4165 107.359L59.6841 108.358C62.0503 112.46 65.2994 115.529 69.4214 117.537L70.2973 115.739ZM61.4192 107.363C59.2584 103.57 58.1445 98.7088 58.1445 92.7217H56.1445C56.1445 98.9449 57.3011 104.175 59.6814 108.353L61.4192 107.363ZM58.1445 92.7217C58.1445 84.0038 61.1855 77.7393 67.1627 73.7226L66.0472 72.0626C59.4105 76.5225 56.1445 83.4774 56.1445 92.7217H58.1445ZM67.1673 73.7195C73.2472 69.5852 82.4861 67.229 95.0223 66.7777L94.9503 64.779C82.2587 65.2359 72.5767 67.6225 66.0427 72.0657L67.1673 73.7195ZM95.0172 66.7778L109.7 66.3237L109.638 64.3247L94.9554 64.7788L95.0172 66.7778ZM110.669 65.3242V61.6157H108.669V65.3242H110.669ZM110.669 61.6157C110.669 57.0157 109.465 53.4343 106.853 51.106L105.522 52.5991C107.552 54.4081 108.669 57.3355 108.669 61.6157H110.669ZM106.853 51.106C104.295 48.8265 100.8 47.7495 96.5 47.7495V49.7495C100.474 49.7495 103.438 50.7412 105.522 52.5991L106.853 51.106ZM96.5 47.7495C92.317 47.7495 88.2105 48.3436 84.1835 49.5311L84.7491 51.4494C88.5932 50.3159 92.5092 49.7495 96.5 49.7495V47.7495ZM84.1835 49.5311C80.2026 50.7049 76.2248 52.1841 72.2503 53.9675L73.0691 55.7922C76.9656 54.0438 80.8589 52.5965 84.7491 51.4494L84.1835 49.5311ZM73.5576 54.4397L65.9135 38.8488L64.1177 39.7293L71.7618 55.3201L73.5576 54.4397ZM65.4826 40.1733C69.8924 37.8446 74.8346 36.0048 80.315 34.6596L79.8383 32.7173C74.2184 34.0967 69.1199 35.9907 64.5487 38.4048L65.4826 40.1733ZM80.313 34.6601C85.8337 33.3173 91.5314 32.645 97.4082 32.645V30.645C91.3774 30.645 85.5208 31.3351 79.8403 32.7168L80.313 34.6601ZM109.635 77.7965L100.704 78.0992L100.772 80.0981L109.703 79.7953L109.635 77.7965ZM100.711 78.099C93.2008 78.302 87.7036 79.6413 84.5021 82.346L85.7928 83.8737C88.4442 81.6338 93.3408 80.2989 100.765 80.0983L100.711 78.099ZM84.4956 82.3515C81.3829 85.0273 79.8335 88.5665 79.8335 92.873H81.8335C81.8335 89.1067 83.16 86.1371 85.7993 83.8682L84.4956 82.3515ZM79.8335 92.873C79.8335 96.5942 80.9307 99.4811 83.346 101.248L84.527 99.6344C82.805 98.3744 81.8335 96.2157 81.8335 92.873H79.8335ZM83.3591 101.258C85.6425 102.873 88.5622 103.636 92.0347 103.636V101.636C88.847 101.636 86.3679 100.936 84.514 99.625L83.3591 101.258ZM92.0347 103.636C97.1924 103.636 101.595 102.103 105.177 99.0026L103.868 97.4905C100.689 100.243 96.7663 101.636 92.0347 101.636V103.636ZM105.171 99.0074C108.869 95.8533 110.669 91.3868 110.669 85.7588H108.669C108.669 90.9283 107.038 94.787 103.874 97.4857L105.171 99.0074ZM110.669 85.7588V78.7959H108.669V85.7588H110.669ZM218.85 42.9219L218.065 43.5414L218.068 43.5446L218.85 42.9219ZM223.542 99.7603L224.462 100.152L224.463 100.15L223.542 99.7603ZM212.039 114.519L211.476 113.692L212.039 114.519ZM184.641 118L184.301 118.94L184.308 118.943L184.315 118.945L184.641 118ZM177.148 113.989L176.521 114.768L176.527 114.772L176.533 114.777L177.148 113.989ZM171.775 108.691L172.552 108.061L172.251 107.691H171.775V108.691ZM170.564 108.691V107.691H169.344L169.583 108.887L170.564 108.691ZM171.775 155.236V156.236H172.775V155.236H171.775ZM148.691 155.236H147.691V156.236H148.691V155.236ZM148.691 33.3857V32.3857H147.691V33.3857H148.691ZM167.461 33.3857L168.42 33.1014L168.207 32.3857H167.461V33.3857ZM170.715 44.3599L169.757 44.6442L169.969 45.3599H170.715V44.3599ZM171.775 44.3599V45.3599H172.31L172.607 44.9146L171.775 44.3599ZM177.3 38.0781L177.962 38.8275L177.3 38.0781ZM185.095 33.5371L185.439 34.476L185.448 34.4728L185.095 33.5371ZM173.516 60.2534L172.567 59.9372L172.563 59.9502L173.516 60.2534ZM171.775 72.8926L170.775 72.8728L170.775 72.8827V72.8926H171.775ZM173.289 89.2402L172.322 89.4979L172.326 89.5099L173.289 89.2402ZM178.511 97.8682L177.88 98.6443L177.888 98.6506L178.511 97.8682ZM202.427 89.2402L201.47 88.9506L201.467 88.9588L202.427 89.2402ZM200.308 56.5449L199.456 57.0684L200.308 56.5449ZM195.767 32.7964C205 32.7964 212.404 36.3673 218.065 43.5413L219.635 42.3024C213.591 34.6425 205.606 30.7964 195.767 30.7964V32.7964ZM218.068 43.5446C223.774 50.7141 226.705 61.3278 226.705 75.5415H228.705C228.705 61.0963 225.733 49.9636 219.633 42.2991L218.068 43.5446ZM226.705 75.5415C226.705 85.0379 225.33 92.9694 222.622 99.3706L224.463 100.15C227.305 93.4327 228.705 85.2183 228.705 75.5415H226.705ZM222.623 99.3681C219.908 105.736 216.183 110.489 211.476 113.692L212.601 115.345C217.682 111.888 221.627 106.803 224.462 100.152L222.623 99.3681ZM211.476 113.692C206.76 116.901 201.333 118.514 195.161 118.514V120.514C201.704 120.514 207.529 118.797 212.601 115.345L211.476 113.692ZM195.161 118.514C191.152 118.514 187.761 118.018 184.967 117.055L184.315 118.945C187.374 120 190.997 120.514 195.161 120.514V118.514ZM184.982 117.06C182.136 116.03 179.736 114.739 177.764 113.2L176.533 114.777C178.699 116.467 181.293 117.851 184.301 118.94L184.982 117.06ZM177.775 113.21C175.756 111.584 174.016 109.868 172.552 108.061L170.998 109.321C172.561 111.248 174.403 113.063 176.521 114.768L177.775 113.21ZM171.775 107.691H170.564V109.691H171.775V107.691ZM169.583 108.887C169.98 110.871 170.278 112.905 170.477 114.992L172.468 114.802C172.263 112.65 171.955 110.548 171.545 108.495L169.583 108.887ZM170.477 114.992C170.676 117.081 170.775 119.118 170.775 121.103H172.775C172.775 119.051 172.672 116.951 172.468 114.802L170.477 114.992ZM170.775 121.103V155.236H172.775V121.103H170.775ZM171.775 154.236H148.691V156.236H171.775V154.236ZM149.691 155.236V33.3857H147.691V155.236H149.691ZM148.691 34.3857H167.461V32.3857H148.691V34.3857ZM166.502 33.6701L169.757 44.6442L171.674 44.0755L168.42 33.1014L166.502 33.6701ZM170.715 45.3599H171.775V43.3599H170.715V45.3599ZM172.607 44.9146C174.07 42.7203 175.853 40.691 177.962 38.8275L176.638 37.3288C174.407 39.2999 172.507 41.4585 170.943 43.8052L172.607 44.9146ZM177.962 38.8275C180.028 37.0014 182.516 35.548 185.439 34.476L184.751 32.5982C181.62 33.7462 178.91 35.3202 176.638 37.3288L177.962 38.8275ZM185.448 34.4728C188.391 33.3633 191.824 32.7964 195.767 32.7964V30.7964C191.636 30.7964 187.955 31.39 184.742 32.6014L185.448 34.4728ZM188.35 49.2632C184.186 49.2632 180.757 50.1209 178.163 51.9423L179.312 53.5792C181.461 52.0705 184.44 51.2632 188.35 51.2632V49.2632ZM178.163 51.9423C175.582 53.7546 173.73 56.448 172.567 59.9372L174.464 60.5696C175.521 57.3987 177.151 55.097 179.312 53.5792L178.163 51.9423ZM172.563 59.9502C171.464 63.4035 170.877 67.7204 170.775 72.8728L172.775 72.9124C172.874 67.8727 173.448 63.7635 174.469 60.5566L172.563 59.9502ZM170.775 72.8926V75.3901H172.775V72.8926H170.775ZM170.775 75.3901C170.775 80.8952 171.284 85.6041 172.322 89.4979L174.255 88.9826C173.275 85.308 172.775 80.7836 172.775 75.3901H170.775ZM172.326 89.5099C173.426 93.4412 175.26 96.5158 177.88 98.6443L179.141 97.0921C176.917 95.285 175.27 92.6076 174.252 88.9706L172.326 89.5099ZM177.888 98.6506C180.591 100.802 184.218 101.82 188.652 101.82V99.8198C184.509 99.8198 181.375 98.8696 179.133 97.0857L177.888 98.6506ZM188.652 101.82C192.38 101.82 195.528 100.776 198.011 98.6239L196.701 97.1125C194.643 98.8958 191.988 99.8198 188.652 99.8198V101.82ZM198.011 98.6239C200.465 96.4968 202.239 93.4334 203.386 89.5217L201.467 88.9588C200.395 92.6154 198.788 95.304 196.701 97.1125L198.011 98.6239ZM203.384 89.5299C204.581 85.5737 205.167 80.8028 205.167 75.2388H203.167C203.167 80.6741 202.593 85.2375 201.47 88.9506L203.384 89.5299ZM205.167 75.2388C205.167 66.8914 203.875 60.4407 201.16 56.0214L199.456 57.0684C201.887 61.0248 203.167 67.0367 203.167 75.2388H205.167ZM201.16 56.0214C198.384 51.5042 194.055 49.2632 188.35 49.2632V51.2632C193.442 51.2632 197.085 53.21 199.456 57.0684L201.16 56.0214ZM262.111 33.3857H263.111V32.3857H262.111V33.3857ZM262.111 118V119H263.111V118H262.111ZM239.027 118H238.027V119H239.027V118ZM239.027 33.3857V32.3857H238.027V33.3857H239.027ZM259.462 2.6582L258.915 3.49547L258.921 3.49942L258.927 3.50328L259.462 2.6582ZM259.462 20.4438L260.009 21.2811L260.015 21.2772L260.021 21.2733L259.462 20.4438ZM241.676 20.4438L241.11 21.2679L241.12 21.2746L241.129 21.2811L241.676 20.4438ZM241.676 2.6582L242.219 3.49825L242.223 3.49547L241.676 2.6582ZM261.111 33.3857V118H263.111V33.3857H261.111ZM262.111 117H239.027V119H262.111V117ZM240.027 118V33.3857H238.027V118H240.027ZM239.027 34.3857H262.111V32.3857H239.027V34.3857ZM250.607 1.23633C253.876 1.23633 256.63 2.00339 258.915 3.49547L260.009 1.82093C257.349 0.083847 254.2 -0.763672 250.607 -0.763672V1.23633ZM258.927 3.50328C260.986 4.80582 262.17 7.33892 262.17 11.5132H264.17C264.17 7.00906 262.882 3.63884 259.997 1.81313L258.927 3.50328ZM262.17 11.5132C262.17 15.6261 260.991 18.2084 258.903 19.6144L260.021 21.2733C262.877 19.3492 264.17 15.9777 264.17 11.5132H262.17ZM258.915 19.6066C256.63 21.0987 253.876 21.8657 250.607 21.8657V23.8657C254.2 23.8657 257.349 23.0182 260.009 21.2811L258.915 19.6066ZM250.607 21.8657C247.284 21.8657 244.505 21.0971 242.223 19.6066L241.129 21.2811C243.792 23.0197 246.967 23.8657 250.607 23.8657V21.8657ZM242.243 19.6198C240.202 18.217 239.043 15.6336 239.043 11.5132H237.043C237.043 15.9702 238.306 19.3406 241.11 21.2679L242.243 19.6198ZM239.043 11.5132C239.043 7.33115 240.207 4.79731 242.219 3.49824L241.134 1.81816C238.301 3.64735 237.043 7.01683 237.043 11.5132H239.043ZM242.223 3.49547C244.505 2.00491 247.284 1.23633 250.607 1.23633V-0.763672C246.967 -0.763672 243.792 0.0823364 241.129 1.82093L242.223 3.49547ZM282.364 108.464L281.581 109.087L281.586 109.092L282.364 108.464ZM282.515 42.9976L283.292 43.6268L283.294 43.6242L282.515 42.9976ZM324.671 37.9268L324.027 38.6922L324.036 38.6992L324.671 37.9268ZM330.423 44.2085L329.594 44.7673L329.891 45.2085H330.423V44.2085ZM331.18 44.2085V45.2085H332.385L332.163 44.0242L331.18 44.2085ZM330.044 37.0942L329.052 37.2202L329.054 37.2291L329.055 37.2379L330.044 37.0942ZM329.439 0.236328V-0.763672H328.439V0.236328H329.439ZM352.598 0.236328H353.598V-0.763672H352.598V0.236328ZM352.598 118V119H353.598V118H352.598ZM334.888 118L333.962 118.377L334.215 119H334.888V118ZM330.423 107.026L331.349 106.649L331.096 106.026H330.423V107.026ZM329.439 107.026V106.026H328.887L328.593 106.493L329.439 107.026ZM323.914 113.383L324.566 114.141L324.568 114.14L323.914 113.383ZM326.866 95.522L326.044 94.9522L326.042 94.9545L326.866 95.522ZM331.028 78.4932L332.028 78.5132L332.028 78.5032V78.4932H331.028ZM327.244 57.1504L326.377 57.6487L326.38 57.653L327.244 57.1504ZM301.209 94.8408L300.385 95.407L300.389 95.4136L301.209 94.8408ZM305.447 118.514C296.315 118.514 288.906 114.968 283.142 107.835L281.586 109.092C287.729 116.693 295.709 120.514 305.447 120.514V118.514ZM283.146 107.841C277.44 100.672 274.509 90.0579 274.509 75.8442H272.509C272.509 90.2894 275.481 101.422 281.581 109.087L283.146 107.841ZM274.509 75.8442C274.509 61.4793 277.49 50.7941 283.292 43.6268L281.738 42.3684C275.532 50.035 272.509 61.2476 272.509 75.8442H274.509ZM283.294 43.6242C289.106 36.3958 296.664 32.7964 306.053 32.7964V30.7964C296.066 30.7964 287.932 34.6644 281.736 42.3709L283.294 43.6242ZM306.053 32.7964C310 32.7964 313.438 33.3393 316.385 34.4021L317.063 32.5207C313.855 31.3635 310.179 30.7964 306.053 30.7964V32.7964ZM316.385 34.4021C319.366 35.4772 321.908 36.9103 324.027 38.6921L325.314 37.1614C322.993 35.2095 320.238 33.6657 317.063 32.5207L316.385 34.4021ZM324.036 38.6992C326.235 40.5077 328.086 42.5305 329.594 44.7673L331.252 43.6496C329.631 41.2445 327.647 39.0795 325.306 37.1543L324.036 38.6992ZM330.423 45.2085H331.18V43.2085H330.423V45.2085ZM332.163 44.0242C331.864 42.4303 331.488 40.0752 331.034 36.9506L329.055 37.2379C329.509 40.3698 329.89 42.7575 330.197 44.3928L332.163 44.0242ZM331.036 36.9683C330.638 33.8329 330.439 30.6207 330.439 27.3311H328.439C328.439 30.7016 328.643 33.9981 329.052 37.2202L331.036 36.9683ZM330.439 27.3311V0.236328H328.439V27.3311H330.439ZM329.439 1.23633H352.598V-0.763672H329.439V1.23633ZM351.598 0.236328V118H353.598V0.236328H351.598ZM352.598 117H334.888V119H352.598V117ZM335.814 117.623L331.349 106.649L329.497 107.403L333.962 118.377L335.814 117.623ZM330.423 106.026H329.439V108.026H330.423V106.026ZM328.593 106.493C327.186 108.724 325.411 110.769 323.26 112.626L324.568 114.14C326.857 112.163 328.765 109.969 330.285 107.559L328.593 106.493ZM323.262 112.625C321.194 114.405 318.703 115.836 315.774 116.91L316.463 118.788C319.589 117.641 322.295 116.096 324.566 114.141L323.262 112.625ZM315.774 116.91C312.882 117.97 309.447 118.514 305.447 118.514V120.514C309.622 120.514 313.3 119.947 316.463 118.788L315.774 116.91ZM313.545 102.123C320.042 102.123 324.862 100.191 327.689 96.0894L326.042 94.9545C323.723 98.32 319.663 100.123 313.545 100.123V102.123ZM327.688 96.0918C330.474 92.0721 331.875 86.1638 332.028 78.5132L330.029 78.4732C329.879 85.9592 328.504 91.4035 326.044 94.9522L327.688 96.0918ZM332.028 78.4932V75.9956H330.028V78.4932H332.028ZM332.028 75.9956C332.028 67.6955 330.76 61.2079 328.109 56.6478L326.38 57.653C328.774 61.7712 330.028 67.8471 330.028 75.9956H332.028ZM328.111 56.6521C325.348 51.8447 320.243 49.5659 313.167 49.5659V51.5659C319.815 51.5659 324.094 53.6768 326.377 57.6487L328.111 56.6521ZM313.167 49.5659C307.722 49.5659 303.427 51.9408 300.373 56.6024L302.045 57.6984C304.743 53.5807 308.42 51.5659 313.167 51.5659V49.5659ZM300.373 56.6024C297.345 61.2238 295.895 67.7806 295.895 76.147H297.895C297.895 67.9638 299.321 61.8563 302.045 57.6984L300.373 56.6024ZM295.895 76.147C295.895 84.5081 297.343 90.9775 300.385 95.4069L302.033 94.2747C299.323 90.3285 297.895 84.3353 297.895 76.147H295.895ZM300.389 95.4136C303.511 99.8807 307.935 102.123 313.545 102.123V100.123C308.56 100.123 304.76 98.1766 302.029 94.268L300.389 95.4136ZM424.089 36.3374L423.617 37.2189L423.623 37.2222L424.089 36.3374ZM437.182 49.355L436.302 49.83L437.182 49.355ZM441.799 81.4448V82.4448H442.799V81.4448H441.799ZM387.231 81.4448V80.4448H386.191L386.232 81.4836L387.231 81.4448ZM393.059 96.8086L392.342 97.506L392.352 97.5157L393.059 96.8086ZM423.181 100.668L422.941 99.6977L423.181 100.668ZM437.031 95.6733H438.031V94.1011L436.607 94.7677L437.031 95.6733ZM437.031 113.535L437.474 114.431L438.031 114.156V113.535H437.031ZM423.862 118.076L423.657 117.097L423.655 117.097L423.862 118.076ZM384.733 114.821L384.3 115.723L384.303 115.724L384.733 114.821ZM369.37 100.517L368.503 101.015L368.506 101.021L369.37 100.517ZM368.84 51.6255L367.95 51.1701L367.948 51.1728L368.84 51.6255ZM382.917 36.7915L383.396 37.6691L383.402 37.666L382.917 36.7915ZM392.832 52.5337L392.137 51.8145L392.131 51.8205L392.832 52.5337ZM387.761 66.0811L386.763 66.0075L386.684 67.0811H387.761V66.0811ZM420.153 66.0811V67.0811H421.168L421.153 66.0664L420.153 66.0811ZM418.261 56.9233L417.344 57.3214L417.347 57.3287L417.35 57.3358L418.261 56.9233ZM412.963 50.5659L412.405 51.3952L412.413 51.4007L412.963 50.5659ZM403.881 32.7964C411.573 32.7964 418.139 34.2847 423.617 37.2189L424.561 35.4559C418.736 32.3354 411.831 30.7964 403.881 30.7964V32.7964ZM423.623 37.2222C429.096 40.1051 433.317 44.3004 436.302 49.83L438.062 48.88C434.891 43.0065 430.384 38.5234 424.555 35.4527L423.623 37.2222ZM436.302 49.83C439.283 55.3514 440.799 62.1415 440.799 70.2437H442.799C442.799 61.8972 441.237 54.7615 438.062 48.88L436.302 49.83ZM440.799 70.2437V81.4448H442.799V70.2437H440.799ZM441.799 80.4448H387.231V82.4448H441.799V80.4448ZM386.232 81.4836C386.491 88.175 388.497 93.5539 392.342 97.506L393.775 96.1112C390.355 92.5959 388.475 87.7322 388.23 81.4061L386.232 81.4836ZM392.352 97.5157C396.267 101.431 401.643 103.333 408.347 103.333V101.333C402.033 101.333 397.217 99.553 393.766 96.1015L392.352 97.5157ZM408.347 103.333C413.813 103.333 418.84 102.772 423.421 101.639L422.941 99.6977C418.54 100.785 413.678 101.333 408.347 101.333V103.333ZM423.421 101.639C427.982 100.512 432.66 98.8232 437.455 96.579L436.607 94.7677C431.915 96.9636 427.36 98.6052 422.941 99.6977L423.421 101.639ZM436.031 95.6733V113.535H438.031V95.6733H436.031ZM436.588 112.638C432.476 114.669 428.167 116.155 423.657 117.097L424.066 119.055C428.74 118.079 433.21 116.537 437.474 114.431L436.588 112.638ZM423.655 117.097C419.203 118.037 413.752 118.514 407.287 118.514V120.514C413.84 120.514 419.438 120.032 424.068 119.054L423.655 117.097ZM407.287 118.514C398.935 118.514 391.568 116.973 385.164 113.919L384.303 115.724C391.017 118.926 398.686 120.514 407.287 120.514V118.514ZM385.167 113.92C378.843 110.881 373.87 106.254 370.234 100.014L368.506 101.021C372.337 107.596 377.606 112.505 384.3 115.723L385.167 113.92ZM370.237 100.019C366.664 93.8032 364.845 85.9153 364.845 76.2983H362.845C362.845 86.1573 364.709 94.4152 368.503 101.015L370.237 100.019ZM364.845 76.2983C364.845 66.5146 366.493 58.4574 369.732 52.0782L367.948 51.1728C364.527 57.9121 362.845 66.3034 362.845 76.2983H364.845ZM369.73 52.0808C373.027 45.634 377.583 40.8442 383.396 37.6691L382.438 35.9139C376.242 39.298 371.413 44.3976 367.95 51.1701L369.73 52.0808ZM383.402 37.666C389.235 34.4306 396.051 32.7964 403.881 32.7964V30.7964C395.767 30.7964 388.607 32.4922 382.432 35.917L383.402 37.666ZM404.033 47.2197C399.307 47.2197 395.317 48.7423 392.137 51.8145L393.526 53.2529C396.3 50.5731 399.777 49.2197 404.033 49.2197V47.2197ZM392.131 51.8205C388.962 54.9346 387.227 59.728 386.763 66.0075L388.758 66.1546C389.203 60.1229 390.848 55.8848 393.532 53.2469L392.131 51.8205ZM387.761 67.0811H420.153V65.0811H387.761V67.0811ZM421.153 66.0664C421.101 62.521 420.449 59.3294 419.172 56.5108L417.35 57.3358C418.496 59.8656 419.105 62.7791 419.153 66.0958L421.153 66.0664ZM419.179 56.5252C417.943 53.678 416.052 51.4051 413.514 49.7311L412.413 51.4007C414.618 52.855 416.259 54.8204 417.344 57.3214L419.179 56.5252ZM413.522 49.7366C410.993 48.0324 407.806 47.2197 404.033 47.2197V49.2197C407.525 49.2197 410.292 49.9712 412.405 51.3952L413.522 49.7366ZM511.7 118V119H512.7V118H511.7ZM444.872 118H443.872V119H444.872V118ZM444.872 104.377L444.066 103.785L443.872 104.049V104.377H444.872ZM484.076 51.02L484.882 51.6121L486.051 50.02H484.076V51.02ZM447.218 51.02H446.218V52.02H447.218V51.02ZM447.218 33.3857V32.3857H446.218V33.3857H447.218ZM510.338 33.3857H511.338V32.3857H510.338V33.3857ZM510.338 48.3711L511.144 48.9626L511.338 48.6986V48.3711H510.338ZM472.193 100.366L471.387 99.7742L470.219 101.366H472.193V100.366ZM511.7 100.366H512.7V99.3657H511.7V100.366ZM511.7 117H444.872V119H511.7V117ZM445.872 118V104.377H443.872V118H445.872ZM445.677 104.969L484.882 51.6121L483.27 50.4279L444.066 103.785L445.677 104.969ZM484.076 50.02H447.218V52.02H484.076V50.02ZM448.218 51.02V33.3857H446.218V51.02H448.218ZM447.218 34.3857H510.338V32.3857H447.218V34.3857ZM509.338 33.3857V48.3711H511.338V33.3857H509.338ZM509.532 47.7796L471.387 99.7742L473 100.957L511.144 48.9626L509.532 47.7796ZM472.193 101.366H511.7V99.3657H472.193V101.366ZM510.7 100.366V118H512.7V100.366H510.7ZM608.363 36.3374L607.891 37.2189L607.897 37.2222L608.363 36.3374ZM621.457 49.355L620.577 49.83L621.457 49.355ZM626.073 81.4448V82.4448H627.073V81.4448H626.073ZM571.505 81.4448V80.4448H570.466L570.506 81.4836L571.505 81.4448ZM577.333 96.8086L576.616 97.506L576.626 97.5157L577.333 96.8086ZM607.455 100.668L607.215 99.6977L607.455 100.668ZM621.305 95.6733H622.305V94.1011L620.881 94.7677L621.305 95.6733ZM621.305 113.535L621.748 114.431L622.305 114.156V113.535H621.305ZM608.136 118.076L607.932 117.097L607.93 117.097L608.136 118.076ZM569.008 114.821L568.575 115.723L568.577 115.724L569.008 114.821ZM553.644 100.517L552.777 101.015L552.78 101.021L553.644 100.517ZM553.114 51.6255L552.224 51.1701L552.223 51.1728L553.114 51.6255ZM567.191 36.7915L567.671 37.6691L567.676 37.666L567.191 36.7915ZM577.106 52.5337L576.411 51.8145L576.405 51.8205L577.106 52.5337ZM572.035 66.0811L571.038 66.0075L570.959 67.0811H572.035V66.0811ZM604.428 66.0811V67.0811H605.443L605.428 66.0664L604.428 66.0811ZM602.536 56.9233L601.618 57.3214L601.621 57.3287L601.625 57.3358L602.536 56.9233ZM597.238 50.5659L596.679 51.3952L596.687 51.4007L597.238 50.5659ZM588.156 32.7964C595.847 32.7964 602.414 34.2847 607.891 37.2189L608.836 35.4559C603.011 32.3354 596.105 30.7964 588.156 30.7964V32.7964ZM607.897 37.2222C613.37 40.1051 617.592 44.3004 620.577 49.83L622.336 48.88C619.166 43.0065 614.659 38.5234 608.829 35.4527L607.897 37.2222ZM620.577 49.83C623.557 55.3514 625.073 62.1415 625.073 70.2437H627.073C627.073 61.8972 625.512 54.7615 622.336 48.88L620.577 49.83ZM625.073 70.2437V81.4448H627.073V70.2437H625.073ZM626.073 80.4448H571.505V82.4448H626.073V80.4448ZM570.506 81.4836C570.766 88.175 572.771 93.5539 576.616 97.506L578.05 96.1112C574.629 92.5959 572.75 87.7322 572.505 81.4061L570.506 81.4836ZM576.626 97.5157C580.541 101.431 585.917 103.333 592.621 103.333V101.333C586.308 101.333 581.492 99.553 578.04 96.1015L576.626 97.5157ZM592.621 103.333C598.088 103.333 603.114 102.772 607.695 101.639L607.215 99.6977C602.815 100.785 597.952 101.333 592.621 101.333V103.333ZM607.695 101.639C612.257 100.512 616.935 98.8232 621.729 96.579L620.881 94.7677C616.19 96.9636 611.635 98.6052 607.215 99.6977L607.695 101.639ZM620.305 95.6733V113.535H622.305V95.6733H620.305ZM620.862 112.638C616.75 114.669 612.441 116.155 607.932 117.097L608.341 119.055C613.014 118.079 617.484 116.537 621.748 114.431L620.862 112.638ZM607.93 117.097C603.478 118.037 598.026 118.514 591.562 118.514V120.514C598.114 120.514 603.713 120.032 608.343 119.054L607.93 117.097ZM591.562 118.514C583.209 118.514 575.842 116.973 569.438 113.919L568.577 115.724C575.292 118.926 582.961 120.514 591.562 120.514V118.514ZM569.441 113.92C563.117 110.881 558.144 106.254 554.508 100.014L552.78 101.021C556.612 107.596 561.881 112.505 568.575 115.723L569.441 113.92ZM554.511 100.019C550.938 93.8032 549.119 85.9153 549.119 76.2983H547.119C547.119 86.1573 548.983 94.4152 552.777 101.015L554.511 100.019ZM549.119 76.2983C549.119 66.5146 550.767 58.4574 554.006 52.0782L552.223 51.1728C548.801 57.9121 547.119 66.3034 547.119 76.2983H549.119ZM554.005 52.0808C557.302 45.634 561.858 40.8442 567.671 37.6691L566.712 35.9139C560.516 39.298 555.688 44.3976 552.224 51.1701L554.005 52.0808ZM567.676 37.666C573.51 34.4306 580.326 32.7964 588.156 32.7964V30.7964C580.042 30.7964 572.881 32.4922 566.706 35.917L567.676 37.666ZM588.307 47.2197C583.581 47.2197 579.591 48.7423 576.411 51.8145L577.801 53.2529C580.575 50.5731 584.052 49.2197 588.307 49.2197V47.2197ZM576.405 51.8205C573.236 54.9346 571.501 59.728 571.038 66.0075L573.032 66.1546C573.477 60.1229 575.123 55.8848 577.807 53.2469L576.405 51.8205ZM572.035 67.0811H604.428V65.0811H572.035V67.0811ZM605.428 66.0664C605.375 62.521 604.723 59.3294 603.447 56.5108L601.625 57.3358C602.77 59.8656 603.379 62.7791 603.428 66.0958L605.428 66.0664ZM603.453 56.5252C602.217 53.678 600.326 51.4051 597.788 49.7311L596.687 51.4007C598.892 52.855 600.533 54.8204 601.618 57.3214L603.453 56.5252ZM597.797 49.7366C595.268 48.0324 592.08 47.2197 588.307 47.2197V49.2197C591.8 49.2197 594.566 49.9712 596.679 51.3952L597.797 49.7366ZM720.39 155.236H719.39V156.236H720.39V155.236ZM720.617 113.383L719.621 113.291L719.62 113.301L719.62 113.312L720.617 113.383ZM721.374 107.026L722.363 107.171L722.531 106.026H721.374V107.026ZM720.39 107.026V106.026H719.835L719.541 106.497L720.39 107.026ZM711.384 115.881L710.85 115.035L710.845 115.039L711.384 115.881ZM673.239 108.464L672.454 109.083L672.459 109.089L673.239 108.464ZM668.547 51.6255L669.469 52.0116L669.47 52.0091L668.547 51.6255ZM679.899 36.7915L679.337 35.9647L679.333 35.9675L679.899 36.7915ZM711.914 35.4292L711.38 36.2747L711.386 36.2788L711.393 36.2828L711.914 35.4292ZM721.374 44.2085L720.553 44.7796L720.852 45.2085H721.374V44.2085ZM721.979 44.2085V45.2085H722.808L722.962 44.394L721.979 44.2085ZM724.023 33.3857V32.3857H723.194L723.04 33.2002L724.023 33.3857ZM743.549 33.3857H744.549V32.3857H743.549V33.3857ZM743.549 155.236V156.236H744.549V155.236H743.549ZM714.714 98.9277L714.163 98.0931L714.155 98.0983L714.714 98.9277ZM720.163 91.4351L721.112 91.7513L721.113 91.747L720.163 91.4351ZM721.979 78.7959L722.979 78.8159L722.979 78.8059V78.7959H721.979ZM718.195 57.1504L717.328 57.6487L717.331 57.653L718.195 57.1504ZM692.084 95.1436L691.243 95.6843L691.246 95.6889L692.084 95.1436ZM721.39 155.236V119.741H719.39V155.236H721.39ZM721.39 119.741C721.39 117.645 721.465 115.55 721.615 113.455L719.62 113.312C719.467 115.455 719.39 117.598 719.39 119.741H721.39ZM721.613 113.476C721.813 111.323 722.063 109.221 722.363 107.171L720.385 106.881C720.079 108.968 719.825 111.104 719.621 113.291L721.613 113.476ZM721.374 106.026H720.39V108.026H721.374V106.026ZM719.541 106.497C717.46 109.838 714.571 112.685 710.85 115.035L711.918 116.726C715.866 114.233 718.981 111.177 721.239 107.555L719.541 106.497ZM710.845 115.039C707.272 117.325 702.484 118.514 696.398 118.514V120.514C702.725 120.514 707.927 119.28 711.923 116.723L710.845 115.039ZM696.398 118.514C687.162 118.514 679.731 114.965 674.02 107.839L672.459 109.089C678.554 116.695 686.562 120.514 696.398 120.514V118.514ZM674.024 107.844C668.366 100.675 665.46 90.0595 665.46 75.8442H663.46C663.46 90.2879 666.406 101.419 672.454 109.083L674.024 107.844ZM665.46 75.8442C665.46 66.2943 666.811 58.3622 669.469 52.0116L667.624 51.2393C664.834 57.9064 663.46 66.1201 663.46 75.8442H665.46ZM669.47 52.0091C672.137 45.5905 675.812 40.8154 680.466 37.6155L679.333 35.9675C674.3 39.4278 670.406 44.5419 667.623 51.2419L669.47 52.0091ZM680.462 37.6183C685.177 34.4104 690.628 32.7964 696.853 32.7964V30.7964C690.261 30.7964 684.411 32.5124 679.337 35.9647L680.462 37.6183ZM696.853 32.7964C702.937 32.7964 707.753 33.9845 711.38 36.2747L712.448 34.5837C708.404 32.0302 703.18 30.7964 696.853 30.7964V32.7964ZM711.393 36.2828C715.168 38.5872 718.216 41.4202 720.553 44.7796L722.195 43.6374C719.688 40.0339 716.429 37.014 712.435 34.5756L711.393 36.2828ZM721.374 45.2085H721.979V43.2085H721.374V45.2085ZM722.962 44.394L725.006 33.5713L723.04 33.2002L720.997 44.023L722.962 44.394ZM724.023 34.3857H743.549V32.3857H724.023V34.3857ZM742.549 33.3857V155.236H744.549V33.3857H742.549ZM743.549 154.236H720.39V156.236H743.549V154.236ZM704.648 102.425C709.005 102.425 712.579 101.571 715.272 99.7572L714.155 98.0983C711.904 99.6144 708.768 100.425 704.648 100.425V102.425ZM715.265 99.7623C718.004 97.9547 719.943 95.258 721.112 91.7513L719.214 91.1188C718.163 94.2722 716.47 96.5707 714.163 98.0931L715.265 99.7623ZM721.113 91.747C722.264 88.2419 722.877 83.9228 722.979 78.8159L720.98 78.7759C720.88 83.7601 720.282 87.8672 719.213 91.1231L721.113 91.747ZM722.979 78.7959V75.9956H720.979V78.7959H722.979ZM722.979 75.9956C722.979 67.6955 721.711 61.2079 719.06 56.6478L717.331 57.653C719.725 61.7712 720.979 67.8471 720.979 75.9956H722.979ZM719.062 56.6521C716.302 51.8494 711.252 49.5659 704.27 49.5659V51.5659C710.809 51.5659 715.043 53.6721 717.328 57.6487L719.062 56.6521ZM704.27 49.5659C698.451 49.5659 694.025 51.9182 691.155 56.6301L692.863 57.6706C695.341 53.6033 699.089 51.5659 704.27 51.5659V49.5659ZM691.155 56.6301C688.344 61.2449 686.998 67.7899 686.998 76.147H688.998C688.998 67.9546 690.326 61.8352 692.863 57.6706L691.155 56.6301ZM686.998 76.147C686.998 84.6496 688.367 91.2094 691.243 95.6843L692.926 94.6028C690.353 90.6011 688.998 84.4966 688.998 76.147H686.998ZM691.246 95.6889C694.182 100.201 698.711 102.425 704.648 102.425V100.425C699.283 100.425 695.436 98.4613 692.923 94.5982L691.246 95.6889ZM837.594 33.3857H838.594V32.3857H837.594V33.3857ZM837.594 118V119H838.594V118H837.594ZM819.884 118L818.923 118.276L819.13 119H819.884V118ZM816.781 107.177L817.742 106.902L817.534 106.177H816.781V107.177ZM815.57 107.177V106.177H815.019L814.724 106.643L815.57 107.177ZM773.717 116.335L773.282 117.235L773.29 117.239L773.717 116.335ZM763.197 106.269L762.318 106.747L762.323 106.755L763.197 106.269ZM759.488 33.3857V32.3857H758.488V33.3857H759.488ZM782.572 33.3857H783.572V32.3857H782.572V33.3857ZM785.826 96.5059L786.643 95.9297L785.826 96.5059ZM807.245 97.9438L807.866 98.7276L807.875 98.7204L807.245 97.9438ZM812.845 88.4834L811.879 88.2272L811.876 88.2353L812.845 88.4834ZM814.51 33.3857V32.3857H813.51V33.3857H814.51ZM836.594 33.3857V118H838.594V33.3857H836.594ZM837.594 117H819.884V119H837.594V117ZM820.845 117.724L817.742 106.902L815.82 107.453L818.923 118.276L820.845 117.724ZM816.781 106.177H815.57V108.177H816.781V106.177ZM814.724 106.643C812.98 109.405 810.807 111.648 808.204 113.384L809.313 115.048C812.159 113.151 814.527 110.701 816.415 107.711L814.724 106.643ZM808.204 113.384C805.575 115.136 802.675 116.429 799.499 117.26L800.005 119.195C803.388 118.31 806.493 116.928 809.313 115.048L808.204 113.384ZM799.499 117.26C796.305 118.095 792.985 118.514 789.535 118.514V120.514C793.148 120.514 796.639 120.075 800.005 119.195L799.499 117.26ZM789.535 118.514C783.596 118.514 778.475 117.474 774.144 115.431L773.29 117.239C777.94 119.434 783.364 120.514 789.535 120.514V118.514ZM774.152 115.435C769.855 113.359 766.498 110.152 764.071 105.783L762.323 106.755C764.941 111.468 768.598 114.972 773.282 117.235L774.152 115.435ZM764.075 105.791C761.708 101.444 760.488 95.7216 760.488 88.5591H758.488C758.488 95.9278 759.74 102.012 762.318 106.747L764.075 105.791ZM760.488 88.5591V33.3857H758.488V88.5591H760.488ZM759.488 34.3857H782.572V32.3857H759.488V34.3857ZM781.572 33.3857V82.8071H783.572V33.3857H781.572ZM781.572 82.8071C781.572 88.953 782.668 93.7612 785.009 97.082L786.643 95.9297C784.645 93.095 783.572 88.7706 783.572 82.8071H781.572ZM785.009 97.082C787.414 100.494 791.221 102.123 796.195 102.123V100.123C791.683 100.123 788.577 98.6729 786.643 95.9297L785.009 97.082ZM796.195 102.123C801.029 102.123 804.959 101.031 807.866 98.7276L806.624 97.1601C804.182 99.0948 800.745 100.123 796.195 100.123V102.123ZM807.875 98.7204C810.752 96.3859 812.714 93.026 813.814 88.7315L811.876 88.2353C810.857 92.2155 809.086 95.1626 806.615 97.1673L807.875 98.7204ZM813.812 88.7396C814.951 84.443 815.51 79.2554 815.51 73.1953H813.51C813.51 79.1437 812.96 84.1481 811.879 88.2272L813.812 88.7396ZM815.51 73.1953V33.3857H813.51V73.1953H815.51ZM814.51 34.3857H837.594V32.3857H814.51V34.3857ZM914.836 39.062L915.469 38.2875L914.836 39.062ZM923.918 118V119H924.918V118H923.918ZM907.798 118L906.866 118.362L907.113 119H907.798V118ZM903.333 106.496L904.265 106.134L904.017 105.496H903.333V106.496ZM902.727 106.496V105.496H902.246L901.946 105.871L902.727 106.496ZM861.177 116.638L860.739 117.537L860.743 117.539L861.177 116.638ZM851.868 107.858L850.999 108.353L851.001 108.358L851.868 107.858ZM857.922 72.8926L858.48 73.7226L858.485 73.7195L857.922 72.8926ZM886.304 65.7783L886.273 64.7788L886.268 64.779L886.304 65.7783ZM900.986 65.3242L901.017 66.3237L901.986 66.2938V65.3242H900.986ZM863.977 54.8799L863.079 55.3201L863.505 56.1879L864.386 55.7922L863.977 54.8799ZM856.333 39.2891L855.866 38.4048L855.008 38.858L855.435 39.7293L856.333 39.2891ZM871.394 33.6885L871.158 32.7168L871.156 32.7173L871.394 33.6885ZM900.986 78.7959H901.986V77.7614L900.952 77.7965L900.986 78.7959ZM892.056 79.0986L892.083 80.0983L892.09 80.0981L892.056 79.0986ZM876.465 83.1099L875.819 82.3459L875.813 82.3515L876.465 83.1099ZM875.254 100.441L874.663 101.248L874.67 101.253L874.676 101.258L875.254 100.441ZM895.84 98.2466L895.191 97.4857L895.185 97.4905L895.84 98.2466ZM888.726 32.645C899.949 32.645 908.393 35.091 914.204 39.8365L915.469 38.2875C909.17 33.1437 900.207 30.645 888.726 30.645V32.645ZM914.204 39.8365C919.962 44.5387 922.918 51.7305 922.918 61.6157H924.918C924.918 51.3187 921.821 43.4746 915.469 38.2875L914.204 39.8365ZM922.918 61.6157V118H924.918V61.6157H922.918ZM923.918 117H907.798V119H923.918V117ZM908.73 117.638L904.265 106.134L902.4 106.858L906.866 118.362L908.73 117.638ZM903.333 105.496H902.727V107.496H903.333V105.496ZM901.946 105.871C899.565 108.848 897.15 111.259 894.705 113.117L895.915 114.709C898.516 112.733 901.046 110.199 903.508 107.121L901.946 105.871ZM894.705 113.117C892.291 114.952 889.506 116.311 886.34 117.188L886.873 119.115C890.266 118.176 893.284 116.709 895.915 114.709L894.705 113.117ZM886.34 117.188C883.173 118.065 879.282 118.514 874.648 118.514V120.514C879.4 120.514 883.481 120.055 886.873 119.115L886.34 117.188ZM874.648 118.514C869.784 118.514 865.444 117.581 861.61 115.737L860.743 117.539C864.881 119.529 869.523 120.514 874.648 120.514V118.514ZM861.615 115.739C857.866 113.912 854.909 111.128 852.734 107.359L851.001 108.358C853.368 112.46 856.617 115.529 860.739 117.537L861.615 115.739ZM852.737 107.363C850.576 103.57 849.462 98.7088 849.462 92.7217H847.462C847.462 98.9449 848.619 104.175 850.999 108.353L852.737 107.363ZM849.462 92.7217C849.462 84.0038 852.503 77.7393 858.48 73.7226L857.365 72.0626C850.728 76.5225 847.462 83.4774 847.462 92.7217H849.462ZM858.485 73.7195C864.565 69.5852 873.803 67.229 886.34 66.7777L886.268 64.779C873.576 65.2359 863.894 67.6225 857.36 72.0657L858.485 73.7195ZM886.335 66.7778L901.017 66.3237L900.955 64.3247L886.273 64.7788L886.335 66.7778ZM901.986 65.3242V61.6157H899.986V65.3242H901.986ZM901.986 61.6157C901.986 57.0157 900.782 53.4343 898.17 51.106L896.84 52.5991C898.869 54.4081 899.986 57.3355 899.986 61.6157H901.986ZM898.17 51.106C895.613 48.8265 892.118 47.7495 887.817 47.7495V49.7495C891.792 49.7495 894.755 50.7412 896.84 52.5991L898.17 51.106ZM887.817 47.7495C883.634 47.7495 879.528 48.3436 875.501 49.5311L876.067 51.4494C879.911 50.3159 883.827 49.7495 887.817 49.7495V47.7495ZM875.501 49.5311C871.52 50.7049 867.542 52.1841 863.568 53.9675L864.386 55.7922C868.283 54.0438 872.176 52.5965 876.067 51.4494L875.501 49.5311ZM864.875 54.4397L857.231 38.8488L855.435 39.7293L863.079 55.3201L864.875 54.4397ZM856.8 40.1733C861.21 37.8446 866.152 36.0048 871.632 34.6596L871.156 32.7173C865.536 34.0967 860.437 35.9907 855.866 38.4048L856.8 40.1733ZM871.63 34.6601C877.151 33.3173 882.849 32.645 888.726 32.645V30.645C882.695 30.645 876.838 31.3351 871.158 32.7168L871.63 34.6601ZM900.952 77.7965L892.022 78.0992L892.09 80.0981L901.02 79.7953L900.952 77.7965ZM892.029 78.099C884.518 78.302 879.021 79.6413 875.82 82.346L877.11 83.8737C879.762 81.6338 884.658 80.2989 892.083 80.0983L892.029 78.099ZM875.813 82.3515C872.7 85.0273 871.151 88.5665 871.151 92.873H873.151C873.151 89.1067 874.477 86.1371 877.117 83.8682L875.813 82.3515ZM871.151 92.873C871.151 96.5942 872.248 99.4811 874.663 101.248L875.844 99.6344C874.122 98.3744 873.151 96.2157 873.151 92.873H871.151ZM874.676 101.258C876.96 102.873 879.88 103.636 883.352 103.636V101.636C880.164 101.636 877.685 100.936 875.831 99.625L874.676 101.258ZM883.352 103.636C888.51 103.636 892.912 102.103 896.494 99.0026L895.185 97.4905C892.006 100.243 888.084 101.636 883.352 101.636V103.636ZM896.489 99.0074C900.187 95.8533 901.986 91.3868 901.986 85.7588H899.986C899.986 90.9283 898.355 94.787 895.191 97.4857L896.489 99.0074ZM901.986 85.7588V78.7959H899.986V85.7588H901.986ZM963.092 118V119H964.092V118H963.092ZM940.009 118H939.009V119H940.009V118ZM940.009 0.236328V-0.763672H939.009V0.236328H940.009ZM963.092 0.236328H964.092V-0.763672H963.092V0.236328ZM963.092 117H940.009V119H963.092V117ZM941.009 118V0.236328H939.009V118H941.009ZM940.009 1.23633H963.092V-0.763672H940.009V1.23633ZM962.092 0.236328V118H964.092V0.236328H962.092ZM1002.72 33.3857H1003.72V32.3857H1002.72V33.3857ZM1002.72 118V119H1003.72V118H1002.72ZM979.637 118H978.637V119H979.637V118ZM979.637 33.3857V32.3857H978.637V33.3857H979.637ZM1000.07 2.6582L999.524 3.49547L999.531 3.49942L999.537 3.50328L1000.07 2.6582ZM1000.07 20.4438L1000.62 21.2811L1000.62 21.2772L1000.63 21.2733L1000.07 20.4438ZM982.286 20.4438L981.719 21.2679L981.729 21.2746L981.739 21.2811L982.286 20.4438ZM982.286 2.6582L982.828 3.49825L982.832 3.49547L982.286 2.6582ZM1001.72 33.3857V118H1003.72V33.3857H1001.72ZM1002.72 117H979.637V119H1002.72V117ZM980.637 118V33.3857H978.637V118H980.637ZM979.637 34.3857H1002.72V32.3857H979.637V34.3857ZM991.216 1.23633C994.485 1.23633 997.24 2.00339 999.524 3.49547L1000.62 1.82093C997.958 0.083847 994.809 -0.763672 991.216 -0.763672V1.23633ZM999.537 3.50328C1001.6 4.80582 1002.78 7.33892 1002.78 11.5132H1004.78C1004.78 7.00906 1003.49 3.63884 1000.61 1.81313L999.537 3.50328ZM1002.78 11.5132C1002.78 15.6261 1001.6 18.2084 999.513 19.6144L1000.63 21.2733C1003.49 19.3492 1004.78 15.9777 1004.78 11.5132H1002.78ZM999.524 19.6066C997.24 21.0987 994.485 21.8657 991.216 21.8657V23.8657C994.809 23.8657 997.958 23.0182 1000.62 21.2811L999.524 19.6066ZM991.216 21.8657C987.894 21.8657 985.115 21.0971 982.832 19.6066L981.739 21.2811C984.401 23.0197 987.576 23.8657 991.216 23.8657V21.8657ZM982.852 19.6198C980.812 18.217 979.653 15.6336 979.653 11.5132H977.653C977.653 15.9702 978.916 19.3406 981.719 21.2679L982.852 19.6198ZM979.653 11.5132C979.653 7.33115 980.817 4.79731 982.828 3.49824L981.743 1.81816C978.911 3.64735 977.653 7.01683 977.653 11.5132H979.653ZM982.832 3.49547C985.115 2.00491 987.894 1.23633 991.216 1.23633V-0.763672C987.576 -0.763672 984.401 0.0823364 981.739 1.82093L982.832 3.49547ZM1022.97 108.464L1022.19 109.087L1022.2 109.092L1022.97 108.464ZM1023.12 42.9976L1023.9 43.6268L1023.9 43.6242L1023.12 42.9976ZM1065.28 37.9268L1064.64 38.6922L1064.65 38.6992L1065.28 37.9268ZM1071.03 44.2085L1070.2 44.7673L1070.5 45.2085H1071.03V44.2085ZM1071.79 44.2085V45.2085H1072.99L1072.77 44.0242L1071.79 44.2085ZM1070.65 37.0942L1069.66 37.2202L1069.66 37.2291L1069.66 37.2379L1070.65 37.0942ZM1070.05 0.236328V-0.763672H1069.05V0.236328H1070.05ZM1093.21 0.236328H1094.21V-0.763672H1093.21V0.236328ZM1093.21 118V119H1094.21V118H1093.21ZM1075.5 118L1074.57 118.377L1074.82 119H1075.5V118ZM1071.03 107.026L1071.96 106.649L1071.7 106.026H1071.03V107.026ZM1070.05 107.026V106.026H1069.5L1069.2 106.493L1070.05 107.026ZM1064.52 113.383L1065.18 114.141L1065.18 114.14L1064.52 113.383ZM1067.48 95.522L1066.65 94.9522L1066.65 94.9545L1067.48 95.522ZM1071.64 78.4932L1072.64 78.5132L1072.64 78.5032V78.4932H1071.64ZM1067.85 57.1504L1066.99 57.6487L1066.99 57.653L1067.85 57.1504ZM1041.82 94.8408L1040.99 95.407L1041 95.4136L1041.82 94.8408ZM1046.06 118.514C1036.92 118.514 1029.52 114.968 1023.75 107.835L1022.2 109.092C1028.34 116.693 1036.32 120.514 1046.06 120.514V118.514ZM1023.76 107.841C1018.05 100.672 1015.12 90.0579 1015.12 75.8442H1013.12C1013.12 90.2894 1016.09 101.422 1022.19 109.087L1023.76 107.841ZM1015.12 75.8442C1015.12 61.4793 1018.1 50.7941 1023.9 43.6268L1022.35 42.3684C1016.14 50.035 1013.12 61.2476 1013.12 75.8442H1015.12ZM1023.9 43.6242C1029.72 36.3958 1037.27 32.7964 1046.66 32.7964V30.7964C1036.68 30.7964 1028.54 34.6644 1022.35 42.3709L1023.9 43.6242ZM1046.66 32.7964C1050.61 32.7964 1054.05 33.3393 1056.99 34.4021L1057.67 32.5207C1054.46 31.3635 1050.79 30.7964 1046.66 30.7964V32.7964ZM1056.99 34.4021C1059.98 35.4772 1062.52 36.9103 1064.64 38.6921L1065.92 37.1614C1063.6 35.2095 1060.85 33.6657 1057.67 32.5207L1056.99 34.4021ZM1064.65 38.6992C1066.84 40.5077 1068.7 42.5305 1070.2 44.7673L1071.86 43.6496C1070.24 41.2445 1068.26 39.0795 1065.92 37.1543L1064.65 38.6992ZM1071.03 45.2085H1071.79V43.2085H1071.03V45.2085ZM1072.77 44.0242C1072.47 42.4303 1072.1 40.0752 1071.64 36.9506L1069.66 37.2379C1070.12 40.3698 1070.5 42.7575 1070.81 44.3928L1072.77 44.0242ZM1071.65 36.9683C1071.25 33.8329 1071.05 30.6207 1071.05 27.3311H1069.05C1069.05 30.7016 1069.25 33.9981 1069.66 37.2202L1071.65 36.9683ZM1071.05 27.3311V0.236328H1069.05V27.3311H1071.05ZM1070.05 1.23633H1093.21V-0.763672H1070.05V1.23633ZM1092.21 0.236328V118H1094.21V0.236328H1092.21ZM1093.21 117H1075.5V119H1093.21V117ZM1076.42 117.623L1071.96 106.649L1070.11 107.403L1074.57 118.377L1076.42 117.623ZM1071.03 106.026H1070.05V108.026H1071.03V106.026ZM1069.2 106.493C1067.8 108.724 1066.02 110.769 1063.87 112.626L1065.18 114.14C1067.47 112.163 1069.37 109.969 1070.89 107.559L1069.2 106.493ZM1063.87 112.625C1061.8 114.405 1059.31 115.836 1056.38 116.91L1057.07 118.788C1060.2 117.641 1062.9 116.096 1065.18 114.141L1063.87 112.625ZM1056.38 116.91C1053.49 117.97 1050.06 118.514 1046.06 118.514V120.514C1050.23 120.514 1053.91 119.947 1057.07 118.788L1056.38 116.91ZM1054.15 102.123C1060.65 102.123 1065.47 100.191 1068.3 96.0894L1066.65 94.9545C1064.33 98.32 1060.27 100.123 1054.15 100.123V102.123ZM1068.3 96.0918C1071.08 92.0721 1072.48 86.1638 1072.64 78.5132L1070.64 78.4732C1070.49 85.9592 1069.11 91.4035 1066.65 94.9522L1068.3 96.0918ZM1072.64 78.4932V75.9956H1070.64V78.4932H1072.64ZM1072.64 75.9956C1072.64 67.6955 1071.37 61.2079 1068.72 56.6478L1066.99 57.653C1069.38 61.7712 1070.64 67.8471 1070.64 75.9956H1072.64ZM1068.72 56.6521C1065.96 51.8447 1060.85 49.5659 1053.78 49.5659V51.5659C1060.42 51.5659 1064.7 53.6768 1066.99 57.6487L1068.72 56.6521ZM1053.78 49.5659C1048.33 49.5659 1044.04 51.9408 1040.98 56.6024L1042.65 57.6984C1045.35 53.5807 1049.03 51.5659 1053.78 51.5659V49.5659ZM1040.98 56.6024C1037.95 61.2238 1036.5 67.7806 1036.5 76.147H1038.5C1038.5 67.9638 1039.93 61.8563 1042.65 57.6984L1040.98 56.6024ZM1036.5 76.147C1036.5 84.5081 1037.95 90.9775 1040.99 95.4069L1042.64 94.2747C1039.93 90.3285 1038.5 84.3353 1038.5 76.147H1036.5ZM1041 95.4136C1044.12 99.8807 1048.54 102.123 1054.15 102.123V100.123C1049.17 100.123 1045.37 98.1766 1042.64 94.268L1041 95.4136ZM1170.37 39.062L1171.01 38.2875L1170.37 39.062ZM1179.46 118V119H1180.46V118H1179.46ZM1163.34 118L1162.4 118.362L1162.65 119H1163.34V118ZM1158.87 106.496L1159.8 106.134L1159.56 105.496H1158.87V106.496ZM1158.27 106.496V105.496H1157.78L1157.48 105.871L1158.27 106.496ZM1116.71 116.638L1116.28 117.537L1116.28 117.539L1116.71 116.638ZM1107.41 107.858L1106.54 108.353L1106.54 108.358L1107.41 107.858ZM1113.46 72.8926L1114.02 73.7226L1114.02 73.7195L1113.46 72.8926ZM1141.84 65.7783L1141.81 64.7788L1141.81 64.779L1141.84 65.7783ZM1156.52 65.3242L1156.56 66.3237L1157.52 66.2938V65.3242H1156.52ZM1119.52 54.8799L1118.62 55.3201L1119.04 56.1879L1119.92 55.7922L1119.52 54.8799ZM1111.87 39.2891L1111.4 38.4048L1110.55 38.858L1110.97 39.7293L1111.87 39.2891ZM1126.93 33.6885L1126.7 32.7168L1126.69 32.7173L1126.93 33.6885ZM1156.52 78.7959H1157.52V77.7614L1156.49 77.7965L1156.52 78.7959ZM1147.59 79.0986L1147.62 80.0983L1147.63 80.0981L1147.59 79.0986ZM1132 83.1099L1131.36 82.3459L1131.35 82.3515L1132 83.1099ZM1130.79 100.441L1130.2 101.248L1130.21 101.253L1130.21 101.258L1130.79 100.441ZM1151.38 98.2466L1150.73 97.4857L1150.72 97.4905L1151.38 98.2466ZM1144.26 32.645C1155.49 32.645 1163.93 35.091 1169.74 39.8365L1171.01 38.2875C1164.71 33.1437 1155.75 30.645 1144.26 30.645V32.645ZM1169.74 39.8365C1175.5 44.5387 1178.46 51.7305 1178.46 61.6157H1180.46C1180.46 51.3187 1177.36 43.4746 1171.01 38.2875L1169.74 39.8365ZM1178.46 61.6157V118H1180.46V61.6157H1178.46ZM1179.46 117H1163.34V119H1179.46V117ZM1164.27 117.638L1159.8 106.134L1157.94 106.858L1162.4 118.362L1164.27 117.638ZM1158.87 105.496H1158.27V107.496H1158.87V105.496ZM1157.48 105.871C1155.1 108.848 1152.69 111.259 1150.24 113.117L1151.45 114.709C1154.05 112.733 1156.58 110.199 1159.05 107.121L1157.48 105.871ZM1150.24 113.117C1147.83 114.952 1145.04 116.311 1141.88 117.188L1142.41 119.115C1145.8 118.176 1148.82 116.709 1151.45 114.709L1150.24 113.117ZM1141.88 117.188C1138.71 118.065 1134.82 118.514 1130.19 118.514V120.514C1134.94 120.514 1139.02 120.055 1142.41 119.115L1141.88 117.188ZM1130.19 118.514C1125.32 118.514 1120.98 117.581 1117.15 115.737L1116.28 117.539C1120.42 119.529 1125.06 120.514 1130.19 120.514V118.514ZM1117.15 115.739C1113.4 113.912 1110.45 111.128 1108.27 107.359L1106.54 108.358C1108.91 112.46 1112.15 115.529 1116.28 117.537L1117.15 115.739ZM1108.27 107.363C1106.11 103.57 1105 98.7088 1105 92.7217H1103C1103 98.9449 1104.16 104.175 1106.54 108.353L1108.27 107.363ZM1105 92.7217C1105 84.0038 1108.04 77.7393 1114.02 73.7226L1112.9 72.0626C1106.27 76.5225 1103 83.4774 1103 92.7217H1105ZM1114.02 73.7195C1120.1 69.5852 1129.34 67.229 1141.88 66.7777L1141.81 64.779C1129.11 65.2359 1119.43 67.6225 1112.9 72.0657L1114.02 73.7195ZM1141.87 66.7778L1156.56 66.3237L1156.49 64.3247L1141.81 64.7788L1141.87 66.7778ZM1157.52 65.3242V61.6157H1155.52V65.3242H1157.52ZM1157.52 61.6157C1157.52 57.0157 1156.32 53.4343 1153.71 51.106L1152.38 52.5991C1154.41 54.4081 1155.52 57.3355 1155.52 61.6157H1157.52ZM1153.71 51.106C1151.15 48.8265 1147.66 47.7495 1143.36 47.7495V49.7495C1147.33 49.7495 1150.29 50.7412 1152.38 52.5991L1153.71 51.106ZM1143.36 47.7495C1139.17 47.7495 1135.07 48.3436 1131.04 49.5311L1131.6 51.4494C1135.45 50.3159 1139.36 49.7495 1143.36 49.7495V47.7495ZM1131.04 49.5311C1127.06 50.7049 1123.08 52.1841 1119.11 53.9675L1119.92 55.7922C1123.82 54.0438 1127.71 52.5965 1131.6 51.4494L1131.04 49.5311ZM1120.41 54.4397L1112.77 38.8488L1110.97 39.7293L1118.62 55.3201L1120.41 54.4397ZM1112.34 40.1733C1116.75 37.8446 1121.69 36.0048 1127.17 34.6596L1126.69 32.7173C1121.07 34.0967 1115.98 35.9907 1111.4 38.4048L1112.34 40.1733ZM1127.17 34.6601C1132.69 33.3173 1138.39 32.645 1144.26 32.645V30.645C1138.23 30.645 1132.38 31.3351 1126.7 32.7168L1127.17 34.6601ZM1156.49 77.7965L1147.56 78.0992L1147.63 80.0981L1156.56 79.7953L1156.49 77.7965ZM1147.57 78.099C1140.06 78.302 1134.56 79.6413 1131.36 82.346L1132.65 83.8737C1135.3 81.6338 1140.2 80.2989 1147.62 80.0983L1147.57 78.099ZM1131.35 82.3515C1128.24 85.0273 1126.69 88.5665 1126.69 92.873H1128.69C1128.69 89.1067 1130.02 86.1371 1132.65 83.8682L1131.35 82.3515ZM1126.69 92.873C1126.69 96.5942 1127.79 99.4811 1130.2 101.248L1131.38 99.6344C1129.66 98.3744 1128.69 96.2157 1128.69 92.873H1126.69ZM1130.21 101.258C1132.5 102.873 1135.42 103.636 1138.89 103.636V101.636C1135.7 101.636 1133.22 100.936 1131.37 99.625L1130.21 101.258ZM1138.89 103.636C1144.05 103.636 1148.45 102.103 1152.03 99.0026L1150.72 97.4905C1147.54 100.243 1143.62 101.636 1138.89 101.636V103.636ZM1152.03 99.0074C1155.72 95.8533 1157.52 91.3868 1157.52 85.7588H1155.52C1155.52 90.9283 1153.89 94.787 1150.73 97.4857L1152.03 99.0074ZM1157.52 85.7588V78.7959H1155.52V85.7588H1157.52ZM1199.26 108.464L1198.47 109.087L1198.48 109.092L1199.26 108.464ZM1199.41 42.9976L1200.18 43.6268L1200.19 43.6242L1199.41 42.9976ZM1241.56 37.9268L1240.92 38.6922L1240.93 38.6992L1241.56 37.9268ZM1247.31 44.2085L1246.49 44.7673L1246.78 45.2085H1247.31V44.2085ZM1248.07 44.2085V45.2085H1249.28L1249.05 44.0242L1248.07 44.2085ZM1246.94 37.0942L1245.94 37.2202L1245.95 37.2291L1245.95 37.2379L1246.94 37.0942ZM1246.33 0.236328V-0.763672H1245.33V0.236328H1246.33ZM1269.49 0.236328H1270.49V-0.763672H1269.49V0.236328ZM1269.49 118V119H1270.49V118H1269.49ZM1251.78 118L1250.85 118.377L1251.11 119H1251.78V118ZM1247.31 107.026L1248.24 106.649L1247.99 106.026H1247.31V107.026ZM1246.33 107.026V106.026H1245.78L1245.48 106.493L1246.33 107.026ZM1240.81 113.383L1241.46 114.141L1241.46 114.14L1240.81 113.383ZM1243.76 95.522L1242.94 94.9522L1242.93 94.9545L1243.76 95.522ZM1247.92 78.4932L1248.92 78.5132L1248.92 78.5032V78.4932H1247.92ZM1244.14 57.1504L1243.27 57.6487L1243.27 57.653L1244.14 57.1504ZM1218.1 94.8408L1217.28 95.407L1217.28 95.4136L1218.1 94.8408ZM1222.34 118.514C1213.21 118.514 1205.8 114.968 1200.03 107.835L1198.48 109.092C1204.62 116.693 1212.6 120.514 1222.34 120.514V118.514ZM1200.04 107.841C1194.33 100.672 1191.4 90.0579 1191.4 75.8442H1189.4C1189.4 90.2894 1192.37 101.422 1198.47 109.087L1200.04 107.841ZM1191.4 75.8442C1191.4 61.4793 1194.38 50.7941 1200.18 43.6268L1198.63 42.3684C1192.42 50.035 1189.4 61.2476 1189.4 75.8442H1191.4ZM1200.19 43.6242C1206 36.3958 1213.56 32.7964 1222.94 32.7964V30.7964C1212.96 30.7964 1204.82 34.6644 1198.63 42.3709L1200.19 43.6242ZM1222.94 32.7964C1226.89 32.7964 1230.33 33.3393 1233.28 34.4021L1233.95 32.5207C1230.75 31.3635 1227.07 30.7964 1222.94 30.7964V32.7964ZM1233.28 34.4021C1236.26 35.4772 1238.8 36.9103 1240.92 38.6921L1242.21 37.1614C1239.89 35.2095 1237.13 33.6657 1233.95 32.5207L1233.28 34.4021ZM1240.93 38.6992C1243.13 40.5077 1244.98 42.5305 1246.49 44.7673L1248.14 43.6496C1246.52 41.2445 1244.54 39.0795 1242.2 37.1543L1240.93 38.6992ZM1247.31 45.2085H1248.07V43.2085H1247.31V45.2085ZM1249.05 44.0242C1248.76 42.4303 1248.38 40.0752 1247.93 36.9506L1245.95 37.2379C1246.4 40.3698 1246.78 42.7575 1247.09 44.3928L1249.05 44.0242ZM1247.93 36.9683C1247.53 33.8329 1247.33 30.6207 1247.33 27.3311H1245.33C1245.33 30.7016 1245.53 33.9981 1245.94 37.2202L1247.93 36.9683ZM1247.33 27.3311V0.236328H1245.33V27.3311H1247.33ZM1246.33 1.23633H1269.49V-0.763672H1246.33V1.23633ZM1268.49 0.236328V118H1270.49V0.236328H1268.49ZM1269.49 117H1251.78V119H1269.49V117ZM1252.71 117.623L1248.24 106.649L1246.39 107.403L1250.85 118.377L1252.71 117.623ZM1247.31 106.026H1246.33V108.026H1247.31V106.026ZM1245.48 106.493C1244.08 108.724 1242.3 110.769 1240.15 112.626L1241.46 114.14C1243.75 112.163 1245.66 109.969 1247.18 107.559L1245.48 106.493ZM1240.15 112.625C1238.09 114.405 1235.59 115.836 1232.67 116.91L1233.35 118.788C1236.48 117.641 1239.19 116.096 1241.46 114.141L1240.15 112.625ZM1232.67 116.91C1229.77 117.97 1226.34 118.514 1222.34 118.514V120.514C1226.51 120.514 1230.19 119.947 1233.35 118.788L1232.67 116.91ZM1230.44 102.123C1236.93 102.123 1241.75 100.191 1244.58 96.0894L1242.93 94.9545C1240.61 98.32 1236.55 100.123 1230.44 100.123V102.123ZM1244.58 96.0918C1247.37 92.0721 1248.77 86.1638 1248.92 78.5132L1246.92 78.4732C1246.77 85.9592 1245.4 91.4035 1242.94 94.9522L1244.58 96.0918ZM1248.92 78.4932V75.9956H1246.92V78.4932H1248.92ZM1248.92 75.9956C1248.92 67.6955 1247.65 61.2079 1245 56.6478L1243.27 57.653C1245.67 61.7712 1246.92 67.8471 1246.92 75.9956H1248.92ZM1245 56.6521C1242.24 51.8447 1237.13 49.5659 1230.06 49.5659V51.5659C1236.71 51.5659 1240.99 53.6768 1243.27 57.6487L1245 56.6521ZM1230.06 49.5659C1224.61 49.5659 1220.32 51.9408 1217.26 56.6024L1218.94 57.6984C1221.63 53.5807 1225.31 51.5659 1230.06 51.5659V49.5659ZM1217.26 56.6024C1214.24 61.2238 1212.79 67.7806 1212.79 76.147H1214.79C1214.79 67.9638 1216.21 61.8563 1218.94 57.6984L1217.26 56.6024ZM1212.79 76.147C1212.79 84.5081 1214.23 90.9775 1217.28 95.4069L1218.92 94.2747C1216.21 90.3285 1214.79 84.3353 1214.79 76.147H1212.79ZM1217.28 95.4136C1220.4 99.8807 1224.83 102.123 1230.44 102.123V100.123C1225.45 100.123 1221.65 98.1766 1218.92 94.268L1217.28 95.4136ZM1340.98 36.3374L1340.51 37.2189L1340.51 37.2222L1340.98 36.3374ZM1354.07 49.355L1353.19 49.83L1354.07 49.355ZM1358.69 81.4448V82.4448H1359.69V81.4448H1358.69ZM1304.12 81.4448V80.4448H1303.08L1303.12 81.4836L1304.12 81.4448ZM1309.95 96.8086L1309.23 97.506L1309.24 97.5157L1309.95 96.8086ZM1340.07 100.668L1339.83 99.6977L1340.07 100.668ZM1353.92 95.6733H1354.92V94.1011L1353.5 94.7677L1353.92 95.6733ZM1353.92 113.535L1354.37 114.431L1354.92 114.156V113.535H1353.92ZM1340.75 118.076L1340.55 117.097L1340.55 117.097L1340.75 118.076ZM1301.62 114.821L1301.19 115.723L1301.19 115.724L1301.62 114.821ZM1286.26 100.517L1285.39 101.015L1285.4 101.021L1286.26 100.517ZM1285.73 51.6255L1284.84 51.1701L1284.84 51.1728L1285.73 51.6255ZM1299.81 36.7915L1300.29 37.6691L1300.29 37.666L1299.81 36.7915ZM1309.72 52.5337L1309.03 51.8145L1309.02 51.8205L1309.72 52.5337ZM1304.65 66.0811L1303.66 66.0075L1303.58 67.0811H1304.65V66.0811ZM1337.04 66.0811V67.0811H1338.06L1338.04 66.0664L1337.04 66.0811ZM1335.15 56.9233L1334.24 57.3214L1334.24 57.3287L1334.24 57.3358L1335.15 56.9233ZM1329.85 50.5659L1329.3 51.3952L1329.3 51.4007L1329.85 50.5659ZM1320.77 32.7964C1328.46 32.7964 1335.03 34.2847 1340.51 37.2189L1341.45 35.4559C1335.63 32.3354 1328.72 30.7964 1320.77 30.7964V32.7964ZM1340.51 37.2222C1345.99 40.1051 1350.21 44.3004 1353.19 49.83L1354.95 48.88C1351.78 43.0065 1347.28 38.5234 1341.45 35.4527L1340.51 37.2222ZM1353.19 49.83C1356.17 55.3514 1357.69 62.1415 1357.69 70.2437H1359.69C1359.69 61.8972 1358.13 54.7615 1354.95 48.88L1353.19 49.83ZM1357.69 70.2437V81.4448H1359.69V70.2437H1357.69ZM1358.69 80.4448H1304.12V82.4448H1358.69V80.4448ZM1303.12 81.4836C1303.38 88.175 1305.39 93.5539 1309.23 97.506L1310.67 96.1112C1307.25 92.5959 1305.37 87.7322 1305.12 81.4061L1303.12 81.4836ZM1309.24 97.5157C1313.16 101.431 1318.53 103.333 1325.24 103.333V101.333C1318.92 101.333 1314.11 99.553 1310.66 96.1015L1309.24 97.5157ZM1325.24 103.333C1330.7 103.333 1335.73 102.772 1340.31 101.639L1339.83 99.6977C1335.43 100.785 1330.57 101.333 1325.24 101.333V103.333ZM1340.31 101.639C1344.87 100.512 1349.55 98.8232 1354.35 96.579L1353.5 94.7677C1348.81 96.9636 1344.25 98.6052 1339.83 99.6977L1340.31 101.639ZM1352.92 95.6733V113.535H1354.92V95.6733H1352.92ZM1353.48 112.638C1349.37 114.669 1345.06 116.155 1340.55 117.097L1340.96 119.055C1345.63 118.079 1350.1 116.537 1354.37 114.431L1353.48 112.638ZM1340.55 117.097C1336.09 118.037 1330.64 118.514 1324.18 118.514V120.514C1330.73 120.514 1336.33 120.032 1340.96 119.054L1340.55 117.097ZM1324.18 118.514C1315.83 118.514 1308.46 116.973 1302.06 113.919L1301.19 115.724C1307.91 118.926 1315.58 120.514 1324.18 120.514V118.514ZM1302.06 113.92C1295.73 110.881 1290.76 106.254 1287.13 100.014L1285.4 101.021C1289.23 107.596 1294.5 112.505 1301.19 115.723L1302.06 113.92ZM1287.13 100.019C1283.56 93.8032 1281.74 85.9153 1281.74 76.2983H1279.74C1279.74 86.1573 1281.6 94.4152 1285.39 101.015L1287.13 100.019ZM1281.74 76.2983C1281.74 66.5146 1283.38 58.4574 1286.62 52.0782L1284.84 51.1728C1281.42 57.9121 1279.74 66.3034 1279.74 76.2983H1281.74ZM1286.62 52.0808C1289.92 45.634 1294.48 40.8442 1300.29 37.6691L1299.33 35.9139C1293.13 39.298 1288.3 44.3976 1284.84 51.1701L1286.62 52.0808ZM1300.29 37.666C1306.13 34.4306 1312.94 32.7964 1320.77 32.7964V30.7964C1312.66 30.7964 1305.5 32.4922 1299.32 35.917L1300.29 37.666ZM1320.92 47.2197C1316.2 47.2197 1312.21 48.7423 1309.03 51.8145L1310.42 53.2529C1313.19 50.5731 1316.67 49.2197 1320.92 49.2197V47.2197ZM1309.02 51.8205C1305.85 54.9346 1304.12 59.728 1303.66 66.0075L1305.65 66.1546C1306.09 60.1229 1307.74 55.8848 1310.42 53.2469L1309.02 51.8205ZM1304.65 67.0811H1337.04V65.0811H1304.65V67.0811ZM1338.04 66.0664C1337.99 62.521 1337.34 59.3294 1336.06 56.5108L1334.24 57.3358C1335.39 59.8656 1336 62.7791 1336.05 66.0958L1338.04 66.0664ZM1336.07 56.5252C1334.83 53.678 1332.94 51.4051 1330.41 49.7311L1329.3 51.4007C1331.51 52.855 1333.15 54.8204 1334.24 57.3214L1336.07 56.5252ZM1330.41 49.7366C1327.88 48.0324 1324.7 47.2197 1320.92 47.2197V49.2197C1324.42 49.2197 1327.18 49.9712 1329.3 51.3952L1330.41 49.7366Z" fill="#E5E5E5"/>
</svg>
