<svg width="300" height="59" viewBox="0 0 300 59" fill="none" xmlns="http://www.w3.org/2000/svg">
<g clip-path="url(#clip0_360_76)">
<path d="M6.63643 11.6829C6.18466 11.7964 5.79563 12.0509 5.42495 12.3358C4.73282 12.8692 4.25692 13.575 3.87272 14.3571C3.32442 15.4711 3.04544 16.6516 2.97497 17.8879C2.97111 17.9623 2.96821 18.0376 2.97304 18.113C2.98945 18.3607 3.0464 18.4262 3.29063 18.4223C3.61015 18.4174 3.92967 18.3851 4.24919 18.3753C4.64304 18.3636 5.03786 18.3597 5.43171 18.3558C5.86031 18.3519 5.93174 18.4184 5.93464 18.8472C5.9385 19.4217 5.93367 19.9963 5.93271 20.5719C5.93078 22.2839 5.92981 23.996 5.92788 25.708C5.92788 25.8333 5.93271 25.9596 5.9163 26.0819C5.88734 26.3022 5.80046 26.3844 5.58133 26.4098C5.48384 26.4216 5.38441 26.4177 5.28594 26.4177C3.69606 26.4167 2.10618 26.4147 0.517268 26.4138C0.442939 26.4138 0.369574 26.4098 0.295245 26.4118C0.112799 26.4157 0.0210941 26.3257 0.0153022 26.1426C0.0114409 26.0173 0.0095103 25.893 0.0095103 25.7677C0.0095103 23.6054 0.0307473 21.4441 -0.000142894 19.2827C-0.0146227 18.2961 0.136932 17.3397 0.352199 16.3922C0.777904 14.5206 1.68241 12.9015 3.01648 11.5439C4.21444 10.3252 5.64698 9.53622 7.33918 9.27388C7.67994 9.22103 7.96181 9.10356 8.19638 8.82361C8.64236 8.28915 9.24858 7.9671 9.84998 7.64702C12.2584 6.36373 14.7992 5.41228 17.3795 4.55969C20.8981 3.3968 24.4813 2.4845 28.1003 1.71414C30.6092 1.18066 33.1344 0.743105 35.6742 0.399525C36.2476 0.322195 36.8258 0.284998 37.4021 0.228224C38.5673 0.112718 39.7343 0.0510499 40.9062 0.0520288C41.2238 0.0520288 41.5433 0.0118954 41.8638 0.00406455C43.5097 -0.0370476 45.061 0.371138 46.5678 0.998588C47.9666 1.58101 49.234 2.40228 50.5025 3.2206C52.9978 4.83083 55.4594 6.49196 57.9045 8.17952C60.757 10.148 63.5903 12.1439 66.3974 14.178C69.6959 16.5684 72.9925 18.9597 76.29 21.3511C76.6501 21.6124 76.9937 21.8973 77.3818 22.1205C77.4831 22.1792 77.6888 22.2644 77.6057 22.4102C77.5092 22.5805 77.3663 22.4024 77.265 22.3436C76.0004 21.6095 74.6634 21.0281 73.3323 20.4358C71.7289 19.7232 70.1071 19.0576 68.4101 18.6024C67.4332 18.3401 66.4524 18.0954 65.4321 18.0846C64.2718 18.0719 63.2621 18.4664 62.372 19.2084C61.565 19.8808 61.0225 20.7579 60.508 21.6565C59.8139 22.8703 59.2849 24.1634 58.7289 25.4447C57.8012 27.5835 56.8823 29.7272 55.7982 31.7906C55.1785 32.9702 54.5443 34.1438 53.7266 35.201C51.9804 37.4602 49.7283 38.9099 46.9675 39.5471C46.5968 39.6333 46.2396 39.783 45.8535 39.8016C45.7927 39.8046 45.7319 39.8232 45.671 39.8271C45.5977 39.832 45.5156 39.8398 45.476 39.7596C45.4239 39.6548 45.5021 39.6 45.5726 39.5471C45.9896 39.2349 46.3854 38.8982 46.7647 38.5399C48.2407 37.144 49.4001 35.5074 50.3364 33.7014C51.268 31.9032 51.9504 30.0023 52.5653 28.0739C53.2961 25.7804 53.9245 23.4517 54.7827 21.2003C55.3744 19.6469 56.0598 18.1394 56.9624 16.7426C57.4016 16.0623 57.8756 15.4084 58.4152 14.8045C58.4644 14.7487 58.5146 14.6929 58.5638 14.6371C58.6874 14.4961 58.6729 14.3649 58.5291 14.2514C58.3438 14.1055 58.1574 13.9626 57.9673 13.8246C56.8446 13.0063 55.6476 12.3093 54.4448 11.6232C52.9196 10.7529 51.3761 9.91798 49.7746 9.19851C49.3238 8.99589 48.8653 8.81284 48.4087 8.62392C48.2948 8.57694 48.178 8.53582 48.0583 8.50646C47.5245 8.37529 47.2851 8.4859 47.0447 8.98218C46.6827 9.72808 46.48 10.5268 46.3091 11.3344C45.924 13.1561 45.6865 15.0002 45.4799 16.8503C45.2811 18.625 45.1391 20.4045 44.9924 22.1831C44.893 23.3901 44.8312 24.5999 44.7453 25.8078C44.6353 27.3398 44.5146 28.8707 44.4055 30.4016C44.3196 31.5968 44.2443 32.793 44.1622 33.9892C43.9924 36.4559 43.836 38.9236 43.4296 41.3659C43.3697 41.7232 43.2848 42.0755 43.1699 42.4191C43.1429 42.5013 43.1052 42.5806 43.0627 42.656C43.0483 42.6815 43.0048 42.702 42.973 42.704C42.917 42.7079 42.8822 42.6648 42.8735 42.6129C42.8639 42.5522 42.8649 42.4886 42.8649 42.427C42.8755 39.1908 42.8716 35.9537 42.9025 32.7176C42.9189 31.0066 42.9836 29.2965 43.0492 27.5864C43.1033 26.1896 43.1718 24.7918 43.2693 23.3969C43.3861 21.7279 43.5107 20.06 43.6767 18.3949C43.9035 16.12 44.2009 13.8559 44.5715 11.6006C44.8187 10.0971 45.1256 8.60532 45.423 7.11158C45.4867 6.79345 45.5359 6.4714 45.6093 6.15621C45.7599 5.50918 46.0543 5.33592 46.6914 5.52387C47.1895 5.6707 47.6664 5.87528 48.1336 6.10237C49.4242 6.73178 50.6405 7.49431 51.8578 8.25391C54.8387 10.1157 57.7037 12.1557 60.6045 14.1398C60.6451 14.1682 60.6875 14.1946 60.7262 14.225C60.9163 14.3787 60.9269 14.4315 60.7764 14.6195C60.5891 14.8514 60.3873 15.0707 60.201 15.3047C59.5002 16.1837 58.9442 17.1567 58.4345 18.1571C56.7056 21.5439 55.3966 25.0962 54.4014 28.7699C54.3386 29.0028 54.246 29.2387 54.3251 29.5314C54.5153 29.3591 54.6225 29.1653 54.7364 28.9784C55.4034 27.8752 55.8735 26.681 56.3195 25.474C56.8861 23.9421 57.3987 22.3887 58.0445 20.8871C58.6227 19.5431 59.2753 18.2422 60.201 17.1028C61.0968 15.9996 62.1307 15.0697 63.4455 14.502C63.5082 14.4746 63.5922 14.4658 63.6212 14.362C63.2717 14.2455 62.9213 14.3199 62.5728 14.3434C62.4995 14.3483 62.4271 14.3738 62.3537 14.3757C62.1857 14.3796 62.1297 14.2896 62.2002 14.1378C62.3797 13.7522 62.3826 13.7473 62.0332 13.4947C60.1972 12.1684 58.3602 10.842 56.5203 9.52056C54.3174 7.93774 52.0479 6.4577 49.763 5.00115C48.5255 4.21219 47.2011 3.61411 45.8294 3.11195C44.866 2.75956 43.8968 2.4336 42.889 2.23881C41.8397 2.03618 40.7894 2.00486 39.7285 2.15169C38.24 2.35823 36.7457 2.52072 35.2562 2.72041C31.7029 3.19613 28.1544 3.7022 24.6319 4.38741C21.4579 5.00507 18.3245 5.77739 15.2645 6.84141C14.9034 6.96671 14.5491 7.11256 14.191 7.24764C14.0395 7.30442 13.9062 7.38664 13.7914 7.52074C13.9198 7.57458 13.9902 7.48061 14.0771 7.44929C14.2277 7.39447 14.3725 7.31127 14.5269 7.2819C15.8485 7.02936 17.1246 6.59376 18.4278 6.27074C21.1819 5.58847 23.962 5.03639 26.7585 4.57143C28.6911 4.25037 30.6323 3.98999 32.5784 3.76094C33.9482 3.59942 35.3199 3.45553 36.6965 3.35569C37.7651 3.27836 38.8308 3.1697 39.8994 3.08944C40.691 3.0307 41.4758 3.07084 42.2364 3.33709C42.5058 3.43106 42.7606 3.5544 42.9981 3.71493C43.5512 4.08885 43.8504 4.61744 43.8601 5.28698C43.8765 6.39897 43.8051 7.509 43.7501 8.61903C43.7192 9.22984 43.695 9.84163 43.667 10.4524C43.6004 11.9002 43.4875 13.344 43.4103 14.7898C43.3321 16.261 43.2249 17.7303 43.1187 19.1995C43.001 20.8431 42.8842 22.4875 42.7423 24.1291C42.5608 26.2307 42.3687 28.3323 42.1544 30.431C41.9652 32.2811 41.7528 34.1291 41.4429 35.9645C41.2962 36.8318 40.9111 37.3809 40.0693 37.6726C38.8636 38.0916 37.6338 38.3931 36.3856 38.63C34.9685 38.8982 33.5312 39.0293 32.1073 39.2476C31.1314 39.3974 30.1477 39.4385 29.1718 39.5667C29.0502 39.5824 28.9266 39.5971 28.804 39.5971C27.3377 39.598 25.8752 39.7136 24.4109 39.7733C22.515 39.8496 20.6191 39.8966 18.7222 39.9269C18.0089 39.9387 17.2926 39.9847 16.5802 39.9563C15.3484 39.9074 14.1157 39.9338 12.8849 39.8848C11.408 39.8261 9.93203 39.7586 8.45702 39.6597C6.99456 39.5628 5.53596 39.414 4.10053 39.0881C3.89492 39.0411 3.69993 38.9686 3.50107 38.9011C3.2916 38.8287 3.17286 38.8845 3.16224 39.1037C3.12749 39.8281 2.95663 40.5378 2.95856 41.266C2.95856 41.5822 3.13425 41.7701 3.35531 41.9444C4.04068 42.4847 4.78881 42.9174 5.58809 43.2561C6.60168 43.6848 7.64808 44.0019 8.71572 44.2701C9.72255 44.5227 10.7361 44.7361 11.7623 44.8496C13.0944 44.9974 14.4208 45.2099 15.7683 45.2216C16.6053 45.2285 17.4432 45.3028 18.2801 45.2637C19.5843 45.203 20.8894 45.1834 22.1916 45.0816C23.0015 45.019 23.8133 44.9739 24.6242 44.9142C25.7913 44.8281 26.9554 44.7136 28.1177 44.5824C29.6603 44.4082 31.197 44.1948 32.7271 43.9275C34.7446 43.5752 36.7399 43.1259 38.687 42.4759C39.52 42.1979 40.3261 41.8553 41.0983 41.4344C41.1852 41.3874 41.2702 41.3355 41.3619 41.2983C41.5617 41.2161 41.6563 41.2582 41.6524 41.4765C41.6408 42.0011 41.7287 42.5219 41.6823 43.0476C41.6302 43.6447 41.6804 44.2467 41.58 44.8418C41.5134 45.2353 41.47 45.6337 41.3406 46.0145C41.3165 46.085 41.2904 46.1564 41.2576 46.223C41.2093 46.3199 41.1823 46.4559 41.0394 46.4393C40.8946 46.4227 40.8917 46.2905 40.8811 46.1799C40.858 45.9313 40.828 45.6826 40.8222 45.433C40.8039 44.6578 40.8493 43.8855 40.9419 43.1151C40.9526 43.0309 40.9796 42.9418 40.9246 42.8616C40.4969 42.9213 40.4786 42.9272 40.4323 43.3089C40.385 43.6926 40.357 44.0793 40.3299 44.4649C40.2932 44.9877 40.2653 45.5113 40.2344 46.035C40.2006 46.5979 40.134 46.6948 39.6127 46.8671C37.4755 47.5758 35.291 48.0769 33.064 48.3814C31.5745 48.585 30.0811 48.7494 28.5752 48.7504C28.2519 48.7504 28.2519 48.7592 28.0366 48.6065C28.0675 48.491 28.1669 48.5135 28.2461 48.4998C28.8059 48.4 29.3755 48.4489 29.9402 48.3784C30.9316 48.2541 31.9172 48.1132 32.8835 47.8587C34.7552 47.3643 36.6241 46.8602 38.4949 46.361C38.6261 46.3258 38.7574 46.2905 38.8897 46.2631C39.0905 46.221 39.1754 46.0938 39.1841 45.8921C39.2121 45.2304 39.2517 44.5697 39.2729 43.909C39.2855 43.5145 39.2015 43.4499 38.8057 43.5389C37.8915 43.7425 36.9803 43.9608 36.0651 44.1635C34.0669 44.6059 32.0793 45.0924 30.0705 45.4869C29.8166 45.5368 29.5608 45.5808 29.3041 45.6102C29.0231 45.6415 28.832 45.7639 28.7017 46.0311C28.2644 46.9268 27.7933 47.8058 27.3657 48.7063C27.1379 49.187 26.8241 49.419 26.2855 49.5286C25.0325 49.7821 23.7641 49.7743 22.5024 49.8839C20.5361 50.0552 18.5649 50.0493 16.5937 50.0278C14.5627 50.0063 12.5673 49.7361 10.6116 49.1664C9.99574 48.9873 9.376 48.8209 8.75337 48.6692C8.40972 48.586 8.21859 48.398 8.16839 48.0417C8.04579 47.1774 7.77261 46.3375 7.74751 45.4575C7.73979 45.2001 7.58823 45.0875 7.36428 45.0239C6.61519 44.8115 5.89506 44.5198 5.18652 44.1938C4.73668 43.9873 4.31097 43.7367 3.88044 43.4929C3.55802 43.3109 3.51748 43.3353 3.50107 43.7191C3.47887 44.2457 3.55127 44.7674 3.59471 45.2891C3.62656 45.667 3.86306 45.9518 4.15266 46.1848C4.65849 46.5901 5.22513 46.8945 5.79081 47.1989C6.13929 47.3859 6.49259 47.563 6.84397 47.7451C6.90961 47.7794 6.97719 47.8107 7.03993 47.8508C7.1104 47.8968 7.2079 47.9419 7.17797 48.0466C7.14612 48.1572 7.04186 48.1337 6.95788 48.121C6.73779 48.0867 6.52735 48.0172 6.31884 47.9399C5.53886 47.6502 4.82838 47.2244 4.11501 46.8034C3.8592 46.6527 3.60436 46.5 3.34276 46.361C3.19506 46.2827 3.13232 46.3307 3.16031 46.4961C3.36496 47.7099 3.33697 48.9354 3.34083 50.159C3.34276 50.761 3.39295 51.3571 3.5001 51.9474C3.75205 53.3315 4.50886 54.278 5.84293 54.7234C7.06503 55.1306 8.32574 55.3558 9.5932 55.5525C10.2757 55.6592 10.9659 55.6944 11.6484 55.7894C12.2083 55.8677 12.7614 55.992 13.3271 56.039C14.3329 56.1212 15.3378 56.226 16.3446 56.3013C17.4374 56.3826 18.5321 56.4394 19.6258 56.5069C19.675 56.5098 19.7242 56.5138 19.7735 56.5157C22.4957 56.6156 25.2179 56.6322 27.941 56.5872C29.2954 56.5647 30.6497 56.5138 32.0021 56.4384C33.5138 56.3532 35.0245 56.2367 36.5333 56.0997C38.3983 55.9294 40.2575 55.713 42.1052 55.4027C42.3359 55.3636 42.5656 55.3166 42.7963 55.2765C42.8813 55.2618 42.9826 55.2383 43.0386 55.3176C43.112 55.4223 43.0183 55.5055 42.9614 55.5819C42.8127 55.7825 42.6332 55.9529 42.4392 56.1095C41.5028 56.8632 40.4168 57.2871 39.2777 57.6003C38.0489 57.939 36.7949 58.125 35.5352 58.2816C35.1327 58.3315 34.7234 58.3364 34.3334 58.4725C34.2648 58.4969 34.1876 58.5087 34.1152 58.5048C33.4617 58.4695 32.8149 58.5899 32.1624 58.588C29.5618 58.5831 26.9622 58.5938 24.3616 58.5801C23.6492 58.5762 22.9368 58.5097 22.2244 58.4695C21.7205 58.4411 21.2166 58.3902 20.7127 58.3834C19.898 58.3726 19.0939 58.2444 18.283 58.1935C17.0416 58.1162 15.8021 58.0153 14.5617 57.9214C13.5056 57.8411 12.4486 57.7765 11.3945 57.6708C9.71676 57.5024 8.02456 57.4701 6.36131 57.1539C5.49349 56.9885 4.67876 56.6802 3.93546 56.1858C2.57919 55.2863 1.83203 54.002 1.62932 52.3908C1.54437 51.7105 1.52024 51.0223 1.4739 50.3371C1.40633 49.3279 1.34262 48.3187 1.27794 47.3095C1.2374 46.6742 1.21712 46.036 1.20168 45.4007C1.16789 44.0019 1.08101 42.6041 1.12059 41.2044C1.15727 39.8809 1.18913 38.5565 1.47197 37.2556C1.5463 36.912 1.64573 36.5773 1.82721 36.2748C1.97587 36.0281 2.07529 36.0037 2.29828 36.1877C2.65352 36.4823 3.06571 36.635 3.5059 36.7173C5.00986 36.9972 6.52542 37.1705 8.05159 37.2713C11.3009 37.4866 14.554 37.4025 17.8061 37.4211C19.2358 37.4289 20.6644 37.376 22.0912 37.3144C23.6531 37.2468 25.215 37.1685 26.7759 37.0579C27.9179 36.9776 29.0618 36.9111 30.2018 36.8005C32.5803 36.5704 34.9579 36.3277 37.2998 35.8226C37.794 35.7159 38.2777 35.57 38.7468 35.3733C39.0847 35.2313 39.269 34.9915 39.3328 34.6215C39.5973 33.0827 39.8154 31.5361 39.9766 29.9846C40.0732 29.0547 40.1504 28.1199 40.2836 27.1959C40.4477 26.0574 40.5365 24.9132 40.6601 23.7718C40.7875 22.5933 40.8956 21.4118 41.0057 20.2303C41.0954 19.2602 41.1784 18.2902 41.2576 17.3201C41.3512 16.1758 41.4381 15.0306 41.5279 13.8853C41.5626 13.437 41.5762 12.9877 41.607 12.5394C41.6621 11.7553 41.6843 10.9673 41.7026 10.1813C41.7171 9.5695 41.7924 8.95967 41.7654 8.3469C41.7625 8.28426 41.7683 8.22161 41.7654 8.15994C41.7538 7.86237 41.7181 7.82811 41.4352 7.87705C40.996 7.95242 40.5703 8.08359 40.1629 8.2637C37.8317 9.30129 36.4995 11.1308 36.0343 13.6416C35.987 13.899 35.9493 14.1584 35.9474 14.4227C35.9445 14.8485 36.0198 14.9366 36.4455 14.8955C37.2699 14.8162 38.0952 14.8563 38.9206 14.8289C38.9939 14.827 39.0683 14.8289 39.1426 14.8338C39.3154 14.8475 39.4119 14.9454 39.4264 15.1196C39.4341 15.2195 39.4351 15.3193 39.4351 15.4192C39.4312 18.068 39.4274 20.7178 39.4235 23.3666C39.4235 23.4292 39.4254 23.4919 39.4216 23.5535C39.4023 23.8746 39.3154 23.9637 38.991 23.9901C38.8926 23.9979 38.7941 23.995 38.6956 23.995C36.8471 23.995 34.9985 23.995 33.1499 23.995C33.0881 23.995 33.0263 23.996 32.9655 23.995C32.5379 23.9823 32.4549 23.8971 32.4558 23.4537C32.4597 21.2542 32.4413 19.0547 32.4809 16.8561C32.4983 15.8851 32.5022 14.9082 32.6701 13.9431C32.9877 12.1224 33.7455 10.5268 34.9859 9.16915C36.6192 7.38175 38.6744 6.41757 41.0057 5.99078C41.1273 5.96827 41.2489 5.94967 41.3696 5.92422C41.5067 5.89485 41.525 5.81263 41.4429 5.70887C41.3271 5.56204 41.19 5.43675 41.0375 5.32809C40.6118 5.02269 40.1224 4.89642 39.6204 4.82496C39.0712 4.74665 38.52 4.73784 37.963 4.78972C37.2892 4.85237 36.6125 4.89152 35.9377 4.9483C34.7591 5.04716 33.5852 5.19399 32.4143 5.35648C29.973 5.69419 27.5414 6.09454 25.1184 6.54873C22.2707 7.08221 19.4404 7.69988 16.6323 8.41836C14.5154 8.95967 12.4341 9.61159 10.407 10.4417C9.39627 10.8557 8.67132 11.5634 8.17997 12.5306C7.65484 13.5662 7.25906 14.6576 6.85555 15.7451C6.6818 16.213 6.51866 16.6848 6.33814 17.1498C6.16728 17.5913 5.7493 17.7567 5.31297 17.5756C5.17976 17.5198 5.11701 17.4239 5.13053 17.2849C5.14115 17.1733 5.16818 17.0637 5.19521 16.954C5.61705 15.2449 6.03117 13.5339 6.63932 11.8796C6.6596 11.8238 6.69724 11.7661 6.63353 11.6819L6.63643 11.6829Z" fill="white"/>
<path d="M55.8418 36.439C55.7772 33.8284 56.5021 31.4302 57.8285 29.216C59.3498 26.6759 61.4745 24.7964 64.1397 23.5846C65.8455 22.8093 67.6419 22.3366 69.5281 22.2455C71.6538 22.1437 73.6906 22.5 75.6724 23.2841C76.6097 23.6551 77.4708 24.1426 78.3348 24.6506C79.0462 25.0695 79.6495 25.6118 80.2538 26.1551C81.0212 26.8452 81.6815 27.6381 82.2781 28.4848C82.4422 28.7178 82.5831 28.9683 82.7868 29.1729C82.9316 29.3188 82.9393 29.5361 83.0359 29.7113C83.673 30.8624 84.1498 32.0792 84.4346 33.3674C85.1055 36.4077 84.7966 39.3521 83.5446 42.1928C82.754 43.986 81.6217 45.5356 80.1959 46.858C78.3965 48.528 76.2873 49.6213 73.929 50.238C72.4009 50.6374 70.8497 50.7842 69.2772 50.6942C68.2771 50.6374 67.3002 50.4318 66.3378 50.1539C64.3116 49.5675 62.4475 48.6572 60.8258 47.275C59.4714 46.1209 58.3855 44.7456 57.5157 43.1834C56.561 41.4674 56.0185 39.6291 55.8447 37.6743C55.809 37.2652 55.8399 36.8501 55.8399 36.438L55.8418 36.439ZM77.0403 36.4635H77.0374C77.0374 35.514 77.0354 34.5645 77.0383 33.615C77.0393 33.336 77.0113 33.061 76.8984 32.8084C76.6628 32.2798 76.3037 31.8472 75.6975 31.8335C74.5661 31.808 73.4319 31.7395 72.3005 31.8746C71.9405 31.9177 71.6972 32.0968 71.4868 32.3856C71.231 32.736 71.1412 33.1158 71.1422 33.5416C71.1479 35.466 71.1431 37.3905 71.1431 39.3139C71.1431 39.5518 71.1644 39.7877 71.231 40.0177C71.4067 40.6197 71.7493 41.0211 72.4058 41.0925C72.6876 41.1229 72.9676 41.162 73.2514 41.1611C73.9783 41.1562 74.7052 41.1532 75.432 41.1434C76.2709 41.1327 76.8115 40.6697 76.9833 39.8318C77.0267 39.6223 77.0412 39.4118 77.0403 39.1994C77.0393 38.2871 77.0403 37.3748 77.0403 36.4625V36.4635ZM69.4364 36.487H69.4316C69.4316 35.9878 69.4316 35.4885 69.4316 34.9893C69.4316 34.4774 69.4683 33.9625 69.4229 33.4545C69.3196 32.2916 68.752 31.8208 67.7539 31.81C66.8677 31.8002 65.9816 31.8002 65.0954 31.8119C64.271 31.8227 63.7401 32.2935 63.5876 33.1148C63.5557 33.2881 63.5403 33.4603 63.5403 33.6356C63.5403 35.5326 63.5403 37.4296 63.5403 39.3267C63.5403 39.5273 63.575 39.7231 63.6011 39.9208C63.658 40.3525 63.8916 40.653 64.2488 40.8693C64.5172 41.0328 64.8048 41.1483 65.1186 41.1503C66.054 41.1562 66.9894 41.1669 67.9248 41.1405C68.6034 41.1209 69.0658 40.8341 69.3602 39.959C69.4374 39.7309 69.4374 39.4931 69.4374 39.2552C69.4374 38.3312 69.4374 37.4081 69.4374 36.484L69.4364 36.487ZM61.8288 36.4625C61.8288 36.4625 61.821 36.4625 61.8172 36.4625C61.8172 35.4132 61.8365 34.3638 61.8114 33.3155C61.7901 32.4306 61.1241 31.8119 60.2485 31.8061C59.9773 31.8041 59.707 31.8168 59.4357 31.8129C59.1761 31.809 58.9145 31.7796 58.7079 31.993C58.6847 32.0165 58.6268 32.042 58.6113 32.0312C58.427 31.8912 58.4019 32.0733 58.3671 32.1682C58.1094 32.8828 57.8179 33.5886 57.6933 34.3452C57.481 35.6354 57.4858 36.9324 57.6412 38.2264C57.7532 39.1632 58.0843 40.0412 58.4221 40.9144C58.4521 40.9927 58.4801 41.0602 58.592 41.0798C59.1625 41.1796 59.7388 41.165 60.3113 41.1513C61.0092 41.1346 61.5199 40.7186 61.7351 40.05C61.821 39.7828 61.8278 39.5097 61.8278 39.2356C61.8297 38.3116 61.8278 37.3875 61.8278 36.4625H61.8288ZM80.8678 41.1513C81.0521 41.1513 81.2375 41.1434 81.4218 41.1532C81.6371 41.165 81.7752 41.07 81.8504 40.8723C81.9788 40.5356 82.1468 40.2145 82.2346 39.8601C82.363 39.3384 82.4711 38.8128 82.5561 38.2822C82.7395 37.1281 82.7829 35.9731 82.5793 34.8161C82.4798 34.2522 82.4036 33.6855 82.225 33.1354C82.1323 32.8505 82.0425 32.5676 81.9228 32.2926C81.7945 31.996 81.5705 31.8521 81.2635 31.8276C80.9073 31.7992 80.5482 31.7816 80.193 31.8237C79.7354 31.8775 79.3377 32.0664 79.0529 32.4462C78.8116 32.7702 78.7566 33.1549 78.7566 33.5475C78.7537 35.5091 78.7566 37.4707 78.7537 39.4324C78.7537 39.9032 78.9207 40.3055 79.1929 40.6785C79.3416 40.8821 79.5318 40.9966 79.7673 41.0573C80.1293 41.1493 80.498 41.165 80.8687 41.1503L80.8678 41.1513Z" fill="white"/>
<path d="M207.286 16.4567C207.516 16.4596 207.637 16.348 207.77 16.257C210.122 14.6301 212.63 14.4999 215.208 15.5591C216.606 16.1337 217.587 17.2036 218.14 18.6425C218.493 19.5607 218.7 20.519 218.705 21.5047C218.72 24.4716 218.721 27.4385 218.713 30.4055C218.71 31.3217 218.62 31.4059 217.707 31.4157C216.422 31.4303 215.135 31.4313 213.849 31.4157C213.025 31.4059 212.91 31.2972 212.903 30.4339C212.886 28.1844 212.897 25.935 212.894 23.6846C212.894 23.2285 212.897 22.7703 212.867 22.3162C212.803 21.3422 212.438 20.5307 211.502 20.1294C210.502 19.7006 209.537 19.8582 208.675 20.5004C207.867 21.1014 207.518 21.9657 207.5 22.9632C207.478 24.2014 207.482 25.4407 207.478 26.6799C207.474 27.9515 207.492 29.223 207.467 30.4945C207.453 31.2933 207.338 31.4039 206.562 31.4147C205.244 31.4323 203.926 31.4323 202.607 31.4147C201.775 31.4039 201.669 31.2972 201.661 30.4397C201.645 28.7766 201.655 27.1145 201.654 25.4515C201.654 22.4845 201.654 19.5176 201.654 16.5507C201.654 16.2903 201.661 16.0289 201.67 15.7685C201.683 15.3721 201.908 15.1607 202.28 15.1568C203.694 15.145 205.108 15.144 206.522 15.1568C206.886 15.1597 207.121 15.3516 207.141 15.7588C207.152 15.98 207.1 16.2178 207.288 16.4567H207.286Z" fill="white"/>
<path d="M286.077 24.9071C284.63 24.9071 283.183 24.9071 281.736 24.9071C281.511 24.9071 281.283 24.8963 281.061 24.9237C280.589 24.9824 280.48 25.1743 280.725 25.5707C281.112 26.1972 281.651 26.6494 282.353 26.8814C283.976 27.4169 285.548 27.3072 286.968 26.3284C287.789 25.7626 287.896 25.884 288.49 26.5144C289.089 27.1506 289.681 27.7947 290.266 28.4447C290.743 28.9752 290.74 29.1299 290.178 29.6389C289.249 30.4797 288.162 31.0514 286.96 31.346C284.597 31.9255 282.239 31.8981 279.936 31.0465C276.525 29.7847 274.454 26.9323 274.497 23.0932C274.54 19.4029 276.96 16.2794 280.457 15.3172C283.612 14.4489 286.615 14.7856 289.191 16.9744C291.389 18.8411 292.075 21.3607 291.853 24.1866C291.82 24.6046 291.608 24.8493 291.188 24.8787C290.932 24.8963 290.674 24.9051 290.417 24.9051C288.97 24.9071 287.523 24.9061 286.076 24.9071H286.077ZM283.345 21.5917C284.146 21.5917 284.948 21.6132 285.747 21.5838C286.29 21.5643 286.399 21.3851 286.181 20.9133C285.635 19.726 284.639 19.2091 283.408 19.1396C282.204 19.0721 280.936 19.8787 280.526 20.8977C280.327 21.391 280.409 21.5633 280.943 21.5829C281.742 21.6132 282.543 21.5907 283.344 21.5917H283.345Z" fill="white"/>
<path d="M249.235 30.2067C246.643 32.1438 243.977 32.2084 241.269 30.8057C239.469 29.8729 238.809 28.2245 238.915 26.2354C239.015 24.3668 240.031 23.1657 241.679 22.459C242.82 21.9695 244.027 21.7826 245.258 21.7571C246.222 21.7376 247.188 21.765 248.153 21.7424C248.949 21.7238 249.101 21.4214 248.731 20.697C248.478 20.2007 248.061 19.9149 247.568 19.725C246.603 19.353 245.602 19.3912 244.615 19.5527C243.757 19.6927 242.932 19.9697 242.167 20.4151C241.52 20.792 241.454 20.7734 241.132 20.1449C240.686 19.2777 240.254 18.4016 239.84 17.5177C239.554 16.9059 239.599 16.7806 240.206 16.4341C241.081 15.9358 242.017 15.5913 242.992 15.3564C245.213 14.8219 247.444 14.7015 249.681 15.2438C252.833 16.0083 254.702 18.2244 254.792 21.5007C254.874 24.4989 254.823 27.5021 254.812 30.5023C254.809 31.2981 254.7 31.397 253.903 31.4097C252.713 31.4293 251.523 31.4263 250.332 31.4116C249.549 31.4028 249.551 31.3862 249.368 30.5356C249.349 30.4455 249.299 30.3623 249.234 30.2027L249.235 30.2067ZM246.409 27.8603C246.859 27.8584 247.301 27.8261 247.721 27.6362C248.555 27.2593 249.137 26.4028 249.105 25.5933C249.095 25.3212 249.057 25.006 248.749 24.9893C247.607 24.9267 246.449 24.7593 245.338 25.1812C244.807 25.3819 244.556 25.8155 244.553 26.3979C244.549 27.0185 244.831 27.4453 245.376 27.7027C245.705 27.8584 246.059 27.8515 246.41 27.8613L246.409 27.8603Z" fill="white"/>
<path d="M231.228 14.909C232.796 14.9432 234.939 15.5628 236.641 17.3395C237.048 17.7643 237.388 18.2381 237.652 18.7637C237.943 19.3452 237.93 19.4891 237.385 19.7886C236.284 20.3945 235.157 20.9534 234.042 21.5349C233.7 21.713 233.436 21.6543 233.216 21.3205C233.057 21.0777 232.875 20.8448 232.679 20.6314C231.767 19.6408 230.625 19.4479 229.401 19.7817C228.216 20.1048 227.515 20.9515 227.201 22.1516C226.988 22.9669 227.029 23.7706 227.244 24.5674C227.588 25.8448 228.397 26.6436 229.691 26.9176C230.981 27.1917 232.033 26.7884 232.875 25.7831C232.978 25.6598 233.074 25.5257 233.154 25.3847C233.393 24.9677 233.705 24.8894 234.125 25.1136C235.234 25.7068 236.347 26.2931 237.464 26.8697C237.89 27.0899 237.864 27.3826 237.684 27.7595C237.102 28.9732 236.21 29.8777 235.069 30.5551C231.631 32.598 226.29 31.9255 223.495 29.0535C219.934 25.3945 220.471 18.703 225.498 16.0562C226.98 15.276 228.59 14.9041 231.226 14.907L231.228 14.909Z" fill="white"/>
<path d="M265.452 24.4598C265.933 23.2969 266.417 22.135 266.892 20.9702C267.507 19.4647 268.114 17.9553 268.726 16.4478C269.081 15.5714 269.743 15.1325 270.71 15.1312C271.706 15.1303 272.704 15.1195 273.7 15.1361C274.663 15.1518 274.744 15.2653 274.387 16.1551C273.431 18.5406 272.46 20.9193 271.49 23.2989C270.52 25.6785 269.522 28.0463 268.586 30.4397C268.31 31.1454 267.948 31.4733 267.167 31.4371C265.884 31.3764 264.594 31.3833 263.31 31.4342C262.55 31.4645 262.153 31.1807 261.869 30.4612C260.554 27.1331 259.189 23.8255 257.844 20.5101C257.245 19.033 256.641 17.5578 256.06 16.0739C255.752 15.2888 255.837 15.1547 256.676 15.141C258.026 15.1175 259.377 15.1518 260.727 15.1263C261.367 15.1146 261.721 15.3799 261.951 15.9868C262.907 18.5122 263.894 21.0259 264.873 23.5426C264.99 23.8421 265.125 24.1348 265.251 24.4314C265.319 24.4412 265.386 24.451 265.453 24.4608L265.452 24.4598Z" fill="white"/>
<path d="M153.21 29.64C152.996 30.0228 153.075 30.3546 153.074 30.6708C153.065 32.4954 153.077 34.32 153.064 36.1456C153.057 37.096 152.941 37.2164 152.002 37.2341C149.723 37.2781 150.082 37.1959 150.078 35.3811C150.066 29.2554 150.073 23.1287 150.074 17.0029C150.074 15.5092 150.087 15.4994 151.589 15.5092C151.782 15.5102 151.976 15.5023 152.167 15.5229C152.761 15.5855 152.85 15.6903 152.903 16.3217C152.933 16.674 152.845 17.0372 152.991 17.3945C153.311 17.4904 153.439 17.2007 153.622 17.0558C156.193 15.009 159.022 14.8622 161.883 16.1601C164.724 17.4493 166.1 19.8534 166.223 22.9975C166.281 24.4795 166.157 25.9311 165.486 27.282C164.153 29.9601 161.963 31.3501 159.053 31.5978C156.975 31.7749 155.106 31.2248 153.512 29.8182C153.442 29.7565 153.35 29.7223 153.21 29.641V29.64ZM158.07 28.8413C160.642 28.8501 162.528 27.326 163.058 24.8505C163.253 23.9392 163.24 23.0484 163.048 22.141C162.556 19.8133 160.791 18.2569 158.456 18.1149C156.093 17.971 154.076 19.3454 153.324 21.585C153.058 22.3749 153.021 23.1805 153.066 23.9959C153.242 27.2732 155.772 28.9744 158.07 28.8413Z" fill="white"/>
<path d="M113.327 25.0276C113.327 26.0711 113.295 27.1165 113.339 28.158C113.368 28.8325 113.092 29.2504 112.561 29.6058C111.086 30.5915 109.483 31.2581 107.74 31.4959C105.082 31.8601 102.488 31.6829 100.04 30.3849C96.2046 28.3509 93.9602 23.9519 94.5877 19.5959C95.3329 14.4314 98.8535 10.9907 104.004 10.3662C106.956 10.008 109.705 10.5082 112.166 12.277C113.69 13.3723 113.695 13.48 112.391 14.7868C112.368 14.8093 112.346 14.8328 112.323 14.8553C111.644 15.5268 111.628 15.5473 110.904 14.9571C109.877 14.1202 108.725 13.5554 107.437 13.3322C105.072 12.9211 102.803 13.1785 100.805 14.6419C98.364 16.4303 97.391 18.943 97.7385 21.906C98.2221 26.0241 101.345 28.7356 105.451 28.806C106.859 28.8305 108.195 28.5662 109.486 27.9995C110.094 27.7332 110.363 27.3485 110.345 26.6516C110.302 25.055 110.324 23.4556 110.336 21.8571C110.344 20.8626 110.424 20.7882 111.367 20.7666C111.753 20.7578 112.14 20.75 112.524 20.7735C113.187 20.8136 113.3 20.9115 113.315 21.6036C113.339 22.7449 113.322 23.8863 113.322 25.0276H113.326H113.327Z" fill="white"/>
<path d="M294.175 20.3192C294.175 17.1888 294.175 14.0584 294.175 10.9271C294.175 10.699 294.169 10.4699 294.181 10.2419C294.223 9.40885 294.342 9.26496 295.149 9.25223C296.468 9.23168 297.786 9.2307 299.104 9.25321C299.873 9.26692 299.987 9.39025 299.992 10.191C300.006 12.5716 299.999 14.9521 299.999 17.3327C299.999 21.5066 299.999 25.6815 299.999 29.8553C299.999 30.0834 300.006 30.3124 299.994 30.5395C299.956 31.2825 299.868 31.398 299.144 31.4097C297.793 31.4323 296.443 31.4303 295.092 31.4127C294.318 31.4029 294.201 31.2894 294.186 30.4916C294.162 29.2533 294.176 28.0131 294.176 26.7739C294.176 24.6213 294.176 22.4688 294.176 20.3173L294.175 20.3192Z" fill="white"/>
<path d="M192.037 21.0025C192.037 18.0365 192.037 15.0706 192.037 12.1046C192.037 11.8443 192.028 11.5819 192.046 11.3225C192.097 10.6217 192.22 10.467 192.932 10.4552C194.378 10.4298 195.825 10.4288 197.27 10.4572C197.922 10.4699 198.015 10.6138 198.056 11.299C198.064 11.4292 198.06 11.5594 198.06 11.6896C198.06 17.8496 198.06 24.0095 198.06 30.1695C198.06 30.2997 198.063 30.4309 198.056 30.5601C198.011 31.2884 197.923 31.4 197.186 31.4107C195.772 31.4313 194.357 31.4303 192.943 31.4127C192.171 31.4029 192.056 31.2913 192.045 30.4857C192.024 28.8892 192.037 27.2917 192.036 25.6951C192.036 24.1309 192.036 22.5667 192.036 21.0015L192.037 21.0025Z" fill="white"/>
<path d="M184.75 23.53C184.945 27.7 181.569 31.6712 176.668 31.6252C171.914 31.5812 168.449 28.2119 168.462 23.5124C168.473 19.0596 171.477 15.4025 176.643 15.3761C182.12 15.3477 184.97 19.6117 184.75 23.53ZM171.594 23.5369C171.594 23.7327 171.579 23.9294 171.596 24.1232C171.785 26.2239 172.766 27.8282 174.748 28.5183C176.7 29.1976 178.623 29.0626 180.195 27.4425C181.548 26.0496 181.879 24.365 181.62 22.4866C181.05 18.345 176.837 17.232 174.154 18.7375C172.323 19.7653 171.544 21.4441 171.593 23.5379L171.594 23.5369Z" fill="white"/>
<path d="M141.822 29.6743C141.495 29.7732 141.28 30.0786 141.005 30.2812C138.283 32.283 134.073 32.049 131.825 29.7722C130.583 28.5143 130.132 26.9188 130.088 25.2293C130.012 22.2956 130.048 19.359 130.057 16.4234C130.06 15.6472 130.194 15.5434 130.98 15.5121C131.365 15.4965 131.753 15.4974 132.138 15.5121C132.998 15.5444 133.132 15.6619 133.138 16.5683C133.154 19.0468 133.144 21.5262 133.149 24.0047C133.151 24.7545 133.166 25.5024 133.384 26.2336C133.796 27.6138 134.679 28.4899 136.081 28.717C137.803 28.9959 139.426 28.809 140.68 27.372C141.467 26.4705 141.792 25.3937 141.804 24.222C141.83 21.8414 141.821 19.4599 141.826 17.0793C141.828 16.0306 142.341 15.5066 143.365 15.5072C144.911 15.5082 144.922 15.517 144.922 17.0871C144.924 21.3921 144.924 25.6982 144.922 30.0032C144.922 31.4118 144.911 31.4176 143.526 31.4196C143.429 31.4196 143.333 31.4196 143.236 31.4196C142.446 31.4131 142.031 31.0212 141.993 30.244C141.983 30.06 142.053 29.8485 141.823 29.6733L141.822 29.6743Z" fill="white"/>
<path d="M121.309 17.4188C121.651 17.3435 121.785 17.0997 121.971 16.9304C123.159 15.8468 124.607 15.4993 126.145 15.4083C126.521 15.3857 126.763 15.5521 126.791 15.9584C126.802 16.1209 126.807 16.2834 126.811 16.4458C126.838 17.5676 126.305 18.2244 125.212 18.4163C122.778 18.8431 121.427 20.3828 121.379 22.9063C121.334 25.2497 121.366 27.5951 121.361 29.9404C121.361 30.2331 121.358 30.5268 121.333 30.8185C121.301 31.1992 121.091 31.4077 120.703 31.4077C120.093 31.4077 119.483 31.4117 118.874 31.4019C118.482 31.395 118.299 31.1572 118.28 30.7793C118.266 30.5189 118.261 30.2586 118.261 29.9982C118.26 25.6344 118.261 21.2707 118.261 16.9069C118.261 16.809 118.26 16.7111 118.261 16.6142C118.283 15.606 118.362 15.5247 119.387 15.5101C121.441 15.4807 121.217 15.5502 121.225 17.181C121.225 17.2407 121.266 17.3004 121.309 17.4188Z" fill="white"/>
<path d="M186.124 47.9321C186.27 50.483 184.311 53.0261 180.979 53.0936C178.006 53.1543 175.67 50.8736 175.643 47.9624C175.616 45.02 177.984 42.6962 180.994 42.7441C184.051 42.7921 186.295 45.2207 186.124 47.9321ZM180.965 51.5294C183.051 51.5196 184.524 50.0092 184.514 47.892C184.504 45.7864 183.009 44.323 180.908 44.3084C178.935 44.2937 177.301 45.6269 177.288 47.9027C177.274 50.158 178.895 51.593 180.965 51.5294Z" fill="white"/>
<path d="M202.847 45.9665C203.07 46.0253 203.212 45.8618 203.364 45.759C205.271 44.4679 208.855 45.6093 208.944 49.0098C209.037 52.5455 205.521 53.9423 203.379 52.5993C203.037 52.3849 202.818 52.3017 202.535 52.7393C202.302 53.1015 201.823 53.0016 201.468 52.8656C201.106 52.7266 201.143 52.335 201.143 52.0159C201.135 49.7038 201.137 47.3918 201.136 45.0787C201.136 44.4924 201.125 43.906 201.141 43.3197C201.163 42.471 201.313 42.2939 201.954 42.3095C202.557 42.3242 202.686 42.4769 202.703 43.2815C202.719 43.9981 202.703 44.7146 202.713 45.4311C202.716 45.6151 202.654 45.8266 202.846 45.9665H202.847ZM205.083 46.6899C203.724 46.6811 202.724 47.703 202.717 49.1077C202.71 50.5466 203.66 51.6234 204.969 51.6625C206.317 51.7027 207.388 50.5995 207.39 49.1704C207.392 47.7363 206.427 46.6997 205.083 46.6909V46.6899Z" fill="white"/>
<path d="M142.887 46.0204C145.142 44.8966 146.958 45.1169 148.196 46.6645C149.273 48.0133 149.305 50.1942 148.267 51.5969C147.111 53.1612 145.329 53.4401 142.939 52.4094C142.737 52.7686 142.833 53.1631 142.819 53.538C142.8 54.0265 142.832 54.5189 142.792 55.0044C142.745 55.5643 142.532 55.7013 141.956 55.6886C141.477 55.6778 141.249 55.4507 141.25 54.9672C141.25 54.1518 141.243 53.3364 141.243 52.521C141.243 50.3685 141.244 48.215 141.248 46.0625C141.248 45.7169 141.304 45.387 141.72 45.3303C142.104 45.2784 142.512 45.2167 142.673 45.7306C142.712 45.852 142.729 45.991 142.888 46.0194L142.887 46.0204ZM142.821 49.1097C142.799 50.6426 143.716 51.6616 145.118 51.6616C146.427 51.6616 147.426 50.5897 147.43 49.1801C147.434 47.7539 146.484 46.7212 145.141 46.6909C143.777 46.6596 142.843 47.6326 142.821 49.1097Z" fill="white"/>
<path d="M96.4527 47.9094C96.4527 46.5743 96.4421 45.2381 96.4566 43.903C96.4662 42.9877 96.5522 42.9035 97.4615 42.8918C98.5533 42.8771 99.646 42.8898 100.738 42.8908C101.359 42.8908 101.948 43.0406 102.509 43.3029C103.832 43.9206 104.503 45.0786 104.439 46.6095C104.378 48.0651 103.609 49.1311 102.249 49.6391C101.358 49.9719 100.43 49.9983 99.4935 49.9915C98.0667 49.9817 98.0667 49.9915 98.06 51.4451C98.059 51.6732 98.0677 51.9022 98.0523 52.1293C98.0059 52.7989 97.8515 52.9496 97.2453 52.9457C96.6381 52.9418 96.474 52.7998 96.4633 52.1127C96.4421 50.7119 96.4566 49.3112 96.4566 47.9104H96.4537L96.4527 47.9094ZM98.0677 46.3854H98.0716C98.0716 46.9061 98.0658 47.4259 98.0735 47.9466C98.0783 48.2765 98.2106 48.53 98.5716 48.5408C99.564 48.5702 100.562 48.6553 101.53 48.3323C102.195 48.1101 102.608 47.6481 102.768 46.9599C103.066 45.6786 102.374 44.5862 101.089 44.3738C100.296 44.2426 99.4887 44.3102 98.6874 44.3258C98.2415 44.3346 98.0667 44.598 98.0677 45.0198C98.0677 45.475 98.0677 45.9302 98.0677 46.3863V46.3854Z" fill="white"/>
<path d="M109.738 49.7801C109.065 49.7801 108.391 49.7742 107.717 49.784C107.5 49.787 107.236 49.7419 107.114 49.9847C106.974 50.2607 107.157 50.4966 107.311 50.6924C107.952 51.5147 108.839 51.7163 109.809 51.6184C110.256 51.5734 110.667 51.3835 111.065 51.1525C111.521 50.8872 111.826 50.9978 112.104 51.4344C112.381 51.87 112.077 52.0902 111.796 52.3154C110.293 53.5155 107.648 53.2903 106.32 51.8533C105.002 50.4262 104.974 47.9927 106.257 46.4833C107.206 45.3654 108.937 44.9514 110.412 45.4878C111.784 45.987 112.724 47.2938 112.763 48.7533C112.784 49.5814 112.659 49.74 111.856 49.7674C111.152 49.7919 110.445 49.7723 109.738 49.7723V49.7801ZM109.099 48.5507C109.099 48.5507 109.099 48.5546 109.099 48.5575C109.644 48.5575 110.19 48.579 110.734 48.5507C111.199 48.5272 111.295 48.349 111.091 47.9193C110.705 47.1098 110.042 46.7153 109.167 46.6928C108.255 46.6693 107.548 47.0491 107.12 47.8801C106.908 48.2932 107.017 48.5105 107.466 48.5419C108.009 48.579 108.555 48.5507 109.099 48.5507Z" fill="white"/>
<path d="M128.355 49.9613C128.355 50.7678 128.371 51.3865 128.351 52.0051C128.323 52.889 127.763 53.2708 127.025 52.8186C126.655 52.5905 126.434 52.6042 126.086 52.7637C125.202 53.169 124.282 53.1944 123.36 52.8939C122.347 52.564 121.733 51.7252 121.75 50.714C121.765 49.695 122.394 48.9031 123.441 48.6075C123.938 48.4665 124.447 48.4049 124.965 48.4147C125.35 48.4215 125.738 48.4333 126.121 48.401C126.702 48.353 126.837 48.0907 126.588 47.5503C126.326 46.9826 125.824 46.7829 125.265 46.7095C124.507 46.6096 123.808 46.8211 123.123 47.1451C122.598 47.3937 122.361 47.2782 122.147 46.776C122.011 46.4608 122.078 46.2298 122.342 46.0076C123.422 45.1012 126.05 44.9926 127.201 45.8256C127.747 46.221 128.069 46.7594 128.221 47.426C128.427 48.3295 128.327 49.2418 128.356 49.9632L128.355 49.9613ZM125.296 49.6294C124.944 49.6343 124.394 49.604 123.881 49.8516C123.526 50.0229 123.35 50.3097 123.347 50.7052C123.345 51.0576 123.481 51.3297 123.785 51.5186C124.615 52.0355 126.141 51.6449 126.607 50.7913C126.975 50.1169 126.731 49.6696 125.971 49.6314C125.811 49.6235 125.65 49.6304 125.296 49.6304V49.6294Z" fill="white"/>
<path d="M170.443 50.2039C170.443 50.7903 170.457 51.3766 170.441 51.962C170.414 52.9095 169.856 53.2785 169.069 52.7862C168.723 52.5699 168.524 52.6041 168.216 52.746C167.333 53.1542 166.417 53.1953 165.491 52.9056C164.434 52.5747 163.801 51.7085 163.84 50.6591C163.877 49.647 164.522 48.8825 165.58 48.5878C166.367 48.3696 167.173 48.4253 167.974 48.4077C168.252 48.4019 168.607 48.4821 168.741 48.1474C168.89 47.7734 168.689 47.4347 168.429 47.1861C167.862 46.6438 167.152 46.6282 166.435 46.7251C165.987 46.7858 165.564 46.9522 165.169 47.1744C164.77 47.3995 164.506 47.2752 164.3 46.8973C164.06 46.4539 164.101 46.2072 164.559 45.9263C165.561 45.3106 166.665 45.1491 167.808 45.3008C169.416 45.5152 170.219 46.3237 170.391 47.9594C170.469 48.6994 170.405 49.4541 170.405 50.203C170.418 50.203 170.432 50.203 170.444 50.203L170.443 50.2039ZM167.386 49.6293C167.038 49.6342 166.488 49.6039 165.974 49.8486C165.619 50.018 165.441 50.3038 165.435 50.6992C165.431 51.0516 165.565 51.3247 165.868 51.5156C166.692 52.0344 168.222 51.6478 168.692 50.7952C169.065 50.1188 168.825 49.6705 168.064 49.6303C167.904 49.6215 167.742 49.6293 167.385 49.6293H167.386Z" fill="white"/>
<path d="M156.581 50.0934C156.581 50.7776 156.586 51.4609 156.578 52.1451C156.574 52.4358 156.584 52.7725 156.238 52.8782C155.901 52.981 155.447 53.0818 155.264 52.7344C154.994 52.2204 154.785 52.5219 154.52 52.6668C153.486 53.2267 152.428 53.2414 151.365 52.7676C150.454 52.3614 149.948 51.5284 150.021 50.6043C150.096 49.6431 150.686 48.9099 151.623 48.6192C152.276 48.4166 152.95 48.399 153.627 48.4127C153.787 48.4156 153.948 48.4205 154.108 48.4088C154.419 48.3853 154.797 48.4587 154.912 48.0446C155.022 47.6541 154.823 47.3428 154.533 47.1079C153.991 46.6674 153.351 46.6341 152.7 46.7232C152.188 46.7936 151.702 46.961 151.249 47.2224C150.914 47.4152 150.706 47.2331 150.546 46.9483C150.381 46.6537 150.235 46.3473 150.572 46.0791C150.747 45.9401 150.944 45.8197 151.148 45.7296C152.207 45.2588 153.307 45.1041 154.439 45.3851C155.742 45.7081 156.481 46.591 156.561 47.9458C156.604 48.6594 156.569 49.3778 156.569 50.0944H156.581L156.581 50.0934ZM153.05 51.7203C153.551 51.7232 153.916 51.641 154.254 51.4481C154.775 51.1515 155.033 50.6964 154.976 50.1815C154.949 49.9377 154.871 49.7028 154.609 49.6793C153.782 49.6069 152.947 49.5149 152.147 49.8418C151.79 49.9877 151.598 50.2843 151.583 50.6758C151.568 51.0791 151.793 51.3385 152.12 51.5284C152.409 51.6968 152.728 51.7144 153.049 51.7193L153.05 51.7203Z" fill="white"/>
<path d="M117.98 53.3069C118.019 53.5712 118.244 53.5986 118.385 53.7171C119.227 54.4228 119.044 55.5779 118.021 55.9547C117.493 56.1495 116.945 56.1309 116.406 56.0017C116.155 55.942 115.888 55.8392 115.925 55.4956C115.962 55.1511 116.162 54.9827 116.517 55.0062C116.772 55.0229 117.029 55.0268 117.284 55.0141C117.456 55.0052 117.594 54.9044 117.625 54.7253C117.657 54.5422 117.557 54.3915 117.388 54.3533C116.831 54.229 116.657 53.9011 116.797 53.3529C116.854 53.1317 116.711 52.9898 116.513 52.9075C116.305 52.8214 116.09 52.748 115.892 52.6413C114.484 51.8778 113.8 50.6875 113.825 49.0616C113.849 47.4602 114.591 46.3149 115.993 45.6561C117.409 44.9905 118.804 45.1041 120.1 46.0359C120.204 46.1103 120.304 46.1994 120.383 46.2992C120.596 46.5665 120.944 46.8073 120.61 47.2145C120.239 47.6648 119.798 47.7411 119.39 47.3809C119.015 47.051 118.611 46.8063 118.122 46.7221C117.087 46.543 116.059 47.0706 115.639 47.9878C115.141 49.0773 115.404 50.4134 116.252 51.1113C117.126 51.8288 118.284 51.8396 119.188 51.1378C119.41 50.9655 119.572 50.6483 119.912 50.7394C120.225 50.8226 120.528 50.987 120.677 51.2885C120.838 51.6125 120.576 51.8386 120.39 52.052C119.97 52.5336 119.417 52.7822 118.818 52.9506C118.523 53.0338 118.175 53.0123 117.979 53.305L117.98 53.3069Z" fill="white"/>
<path d="M217.573 49.1174C217.573 50.062 217.581 51.0056 217.569 51.9502C217.565 52.2958 217.651 52.7382 217.222 52.8743C216.838 52.9957 216.395 53.0887 216.135 52.5738C215.929 52.1666 215.692 52.4916 215.503 52.5953C214.583 53.1014 213.629 53.2414 212.619 52.935C211.506 52.5963 210.783 51.87 210.564 50.7061C210.267 49.1262 210.427 47.5258 210.443 45.9342C210.447 45.432 210.803 45.292 211.238 45.2979C211.748 45.3048 211.959 45.4614 211.975 45.9743C212.006 46.9502 211.986 47.9271 211.996 48.904C212 49.2936 211.99 49.6901 212.054 50.0718C212.212 51.0321 212.73 51.5293 213.635 51.6468C214.51 51.7613 215.429 51.2553 215.776 50.4741C215.966 50.0454 215.982 49.5912 215.984 49.1341C215.989 48.1249 215.972 47.1147 216.003 46.1064C216.021 45.5005 216.214 45.3273 216.738 45.2979C217.32 45.2656 217.547 45.4535 217.562 46.0878C217.585 47.0961 217.569 48.1063 217.569 49.1155H217.571L217.573 49.1174Z" fill="white"/>
<path d="M189.556 46.0282C190.308 45.5133 191.109 45.2314 192.007 45.2559C193.708 45.3029 194.824 46.221 195.059 47.9174C195.262 49.3739 195.138 50.8481 195.12 52.3135C195.114 52.8195 194.783 52.9556 194.335 52.9497C193.884 52.9438 193.58 52.798 193.576 52.2861C193.57 51.3405 193.568 50.3939 193.562 49.4483C193.56 49.1547 193.57 48.86 193.55 48.5683C193.469 47.3594 192.856 46.7271 191.75 46.6938C190.547 46.6586 189.696 47.3076 189.593 48.4616C189.508 49.4327 189.552 50.4164 189.537 51.3943C189.534 51.688 189.531 51.9816 189.519 52.2743C189.5 52.7628 189.233 52.9566 188.765 52.9478C188.185 52.937 187.987 52.8097 187.981 52.2166C187.959 50.1619 187.97 48.1073 187.971 46.0517C187.971 45.7032 188.039 45.3802 188.452 45.3273C188.836 45.2794 189.243 45.2206 189.4 45.7384C189.426 45.8226 189.485 45.897 189.557 46.0262L189.556 46.0282Z" fill="white"/>
<path d="M132.951 45.2519C133.869 45.2578 134.589 45.4154 135.279 45.6983C135.601 45.8305 135.828 46.0311 135.67 46.4501C135.47 46.9787 135.186 47.2067 134.757 47.0462C134.177 46.8299 133.601 46.6468 132.978 46.687C132.755 46.7016 132.522 46.7026 132.311 46.7672C131.899 46.8945 131.504 47.0932 131.516 47.6139C131.527 48.0995 131.917 48.2433 132.299 48.3442C133.106 48.5585 133.95 48.6202 134.735 48.9197C135.947 49.3808 136.411 50.5358 135.866 51.685C135.646 52.148 135.283 52.4622 134.832 52.6658C133.285 53.3648 131.756 53.1758 130.262 52.5043C129.762 52.2792 129.722 52.0433 129.948 51.5607C130.186 51.0537 130.361 50.947 130.843 51.1633C131.38 51.4041 131.933 51.549 132.506 51.64C133.027 51.7232 133.533 51.6439 134.013 51.4325C134.298 51.3072 134.472 51.0801 134.456 50.7443C134.443 50.4448 134.26 50.2451 134.007 50.1688C133.547 50.0298 133.076 49.9192 132.604 49.8369C132.095 49.7488 131.596 49.6412 131.118 49.4385C130.397 49.1341 129.985 48.5801 129.918 47.8048C129.85 46.9973 130.167 46.3326 130.832 45.8774C131.519 45.4066 132.298 45.2343 132.951 45.2519H132.951Z" fill="white"/>
<path d="M222.34 45.2559C223.089 45.2412 223.812 45.3763 224.502 45.671C224.846 45.8178 225.135 46.0057 224.947 46.4815C224.74 47.0081 224.502 47.1813 224.013 47.0169C223.429 46.8211 222.846 46.6606 222.223 46.688C221.372 46.7252 220.897 47.0003 220.856 47.4907C220.816 47.9762 221.107 48.2268 221.995 48.4421C222.62 48.5938 223.255 48.7025 223.873 48.8787C224.674 49.1077 225.233 49.5835 225.321 50.4968C225.413 51.4492 225.059 52.1921 224.229 52.5984C222.644 53.3746 221.051 53.2307 219.494 52.4613C219.098 52.2656 219.043 51.9631 219.235 51.5696C219.479 51.0674 219.62 50.9725 220.127 51.1741C220.638 51.3777 221.158 51.5383 221.697 51.6332C222.215 51.7252 222.721 51.6753 223.211 51.4717C223.502 51.3503 223.693 51.1506 223.693 50.8129C223.693 50.4762 223.503 50.255 223.213 50.1502C222.912 50.0426 222.594 49.9819 222.281 49.9104C221.749 49.7881 221.205 49.7068 220.684 49.5482C219.924 49.3162 219.39 48.8249 219.264 47.9899C219.13 47.105 219.423 46.3826 220.147 45.8609C220.802 45.3881 221.551 45.2432 222.34 45.254V45.2559Z" fill="white"/>
<path d="M160.407 46.0899C160.996 45.6895 161.541 45.4135 162.155 45.3146C162.558 45.25 162.851 45.344 162.921 45.8187C163.003 46.3816 162.86 46.6821 162.409 46.8054C162.286 46.8387 162.153 46.8358 162.028 46.8612C161.037 47.0609 160.488 47.6306 160.424 48.6486C160.367 49.558 160.395 50.4732 160.384 51.3865C160.38 51.6802 160.396 51.9758 160.363 52.2655C160.299 52.8235 160.098 52.9605 159.523 52.9478C159.043 52.937 158.818 52.708 158.818 52.2254C158.818 50.1708 158.815 48.1171 158.816 46.0625C158.816 45.7169 158.872 45.3871 159.287 45.3303C159.67 45.2784 160.077 45.2158 160.241 45.7287C160.269 45.8168 160.318 45.899 160.406 46.0879L160.407 46.0899Z" fill="white"/>
<path d="M198.843 49.1734C198.843 50.1483 198.862 51.1242 198.837 52.0992C198.82 52.8196 198.553 53.0193 197.875 52.942C197.534 52.9028 197.322 52.7345 197.312 52.3977C197.25 50.2207 197.238 48.0428 197.319 45.8668C197.338 45.3509 197.759 45.2922 198.169 45.302C198.587 45.3118 198.834 45.5105 198.834 45.9558C198.836 47.0287 198.834 48.1015 198.834 49.1743H198.841L198.843 49.1734Z" fill="white"/>
<path d="M180.964 40.3263C181.421 40.2734 181.819 40.433 182.15 40.7932C182.369 41.0311 182.616 41.2425 182.833 41.4813C182.999 41.6644 183.329 41.8357 183.2 42.1039C183.03 42.4592 182.643 42.331 182.335 42.2909C181.997 42.2468 181.76 42.007 181.533 41.7789C181.143 41.3854 180.779 41.3629 180.364 41.7525C180.034 42.0628 179.664 42.3359 179.174 42.3183C178.983 42.3114 178.767 42.3232 178.674 42.1098C178.599 41.9365 178.731 41.8024 178.842 41.6898C179.182 41.3433 179.531 41.0076 179.872 40.662C180.171 40.3576 180.544 40.3057 180.964 40.3273V40.3263Z" fill="white"/>
<path d="M199.035 43.1854C199.015 43.7463 198.586 44.1437 198.024 44.1222C197.479 44.1016 197.056 43.6289 197.103 43.0934C197.144 42.6099 197.593 42.1978 198.078 42.1968C198.635 42.1968 199.055 42.6304 199.035 43.1854Z" fill="white"/>
</g>
<defs>
<clipPath id="clip0_360_76">
<rect width="300" height="58.5859" fill="white"/>
</clipPath>
</defs>
</svg>
