<svg width="497" height="96" viewBox="0 0 497 96" fill="none" xmlns="http://www.w3.org/2000/svg">
<path d="M10.256 23.0499C9.55791 23.2253 8.95681 23.6186 8.38405 24.0587C7.3146 24.883 6.57926 25.9735 5.98562 27.182C5.13841 28.9032 4.70735 30.7272 4.59847 32.6375C4.5925 32.7525 4.58803 32.8689 4.59548 32.9854C4.62084 33.368 4.70884 33.4694 5.08621 33.4633C5.57992 33.4558 6.07362 33.4059 6.56733 33.3907C7.17589 33.3726 7.78593 33.3665 8.39449 33.3605C9.05674 33.3544 9.16712 33.4573 9.17159 34.1198C9.17756 35.0076 9.1701 35.8954 9.16861 36.7848C9.16563 39.4301 9.16414 42.0754 9.16115 44.7208C9.16115 44.9144 9.16861 45.1095 9.14325 45.2985C9.09851 45.6388 8.96427 45.7659 8.62568 45.8052C8.47503 45.8234 8.3214 45.8173 8.16926 45.8173C5.71266 45.8158 3.25606 45.8128 0.800954 45.8113C0.686103 45.8113 0.572745 45.8052 0.457894 45.8082C0.175989 45.8143 0.0342911 45.6751 0.0253417 45.3923C0.0193755 45.1987 0.0163924 45.0066 0.0163924 44.813C0.0163924 41.4719 0.0492067 38.1324 0.00147676 34.7928C-0.0208967 33.2682 0.213278 31.7905 0.545897 30.3264C1.20368 27.4346 2.60127 24.9329 4.66261 22.8351C6.51363 20.952 8.72711 19.733 11.3418 19.3276C11.8683 19.246 12.3039 19.0645 12.6663 18.6319C13.3554 17.8061 14.2921 17.3085 15.2214 16.8139C18.9428 14.831 22.8686 13.3609 26.8555 12.0435C32.2923 10.2467 37.829 8.83703 43.4208 7.64671C47.2974 6.8224 51.1993 6.14632 55.1236 5.61544C56.0096 5.49595 56.903 5.43848 57.7935 5.35075C59.5938 5.17228 61.3971 5.07699 63.2079 5.07851C63.6986 5.07851 64.1923 5.01649 64.6875 5.00439C67.2306 4.94087 69.6275 5.57158 71.9559 6.54108C74.1171 7.44101 76.0756 8.70999 78.0355 9.97442C81.8912 12.4625 85.6946 15.0292 89.4728 17.6367C93.8803 20.6783 98.2581 23.7622 102.596 26.9052C107.692 30.5987 112.786 34.2937 117.881 37.9887C118.437 38.3925 118.968 38.8327 119.568 39.1775C119.725 39.2683 120.042 39.3998 119.914 39.6252C119.765 39.8884 119.544 39.6131 119.388 39.5224C117.434 38.388 115.368 37.4896 113.311 36.5745C110.833 35.4734 108.328 34.4449 105.705 33.7416C104.196 33.3363 102.681 32.9582 101.104 32.9415C99.3111 32.9219 97.7509 33.5314 96.3757 34.6779C95.1288 35.7169 94.2905 37.0721 93.4955 38.4606C92.4231 40.3361 91.6057 42.3341 90.7466 44.3139C89.3132 47.6187 87.8932 50.931 86.2182 54.1194C85.2606 55.9419 84.2806 57.7554 83.0173 59.3889C80.3191 62.8797 76.8392 65.1197 72.5734 66.1043C72.0006 66.2374 71.4487 66.4688 70.8521 66.4975C70.7581 66.5021 70.6642 66.5308 70.5702 66.5369C70.4569 66.5444 70.3301 66.5565 70.2689 66.4325C70.1884 66.2707 70.3092 66.186 70.4181 66.1043C71.0624 65.6218 71.674 65.1015 72.2602 64.5479C74.5407 62.3911 76.3321 59.8623 77.7789 57.0717C79.2183 54.2933 80.2728 51.356 81.2229 48.3764C82.3521 44.8327 83.3231 41.2345 84.6491 37.7558C85.5634 35.3555 86.6224 33.0262 88.017 30.8679C88.6957 29.8167 89.428 28.8064 90.2618 27.8732C90.3379 27.787 90.4154 27.7008 90.4915 27.6145C90.6824 27.3968 90.66 27.1941 90.4378 27.0186C90.1514 26.7933 89.8636 26.5724 89.5697 26.3592C87.835 25.0947 85.9855 24.0179 84.127 22.9576C81.7703 21.613 79.3853 20.3229 76.9108 19.2112C76.2143 18.8981 75.5058 18.6153 74.8003 18.3233C74.6243 18.2507 74.4438 18.1872 74.2588 18.1418C73.434 17.9392 73.0641 18.1101 72.6927 18.8769C72.1334 20.0294 71.8201 21.2636 71.5561 22.5114C70.961 25.3262 70.5941 28.1757 70.2749 31.0343C69.9676 33.7764 69.7484 36.5261 69.5216 39.2743C69.368 41.1392 69.2726 43.0086 69.1398 44.875C68.9698 47.2421 68.7833 49.6076 68.6148 51.9731C68.482 53.8199 68.3657 55.6681 68.2389 57.5164C67.9764 61.3279 67.7348 65.1408 67.1068 68.9145C67.0143 69.4665 66.8831 70.011 66.7056 70.5419C66.6638 70.669 66.6056 70.7915 66.54 70.9079C66.5176 70.9473 66.4505 70.979 66.4013 70.9821C66.3148 70.9881 66.2611 70.9216 66.2477 70.8414C66.2328 70.7476 66.2342 70.6493 66.2342 70.554C66.2506 65.5537 66.2447 60.552 66.2924 55.5517C66.3178 52.9078 66.4177 50.2655 66.5191 47.6232C66.6027 45.4649 66.7086 43.3051 66.8592 41.1498C67.0397 38.571 67.2321 35.9937 67.4886 33.421C67.8392 29.906 68.2986 26.4076 68.8713 22.9228C69.2532 20.5996 69.7275 18.2946 70.1869 15.9866C70.2853 15.495 70.3614 14.9974 70.4748 14.5104C70.7074 13.5106 71.1624 13.2429 72.1468 13.5333C72.9164 13.7602 73.6533 14.0763 74.3752 14.4272C76.3694 15.3997 78.2488 16.5779 80.1296 17.7516C84.7356 20.6284 89.1625 23.7804 93.6447 26.8462C93.7073 26.8901 93.7729 26.9309 93.8326 26.9778C94.1264 27.2153 94.1428 27.2969 93.9102 27.5873C93.6208 27.9458 93.3091 28.2846 93.0212 28.6461C91.9383 30.0043 91.0792 31.5077 90.2916 33.0534C87.6203 38.2867 85.5977 43.7755 84.0599 49.4518C83.9629 49.8118 83.8198 50.1763 83.9421 50.6285C84.2359 50.3623 84.4015 50.0629 84.5775 49.774C85.6081 48.0694 86.3345 46.2242 87.0236 44.3593C87.8992 41.9922 88.6912 39.5919 89.689 37.2718C90.5825 35.1951 91.5908 33.185 93.0212 31.4245C94.4054 29.7199 96.0028 28.2831 98.0343 27.4058C98.1313 27.3635 98.261 27.3499 98.3058 27.1895C97.7658 27.0096 97.2244 27.1245 96.686 27.1608C96.5726 27.1684 96.4607 27.2077 96.3474 27.2107C96.0878 27.2168 96.0013 27.0776 96.1102 26.8432C96.3876 26.2473 96.3921 26.2397 95.8522 25.8495C93.0152 23.8001 90.1768 21.7506 87.3339 19.7088C83.9301 17.2631 80.4235 14.9762 76.8929 12.7256C74.9808 11.5066 72.9343 10.5824 70.8148 9.80654C69.3263 9.26204 67.8287 8.75838 66.2715 8.4574C64.6502 8.14432 63.0274 8.09592 61.3882 8.32279C59.0882 8.64192 56.7792 8.893 54.4778 9.20154C48.9873 9.93661 43.5043 10.7186 38.0616 11.7773C33.1574 12.7317 28.3158 13.925 23.5875 15.5691C23.0297 15.7627 22.4823 15.9881 21.9289 16.1968C21.6947 16.2845 21.4889 16.4116 21.3114 16.6188C21.5098 16.702 21.6187 16.5568 21.7529 16.5084C21.9856 16.4237 22.2093 16.2951 22.448 16.2497C24.4899 15.8595 26.4618 15.1865 28.4754 14.6873C32.7308 13.6331 37.0265 12.7801 41.3475 12.0617C44.3337 11.5656 47.3332 11.1632 50.3402 10.8093C52.4567 10.5598 54.5762 10.3374 56.7032 10.1831C58.3543 10.0637 60.001 9.89577 61.6522 9.77175C62.8752 9.681 64.0879 9.74301 65.2632 10.1544C65.6794 10.2996 66.0732 10.4902 66.4401 10.7382C67.2947 11.316 67.7571 12.1327 67.772 13.1673C67.7974 14.8855 67.687 16.6006 67.602 18.3158C67.5543 19.2596 67.517 20.2049 67.4737 21.1487C67.3708 23.3856 67.1963 25.6166 67.077 27.8505C66.9562 30.1238 66.7906 32.394 66.6265 34.6642C66.4446 37.2037 66.2641 39.7447 66.0448 42.2811C65.7644 45.5284 65.4676 48.7757 65.1365 52.0185C64.8441 54.8771 64.516 57.7327 64.0372 60.5686C63.8105 61.9087 63.2153 62.7572 61.9147 63.2079C60.0517 63.8552 58.1515 64.3211 56.2229 64.6871C54.0333 65.1015 51.8123 65.3042 49.6123 65.6415C48.1043 65.8729 46.5844 65.9364 45.0765 66.1345C44.8885 66.1587 44.6976 66.1814 44.5082 66.1814C42.2425 66.1829 39.9828 66.3614 37.7201 66.4537C34.7906 66.5717 31.8612 66.6443 28.9303 66.6911C27.828 66.7093 26.7213 66.7804 25.6205 66.7365C23.7173 66.6609 21.8126 66.7017 19.9108 66.6261C17.6287 66.5353 15.3481 66.431 13.069 66.2782C10.8093 66.1285 8.55558 65.8986 6.33763 65.3949C6.01993 65.3223 5.71863 65.2104 5.41137 65.1061C5.0877 64.9941 4.90424 65.0803 4.88783 65.4191C4.83413 66.5384 4.57013 67.6349 4.57311 68.7602C4.57311 69.2487 4.84457 69.5391 5.18614 69.8084C6.24515 70.6433 7.40111 71.3118 8.63612 71.8351C10.2023 72.4976 11.8191 72.9876 13.4688 73.402C15.0245 73.7923 16.5906 74.122 18.1761 74.2974C20.2345 74.5258 22.2839 74.854 24.3661 74.8722C25.6593 74.8828 26.954 74.9977 28.2472 74.9372C30.2623 74.8434 32.2789 74.8132 34.291 74.6559C35.5424 74.5591 36.7968 74.4895 38.0497 74.3973C39.853 74.2642 41.6518 74.0872 43.4477 73.8845C45.8312 73.6153 48.2057 73.2856 50.5699 72.8727C53.6872 72.3282 56.7703 71.6339 59.7788 70.6296C61.066 70.2001 62.3114 69.6707 63.5047 69.0204C63.6389 68.9478 63.7702 68.8676 63.9119 68.8101C64.2206 68.6831 64.3668 68.7481 64.3608 69.0854C64.3429 69.8961 64.4787 70.7007 64.4071 71.5129C64.3265 72.4356 64.4041 73.3657 64.249 74.2853C64.1461 74.8933 64.0789 75.5089 63.8791 76.0973C63.8418 76.2062 63.8015 76.3166 63.7508 76.4194C63.6762 76.5692 63.6345 76.7794 63.4137 76.7537C63.19 76.728 63.1855 76.5238 63.1691 76.3529C63.1333 75.9687 63.0871 75.5846 63.0781 75.1989C63.0498 74.001 63.1199 72.8076 63.2631 71.6173C63.2795 71.4872 63.3212 71.3496 63.2362 71.2256C62.5754 71.3178 62.5471 71.3269 62.4755 71.9168C62.4024 72.5097 62.3592 73.1071 62.3174 73.703C62.2607 74.5107 62.2175 75.3199 62.1697 76.1291C62.1175 76.9987 62.0146 77.1485 61.2092 77.4147C57.9069 78.5097 54.5315 79.2841 51.0904 79.7545C48.7889 80.0691 46.4815 80.3232 44.1547 80.3247C43.655 80.3247 43.655 80.3383 43.3224 80.1023C43.3701 79.9239 43.5237 79.9587 43.646 79.9375C44.5111 79.7832 45.3912 79.8588 46.2637 79.7499C47.7956 79.5579 49.3185 79.3401 50.8115 78.9468C53.7036 78.183 56.5913 77.4041 59.4819 76.6327C59.6848 76.5783 59.8877 76.5238 60.092 76.4815C60.4022 76.4164 60.5335 76.2198 60.5469 75.9082C60.5902 74.8858 60.6513 73.8649 60.6841 72.8439C60.7035 72.2344 60.5738 72.1346 59.9622 72.2722C58.5497 72.5868 57.1417 72.9241 55.7277 73.2372C52.6402 73.9208 49.569 74.6725 46.4651 75.2821C46.0728 75.3592 45.6776 75.4273 45.2808 75.4726C44.8468 75.521 44.5514 75.7101 44.3501 76.123C43.6744 77.5069 42.9465 78.8651 42.2857 80.2566C41.9337 80.9993 41.449 81.3577 40.6167 81.5271C38.6806 81.9188 36.7207 81.9067 34.7713 82.0761C31.7329 82.3408 28.6872 82.3317 25.6414 82.2985C22.5032 82.2652 19.4201 81.8478 16.3982 80.9675C15.4466 80.6907 14.489 80.4336 13.527 80.1992C12.996 80.0706 12.7006 79.7802 12.6231 79.2296C12.4336 77.8941 12.0115 76.5964 11.9727 75.2367C11.9608 74.8389 11.7266 74.665 11.3806 74.5667C10.2231 74.2384 9.11044 73.7877 8.01563 73.2841C7.32057 72.9649 6.66279 72.5777 5.99755 72.2011C5.49937 71.9198 5.43673 71.9576 5.41137 72.5505C5.37706 73.3642 5.48893 74.1704 5.55605 74.9765C5.60527 75.5604 5.9707 76.0005 6.41817 76.3605C7.19975 76.9866 8.0753 77.457 8.94935 77.9274C9.48781 78.2163 10.0337 78.49 10.5766 78.7714C10.6781 78.8243 10.7825 78.8727 10.8794 78.9347C10.9883 79.0058 11.139 79.0754 11.0927 79.2372C11.0435 79.4081 10.8824 79.3718 10.7526 79.3522C10.4126 79.2992 10.0874 79.1918 9.76524 79.0723C8.56005 78.6246 7.46227 77.9667 6.36 77.3164C5.96474 77.0834 5.57097 76.8475 5.16675 76.6327C4.93854 76.5117 4.84159 76.5858 4.88485 76.8414C5.20106 78.7169 5.1578 80.6105 5.16377 82.5012C5.16675 83.4313 5.24431 84.3524 5.40988 85.2645C5.79917 87.4031 6.96856 88.8657 9.0299 89.5539C10.9182 90.1831 12.8662 90.5309 14.8246 90.835C15.8791 90.9998 16.9456 91.0543 18.0001 91.201C18.8652 91.322 19.7199 91.5141 20.594 91.5867C22.1482 91.7137 23.7009 91.8755 25.2566 91.992C26.945 92.1175 28.6365 92.2053 30.3264 92.3096C30.4025 92.3142 30.4785 92.3202 30.5546 92.3232C34.7608 92.4775 38.967 92.5032 43.1747 92.4337C45.2674 92.3989 47.36 92.3202 49.4497 92.2038C51.7855 92.0722 54.1198 91.8922 56.4511 91.6804C59.3328 91.4173 62.2055 91.083 65.0604 90.6035C65.4169 90.543 65.7719 90.4705 66.1283 90.4084C66.2596 90.3857 66.4162 90.3494 66.5027 90.472C66.6161 90.6338 66.4714 90.7624 66.3834 90.8803C66.1537 91.1904 65.8763 91.4536 65.5765 91.6956C64.1297 92.8602 62.4516 93.5151 60.6916 93.9991C58.7929 94.5224 56.8553 94.8098 54.9088 95.0518C54.2868 95.1289 53.6544 95.1365 53.0518 95.3467C52.9459 95.3845 52.8266 95.4027 52.7147 95.3966C51.7049 95.3422 50.7056 95.5282 49.6973 95.5252C45.679 95.5176 41.6623 95.5342 37.644 95.5131C36.5432 95.507 35.4425 95.4042 34.3417 95.3422C33.5631 95.2983 32.7845 95.2197 32.0059 95.2091C30.747 95.1924 29.5046 94.9943 28.2516 94.9156C26.3335 94.7962 24.4183 94.6404 22.5017 94.4952C20.8699 94.3711 19.2366 94.2713 17.6079 94.108C15.0155 93.8478 12.4008 93.7979 9.83086 93.3094C8.48995 93.0538 7.23107 92.5773 6.08257 91.8135C3.98693 90.4236 2.83246 88.4392 2.51923 85.9496C2.38797 84.8984 2.35069 83.8352 2.27909 82.7764C2.17468 81.2171 2.07624 79.6577 1.9763 78.0983C1.91366 77.1167 1.88234 76.1306 1.85847 75.149C1.80627 72.9876 1.67203 70.8278 1.73318 68.6649C1.78986 66.62 1.83908 64.5737 2.27611 62.5636C2.39096 62.0327 2.54459 61.5154 2.825 61.048C3.0547 60.6669 3.20833 60.6291 3.55288 60.9134C4.10178 61.3687 4.73867 61.6046 5.41883 61.7317C7.74268 62.1643 10.0844 62.432 12.4426 62.5878C17.4632 62.9205 22.4897 62.7904 27.5148 62.8192C29.7238 62.8313 31.9313 62.7496 34.1359 62.6543C36.5492 62.5499 38.9625 62.4289 41.3744 62.258C43.1389 62.134 44.9064 62.0312 46.6679 61.8603C50.3432 61.5048 54.0169 61.1297 57.6354 60.3493C58.3991 60.1844 59.1463 59.9591 59.8712 59.655C60.3933 59.4357 60.6782 59.0652 60.7766 58.4935C61.1853 56.1158 61.5224 53.7261 61.7715 51.3288C61.9207 49.892 62.04 48.4475 62.2458 47.0197C62.4994 45.2607 62.6366 43.4926 62.8275 41.7291C63.0244 39.908 63.1915 38.0825 63.3615 36.2569C63.5002 34.758 63.6285 33.2591 63.7508 31.7603C63.8955 29.9922 64.0297 28.2226 64.1684 26.453C64.2221 25.7602 64.243 25.066 64.2907 24.3733C64.3758 23.1618 64.4101 21.9442 64.4384 20.7297C64.4608 19.7844 64.5771 18.8421 64.5354 17.8953C64.5309 17.7985 64.5398 17.7017 64.5354 17.6064C64.5175 17.1466 64.4623 17.0937 64.0252 17.1693C63.3466 17.2858 62.6888 17.4885 62.0594 17.7668C58.4572 19.37 56.3989 22.1968 55.68 26.0764C55.6069 26.4741 55.5487 26.8749 55.5457 27.2833C55.5412 27.9412 55.6576 28.0774 56.3154 28.0138C57.5892 27.8913 58.8644 27.9533 60.1397 27.911C60.2531 27.908 60.3679 27.911 60.4828 27.9186C60.7498 27.9397 60.8989 28.091 60.9213 28.3602C60.9332 28.5145 60.9347 28.6688 60.9347 28.823C60.9288 32.9158 60.9228 37.0101 60.9168 41.1029C60.9168 41.1997 60.9198 41.2965 60.9138 41.3918C60.884 41.8879 60.7498 42.0255 60.2486 42.0664C60.0965 42.0785 59.9443 42.0739 59.7922 42.0739C56.9359 42.0739 54.0795 42.0739 51.2232 42.0739C51.1277 42.0739 51.0323 42.0754 50.9383 42.0739C50.2775 42.0543 50.1493 41.9227 50.1507 41.2375C50.1567 37.839 50.1284 34.4404 50.1895 31.0434C50.2164 29.543 50.2223 28.0335 50.4819 26.5422C50.9726 23.729 52.1435 21.2636 54.0601 19.1658C56.5838 16.404 59.7594 14.9142 63.3615 14.2548C63.5494 14.22 63.7374 14.1912 63.9238 14.1519C64.1356 14.1065 64.164 13.9795 64.0372 13.8192C63.8582 13.5923 63.6464 13.3987 63.4107 13.2308C62.7529 12.7589 61.9967 12.5638 61.2211 12.4534C60.3724 12.3324 59.5207 12.3188 58.6601 12.3989C57.619 12.4957 56.5734 12.5562 55.5308 12.644C53.7096 12.7967 51.8959 13.0236 50.0866 13.2747C46.3144 13.7965 42.5572 14.4151 38.8134 15.1169C34.4133 15.9412 30.04 16.8956 25.7011 18.0057C22.4301 18.8421 19.2143 19.8494 16.082 21.132C14.5203 21.7718 13.4002 22.8653 12.641 24.3597C11.8296 25.9599 11.218 27.6463 10.5945 29.3267C10.3261 30.0497 10.074 30.7787 9.79507 31.4971C9.53106 32.1792 8.88521 32.4348 8.21103 32.155C8.00519 32.0688 7.90824 31.9206 7.92912 31.7058C7.94553 31.5334 7.98729 31.364 8.02906 31.1946C8.68087 28.5538 9.32075 25.91 10.2604 23.3539C10.2918 23.2677 10.3499 23.1784 10.2515 23.0484L10.256 23.0499Z" fill="#C23234"/>
<path d="M86.2856 61.3018C86.1857 57.268 87.3058 53.5624 89.3552 50.1412C91.7059 46.2163 94.9889 43.3123 99.1071 41.4398C101.743 40.242 104.518 39.5114 107.433 39.3708C110.717 39.2135 113.865 39.764 116.927 40.9755C118.375 41.5487 119.706 42.302 121.04 43.0869C122.14 43.7343 123.072 44.5722 124.006 45.4116C125.191 46.4779 126.212 47.7031 127.134 49.0114C127.387 49.3713 127.605 49.7585 127.92 50.0746C128.143 50.3 128.155 50.6358 128.304 50.9065C129.289 52.6852 130.026 54.5652 130.466 56.5556C131.502 61.2534 131.025 65.803 129.09 70.1922C127.869 72.9631 126.119 75.3573 123.916 77.4007C121.136 79.981 117.877 81.6705 114.233 82.6233C111.872 83.2404 109.475 83.4673 107.045 83.3282C105.5 83.2404 103.99 82.9228 102.503 82.4933C99.3726 81.5873 96.4924 80.1807 93.9865 78.045C91.8939 76.2618 90.2159 74.1368 88.872 71.7228C87.3968 69.0715 86.5586 66.231 86.2901 63.2106C86.2349 62.5784 86.2826 61.9371 86.2826 61.3003L86.2856 61.3018ZM119.04 61.3396H119.036C119.036 59.8725 119.033 58.4054 119.037 56.9383C119.039 56.5072 118.996 56.0822 118.821 55.692C118.457 54.8753 117.902 54.2067 116.966 54.1856C115.217 54.1462 113.465 54.0404 111.717 54.2491C111.16 54.3156 110.784 54.5924 110.459 55.0386C110.064 55.5801 109.925 56.1669 109.927 56.8249C109.936 59.7984 109.928 62.772 109.928 65.744C109.928 66.1115 109.961 66.476 110.064 66.8315C110.336 67.7616 110.865 68.3818 111.879 68.4922C112.315 68.5391 112.747 68.5996 113.186 68.598C114.309 68.5905 115.432 68.5859 116.555 68.5708C117.852 68.5542 118.687 67.8388 118.952 66.5441C119.019 66.2204 119.042 65.8952 119.04 65.567C119.039 64.1574 119.04 62.7478 119.04 61.3381V61.3396ZM107.291 61.3759H107.284C107.284 60.6046 107.284 59.8332 107.284 59.0618C107.284 58.2708 107.34 57.4752 107.27 56.6902C107.111 54.8934 106.234 54.1659 104.691 54.1493C103.322 54.1341 101.953 54.1341 100.584 54.1523C99.3099 54.1689 98.4896 54.8964 98.2539 56.1654C98.2047 56.4331 98.1808 56.6993 98.1808 56.9701C98.1808 59.9013 98.1808 62.8325 98.1808 65.7637C98.1808 66.0737 98.2345 66.3762 98.2748 66.6817C98.3628 67.3487 98.7237 67.8131 99.2756 68.1473C99.6903 68.3999 100.135 68.5784 100.62 68.5814C102.065 68.5905 103.51 68.6071 104.955 68.5663C106.004 68.536 106.719 68.0929 107.173 66.7407C107.293 66.3883 107.293 66.0208 107.293 65.6532C107.293 64.2255 107.293 62.7992 107.293 61.3714L107.291 61.3759ZM95.5363 61.3381C95.5363 61.3381 95.5243 61.3381 95.5184 61.3381C95.5184 59.7167 95.5482 58.0953 95.5094 56.4755C95.4766 55.1082 94.4474 54.1523 93.0946 54.1432C92.6755 54.1402 92.2578 54.1599 91.8387 54.1538C91.4375 54.1478 91.0332 54.1024 90.714 54.4321C90.6782 54.4684 90.5888 54.5077 90.5649 54.4911C90.28 54.2748 90.2412 54.5561 90.1875 54.7028C89.7893 55.807 89.3388 56.8975 89.1464 58.0666C88.8183 60.0601 88.8257 62.0641 89.0659 64.0636C89.2389 65.5111 89.7505 66.8678 90.2726 68.2169C90.3188 68.3379 90.362 68.4423 90.5351 68.4725C91.4166 68.6268 92.307 68.6041 93.1915 68.5829C94.2699 68.5572 95.059 67.9144 95.3916 66.8814C95.5243 66.4685 95.5348 66.0465 95.5348 65.623C95.5378 64.1952 95.5348 62.7674 95.5348 61.3381H95.5363ZM124.954 68.5829C125.239 68.5829 125.526 68.5708 125.81 68.586C126.143 68.6041 126.356 68.4574 126.473 68.1519C126.671 67.6316 126.931 67.1355 127.066 66.588C127.265 65.7818 127.432 64.9696 127.563 64.1498C127.846 62.3666 127.914 60.5819 127.599 58.7941C127.445 57.9229 127.327 57.0472 127.051 56.1972C126.908 55.757 126.77 55.3199 126.585 54.8949C126.386 54.4366 126.04 54.2143 125.566 54.1765C125.015 54.1326 124.461 54.1054 123.912 54.1704C123.205 54.2536 122.59 54.5455 122.15 55.1324C121.777 55.633 121.692 56.2274 121.692 56.8339C121.688 59.865 121.692 62.896 121.688 65.927C121.688 66.6545 121.946 67.2761 122.366 67.8524C122.596 68.167 122.89 68.344 123.254 68.4377C123.813 68.5799 124.383 68.6041 124.956 68.5814L124.954 68.5829Z" fill="#C23234"/>
<path d="M169.367 9.44531C173.052 9.44531 175.741 10.168 177.434 11.6133C179.139 13.0456 179.992 15.1029 179.992 17.7852C179.992 18.9961 179.79 20.1484 179.387 21.2422C178.996 22.3229 178.358 23.2799 177.473 24.1133C176.587 24.9336 175.422 25.5846 173.977 26.0664C172.544 26.5352 170.786 26.7695 168.703 26.7695H165.227V38H161.906V9.44531L169.367 9.44531ZM169.055 12.2773H165.227V23.918H168.332C170.155 23.918 171.672 23.7227 172.883 23.332C174.107 22.9414 175.025 22.3099 175.637 21.4375C176.249 20.5521 176.555 19.3802 176.555 17.9219C176.555 16.0208 175.949 14.6081 174.738 13.6836C173.527 12.7461 171.633 12.2773 169.055 12.2773ZM193.207 16.2031C193.637 16.2031 194.086 16.2292 194.555 16.2813C195.023 16.3203 195.44 16.3789 195.805 16.457L195.395 19.4648C195.043 19.3737 194.652 19.3021 194.223 19.25C193.793 19.1979 193.389 19.1719 193.012 19.1719C192.152 19.1719 191.339 19.3477 190.57 19.6992C189.815 20.0378 189.151 20.5326 188.578 21.1836C188.005 21.8216 187.556 22.5964 187.23 23.5078C186.905 24.4063 186.742 25.4089 186.742 26.5156V38H183.48V16.5938H186.176L186.527 20.5391H186.664C187.107 19.7448 187.641 19.0221 188.266 18.3711C188.891 17.707 189.613 17.1797 190.434 16.7891C191.267 16.3984 192.191 16.2031 193.207 16.2031ZM216.305 27.2578C216.305 29.0156 216.077 30.5846 215.621 31.9648C215.165 33.3451 214.508 34.5104 213.648 35.4609C212.789 36.4115 211.747 37.1406 210.523 37.6484C209.312 38.1432 207.939 38.3906 206.402 38.3906C204.97 38.3906 203.655 38.1432 202.457 37.6484C201.272 37.1406 200.243 36.4115 199.371 35.4609C198.512 34.5104 197.841 33.3451 197.359 31.9648C196.891 30.5846 196.656 29.0156 196.656 27.2578C196.656 24.9141 197.053 22.9219 197.848 21.2813C198.642 19.6276 199.775 18.3711 201.246 17.5117C202.73 16.6393 204.495 16.2031 206.539 16.2031C208.492 16.2031 210.198 16.6393 211.656 17.5117C213.128 18.3841 214.267 19.6471 215.074 21.3008C215.895 22.9414 216.305 24.9271 216.305 27.2578ZM200.016 27.2578C200.016 28.9766 200.243 30.4674 200.699 31.7305C201.155 32.9935 201.858 33.9701 202.809 34.6602C203.759 35.3503 204.983 35.6953 206.48 35.6953C207.965 35.6953 209.182 35.3503 210.133 34.6602C211.096 33.9701 211.806 32.9935 212.262 31.7305C212.717 30.4674 212.945 28.9766 212.945 27.2578C212.945 25.5521 212.717 24.0807 212.262 22.8438C211.806 21.5938 211.103 20.6302 210.152 19.9531C209.202 19.276 207.971 18.9375 206.461 18.9375C204.234 18.9375 202.6 19.6732 201.559 21.1445C200.53 22.6159 200.016 24.6536 200.016 27.2578ZM228.484 38.3906C226.557 38.3906 224.858 37.9935 223.387 37.1992C221.915 36.4049 220.77 35.194 219.949 33.5664C219.129 31.9388 218.719 29.888 218.719 27.4141C218.719 24.8229 219.148 22.707 220.008 21.0664C220.88 19.4128 222.078 18.1888 223.602 17.3945C225.125 16.6003 226.857 16.2031 228.797 16.2031C229.865 16.2031 230.893 16.3138 231.883 16.5352C232.885 16.7435 233.706 17.0104 234.344 17.3359L233.367 20.0508C232.716 19.7904 231.961 19.556 231.102 19.3477C230.255 19.1393 229.461 19.0352 228.719 19.0352C227.234 19.0352 225.997 19.3542 225.008 19.9922C224.031 20.6302 223.296 21.5677 222.801 22.8047C222.319 24.0417 222.078 25.5651 222.078 27.375C222.078 29.1068 222.312 30.5846 222.781 31.8086C223.263 33.0326 223.973 33.9701 224.91 34.6211C225.861 35.2591 227.046 35.5781 228.465 35.5781C229.598 35.5781 230.62 35.4609 231.531 35.2266C232.443 34.9792 233.27 34.6927 234.012 34.3672V37.2578C233.296 37.6224 232.495 37.9023 231.609 38.0977C230.737 38.293 229.695 38.3906 228.484 38.3906ZM254.766 16.5938V38H252.109L251.641 34.9922H251.465C251.022 35.7344 250.449 36.3594 249.746 36.8672C249.043 37.375 248.249 37.7526 247.363 38C246.491 38.2604 245.56 38.3906 244.57 38.3906C242.878 38.3906 241.458 38.1172 240.312 37.5703C239.167 37.0234 238.301 36.1771 237.715 35.0313C237.142 33.8854 236.855 32.4141 236.855 30.6172V16.5938H240.137V30.3828C240.137 32.1667 240.54 33.5013 241.348 34.3867C242.155 35.2591 243.385 35.6953 245.039 35.6953C246.628 35.6953 247.891 35.3958 248.828 34.7969C249.779 34.1979 250.462 33.319 250.879 32.1602C251.296 30.9883 251.504 29.556 251.504 27.8633V16.5938H254.766ZM269.348 16.2031C269.777 16.2031 270.227 16.2292 270.695 16.2813C271.164 16.3203 271.581 16.3789 271.945 16.457L271.535 19.4648C271.184 19.3737 270.793 19.3021 270.363 19.25C269.934 19.1979 269.53 19.1719 269.152 19.1719C268.293 19.1719 267.479 19.3477 266.711 19.6992C265.956 20.0378 265.292 20.5326 264.719 21.1836C264.146 21.8216 263.697 22.5964 263.371 23.5078C263.046 24.4063 262.883 25.4089 262.883 26.5156V38H259.621V16.5938H262.316L262.668 20.5391H262.805C263.247 19.7448 263.781 19.0221 264.406 18.3711C265.031 17.707 265.754 17.1797 266.574 16.7891C267.408 16.3984 268.332 16.2031 269.348 16.2031ZM282.23 16.2031C284.053 16.2031 285.616 16.6068 286.918 17.4141C288.22 18.2214 289.216 19.3542 289.906 20.8125C290.596 22.2578 290.941 23.9505 290.941 25.8906V27.9023L276.156 27.9023C276.195 30.4154 276.82 32.3294 278.031 33.6445C279.242 34.9596 280.948 35.6172 283.148 35.6172C284.503 35.6172 285.701 35.4935 286.742 35.2461C287.784 34.9987 288.865 34.6341 289.984 34.1523V37.0039C288.904 37.4857 287.829 37.8372 286.762 38.0586C285.707 38.2799 284.457 38.3906 283.012 38.3906C280.954 38.3906 279.158 37.974 277.621 37.1406C276.098 36.2943 274.913 35.0573 274.066 33.4297C273.22 31.8021 272.797 29.8099 272.797 27.4531C272.797 25.1484 273.181 23.1563 273.949 21.4766C274.73 19.7839 275.824 18.4818 277.23 17.5703C278.65 16.6589 280.316 16.2031 282.23 16.2031ZM282.191 18.8594C280.46 18.8594 279.079 19.4258 278.051 20.5586C277.022 21.6914 276.41 23.2734 276.215 25.3047L287.543 25.3047C287.53 24.0286 287.328 22.9089 286.938 21.9453C286.56 20.9688 285.98 20.2135 285.199 19.6797C284.418 19.1328 283.415 18.8594 282.191 18.8594ZM320.516 16.5938V38H317.859L317.391 34.9922H317.215C316.772 35.7344 316.199 36.3594 315.496 36.8672C314.793 37.375 313.999 37.7526 313.113 38C312.241 38.2604 311.31 38.3906 310.32 38.3906C308.628 38.3906 307.208 38.1172 306.062 37.5703C304.917 37.0234 304.051 36.1771 303.465 35.0313C302.892 33.8854 302.605 32.4141 302.605 30.6172V16.5938H305.887V30.3828C305.887 32.1667 306.29 33.5013 307.098 34.3867C307.905 35.2591 309.135 35.6953 310.789 35.6953C312.378 35.6953 313.641 35.3958 314.578 34.7969C315.529 34.1979 316.212 33.319 316.629 32.1602C317.046 30.9883 317.254 29.556 317.254 27.8633V16.5938H320.516ZM348.613 16.2031C350.97 16.2031 352.747 16.8216 353.945 18.0586C355.143 19.2826 355.742 21.2552 355.742 23.9766V38H352.539V24.1328C352.539 22.401 352.161 21.1055 351.406 20.2461C350.664 19.3737 349.557 18.9375 348.086 18.9375C346.016 18.9375 344.512 19.5365 343.574 20.7344C342.637 21.9323 342.168 23.6966 342.168 26.0273V38H338.945V24.1328C338.945 22.974 338.776 22.0104 338.438 21.2422C338.112 20.474 337.617 19.901 336.953 19.5234C336.302 19.1328 335.475 18.9375 334.473 18.9375C333.053 18.9375 331.914 19.2305 331.055 19.8164C330.195 20.4023 329.57 21.2747 329.18 22.4336C328.802 23.5794 328.613 24.9922 328.613 26.6719V38H325.371V16.5938H327.988L328.477 19.6211H328.652C329.082 18.8789 329.622 18.2539 330.273 17.7461C330.924 17.2383 331.654 16.8542 332.461 16.5938C333.268 16.3333 334.128 16.2031 335.039 16.2031C336.667 16.2031 338.027 16.5091 339.121 17.1211C340.228 17.7201 341.029 18.638 341.523 19.875H341.699C342.402 18.638 343.366 17.7201 344.59 17.1211C345.814 16.5091 347.155 16.2031 348.613 16.2031ZM368.41 16.2422C370.962 16.2422 372.857 16.8151 374.094 17.9609C375.331 19.1068 375.949 20.9362 375.949 23.4492V38H373.586L372.961 34.8359H372.805C372.206 35.6172 371.581 36.2747 370.93 36.8086C370.279 37.3294 369.523 37.7266 368.664 38C367.818 38.2604 366.776 38.3906 365.539 38.3906C364.237 38.3906 363.078 38.1628 362.062 37.707C361.06 37.2513 360.266 36.5612 359.68 35.6367C359.107 34.7122 358.82 33.5404 358.82 32.1211C358.82 29.9857 359.667 28.3451 361.359 27.1992C363.052 26.0534 365.63 25.4284 369.094 25.3242L372.785 25.168V23.8594C372.785 22.0104 372.388 20.7148 371.594 19.9727C370.799 19.2305 369.68 18.8594 368.234 18.8594C367.115 18.8594 366.047 19.0221 365.031 19.3477C364.016 19.6732 363.052 20.0573 362.141 20.5L361.145 18.0391C362.108 17.5443 363.215 17.1211 364.465 16.7695C365.715 16.418 367.03 16.2422 368.41 16.2422ZM372.746 27.4531L369.484 27.5898C366.815 27.694 364.934 28.1302 363.84 28.8984C362.746 29.6667 362.199 30.7539 362.199 32.1602C362.199 33.3841 362.57 34.2891 363.312 34.875C364.055 35.4609 365.038 35.7539 366.262 35.7539C368.163 35.7539 369.719 35.2266 370.93 34.1719C372.141 33.1172 372.746 31.5352 372.746 29.4258V27.4531ZM392.281 38H389.02V7.60938H392.281V38ZM415.594 27.2578C415.594 29.0156 415.366 30.5846 414.91 31.9648C414.454 33.3451 413.797 34.5104 412.938 35.4609C412.078 36.4115 411.036 37.1406 409.812 37.6484C408.602 38.1432 407.228 38.3906 405.691 38.3906C404.259 38.3906 402.944 38.1432 401.746 37.6484C400.561 37.1406 399.533 36.4115 398.66 35.4609C397.801 34.5104 397.13 33.3451 396.648 31.9648C396.18 30.5846 395.945 29.0156 395.945 27.2578C395.945 24.9141 396.342 22.9219 397.137 21.2813C397.931 19.6276 399.064 18.3711 400.535 17.5117C402.02 16.6393 403.784 16.2031 405.828 16.2031C407.781 16.2031 409.487 16.6393 410.945 17.5117C412.417 18.3841 413.556 19.6471 414.363 21.3008C415.184 22.9414 415.594 24.9271 415.594 27.2578ZM399.305 27.2578C399.305 28.9766 399.533 30.4674 399.988 31.7305C400.444 32.9935 401.147 33.9701 402.098 34.6602C403.048 35.3503 404.272 35.6953 405.77 35.6953C407.254 35.6953 408.471 35.3503 409.422 34.6602C410.385 33.9701 411.095 32.9935 411.551 31.7305C412.007 30.4674 412.234 28.9766 412.234 27.2578C412.234 25.5521 412.007 24.0807 411.551 22.8438C411.095 21.5938 410.392 20.6302 409.441 19.9531C408.491 19.276 407.26 18.9375 405.75 18.9375C403.523 18.9375 401.889 19.6732 400.848 21.1445C399.819 22.6159 399.305 24.6536 399.305 27.2578ZM416.621 47.6094C415.957 47.6094 415.378 47.5573 414.883 47.4531C414.388 47.362 413.958 47.2513 413.594 47.1211V44.4844C413.997 44.6146 414.408 44.7122 414.824 44.7773C415.241 44.8555 415.71 44.8945 416.23 44.8945C417.116 44.8945 417.832 44.6471 418.379 44.1523C418.926 43.6576 419.199 42.7591 419.199 41.457V16.5938H422.441V41.3789C422.441 42.681 422.233 43.7943 421.816 44.7188C421.4 45.6563 420.762 46.3724 419.902 46.8672C419.043 47.362 417.949 47.6094 416.621 47.6094ZM418.906 10.7148C418.906 9.98568 419.089 9.45182 419.453 9.11328C419.831 8.76172 420.299 8.58594 420.859 8.58594C421.393 8.58594 421.849 8.76172 422.227 9.11328C422.617 9.45182 422.812 9.98568 422.812 10.7148C422.812 11.431 422.617 11.9648 422.227 12.3164C421.849 12.668 421.393 12.8438 420.859 12.8438C420.299 12.8438 419.831 12.668 419.453 12.3164C419.089 11.9648 418.906 11.431 418.906 10.7148ZM435.324 16.2422C437.876 16.2422 439.771 16.8151 441.008 17.9609C442.245 19.1068 442.863 20.9362 442.863 23.4492V38H440.5L439.875 34.8359H439.719C439.12 35.6172 438.495 36.2747 437.844 36.8086C437.193 37.3294 436.438 37.7266 435.578 38C434.732 38.2604 433.69 38.3906 432.453 38.3906C431.151 38.3906 429.992 38.1628 428.977 37.707C427.974 37.2513 427.18 36.5612 426.594 35.6367C426.021 34.7122 425.734 33.5404 425.734 32.1211C425.734 29.9857 426.581 28.3451 428.273 27.1992C429.966 26.0534 432.544 25.4284 436.008 25.3242L439.699 25.168V23.8594C439.699 22.0104 439.302 20.7148 438.508 19.9727C437.714 19.2305 436.594 18.8594 435.148 18.8594C434.029 18.8594 432.961 19.0221 431.945 19.3477C430.93 19.6732 429.966 20.0573 429.055 20.5L428.059 18.0391C429.022 17.5443 430.129 17.1211 431.379 16.7695C432.629 16.418 433.944 16.2422 435.324 16.2422ZM439.66 27.4531L436.398 27.5898C433.729 27.694 431.848 28.1302 430.754 28.8984C429.66 29.6667 429.113 30.7539 429.113 32.1602C429.113 33.3841 429.484 34.2891 430.227 34.875C430.969 35.4609 431.952 35.7539 433.176 35.7539C435.077 35.7539 436.633 35.2266 437.844 34.1719C439.055 33.1172 439.66 31.5352 439.66 29.4258V27.4531Z" fill="#3E3E3E"/>
<path d="M173.273 60.7539C175.734 60.7539 177.72 61.7109 179.23 63.625C180.754 65.5391 181.516 68.3451 181.516 72.043C181.516 74.5169 181.158 76.6003 180.441 78.293C179.725 79.9727 178.736 81.2422 177.473 82.1016C176.21 82.9609 174.758 83.3906 173.117 83.3906C172.062 83.3906 171.158 83.2604 170.402 83C169.647 82.7266 169.003 82.3815 168.469 81.9648C167.935 81.5352 167.473 81.0794 167.082 80.5977H166.77C166.874 81.1185 166.952 81.6523 167.004 82.1992C167.056 82.7461 167.082 83.2799 167.082 83.8008V92.6094H161.125L161.125 61.1641H165.969L166.809 63.9961H167.082C167.473 63.4102 167.948 62.8698 168.508 62.375C169.068 61.8802 169.738 61.4896 170.52 61.2031C171.314 60.9036 172.232 60.7539 173.273 60.7539ZM171.359 65.5195C170.318 65.5195 169.491 65.7344 168.879 66.1641C168.267 66.5938 167.818 67.2383 167.531 68.0977C167.258 68.957 167.108 70.0443 167.082 71.3594V72.0039C167.082 73.4102 167.212 74.6016 167.473 75.5781C167.746 76.5547 168.195 77.2969 168.82 77.8047C169.458 78.3125 170.331 78.5664 171.438 78.5664C172.349 78.5664 173.098 78.3125 173.684 77.8047C174.27 77.2969 174.706 76.5547 174.992 75.5781C175.292 74.5885 175.441 73.3841 175.441 71.9648C175.441 69.8294 175.109 68.2214 174.445 67.1406C173.781 66.0599 172.753 65.5195 171.359 65.5195ZM193.441 60.7539C195.46 60.7539 197.198 61.1445 198.656 61.9258C200.115 62.694 201.241 63.8138 202.035 65.2852C202.829 66.7565 203.227 68.5534 203.227 70.6758V73.5664L189.145 73.5664C189.21 75.2461 189.711 76.5677 190.648 77.5312C191.599 78.4818 192.914 78.957 194.594 78.957C195.987 78.957 197.263 78.8138 198.422 78.5273C199.581 78.2409 200.772 77.8112 201.996 77.2383V81.8477C200.915 82.3815 199.783 82.7721 198.598 83.0195C197.426 83.2669 196 83.3906 194.32 83.3906C192.133 83.3906 190.193 82.987 188.5 82.1797C186.82 81.3724 185.499 80.1419 184.535 78.4883C183.585 76.8346 183.109 74.7513 183.109 72.2383C183.109 69.6862 183.539 67.5638 184.398 65.8711C185.271 64.1654 186.482 62.8893 188.031 62.043C189.581 61.1836 191.384 60.7539 193.441 60.7539ZM193.48 64.9922C192.322 64.9922 191.358 65.3633 190.59 66.1055C189.835 66.8477 189.398 68.013 189.281 69.6016H197.641C197.628 68.7161 197.465 67.9284 197.152 67.2383C196.853 66.5482 196.397 66.0013 195.785 65.5977C195.186 65.194 194.418 64.9922 193.48 64.9922ZM218.258 60.7539C218.557 60.7539 218.902 60.7734 219.293 60.8125C219.697 60.8385 220.022 60.8776 220.27 60.9297L219.82 66.5156C219.625 66.4505 219.345 66.4049 218.98 66.3789C218.629 66.3398 218.323 66.3203 218.062 66.3203C217.294 66.3203 216.546 66.418 215.816 66.6133C215.1 66.8086 214.456 67.1276 213.883 67.5703C213.31 68 212.854 68.5729 212.516 69.2891C212.19 69.9922 212.027 70.8581 212.027 71.8867V83H206.07V61.1641H210.582L211.461 64.8359H211.754C212.184 64.0938 212.717 63.4167 213.355 62.8047C214.007 62.1797 214.742 61.6849 215.562 61.3203C216.396 60.9427 217.294 60.7539 218.258 60.7539ZM231.434 78.6445C232.085 78.6445 232.716 78.5794 233.328 78.4492C233.953 78.319 234.572 78.1563 235.184 77.9609V82.3945C234.546 82.681 233.751 82.9154 232.801 83.0977C231.863 83.293 230.835 83.3906 229.715 83.3906C228.413 83.3906 227.241 83.1823 226.199 82.7656C225.171 82.3359 224.357 81.6003 223.758 80.5586C223.172 79.5039 222.879 78.0391 222.879 76.1641V65.6367H220.027V63.1172L223.309 61.125L225.027 56.5156H228.836V61.1641H234.949V65.6367H228.836V76.1641C228.836 76.9974 229.07 77.6224 229.539 78.0391C230.021 78.4427 230.652 78.6445 231.434 78.6445ZM257.461 72.043C257.461 73.8659 257.214 75.4805 256.719 76.8867C256.237 78.293 255.527 79.4844 254.59 80.4609C253.665 81.4245 252.546 82.1536 251.23 82.6484C249.928 83.1432 248.457 83.3906 246.816 83.3906C245.28 83.3906 243.867 83.1432 242.578 82.6484C241.302 82.1536 240.189 81.4245 239.238 80.4609C238.301 79.4844 237.572 78.293 237.051 76.8867C236.543 75.4805 236.289 73.8659 236.289 72.043C236.289 69.6211 236.719 67.5703 237.578 65.8906C238.438 64.2109 239.661 62.9349 241.25 62.0625C242.839 61.1901 244.733 60.7539 246.934 60.7539C248.978 60.7539 250.788 61.1901 252.363 62.0625C253.952 62.9349 255.195 64.2109 256.094 65.8906C257.005 67.5703 257.461 69.6211 257.461 72.043ZM242.363 72.043C242.363 73.4753 242.52 74.6797 242.832 75.6563C243.145 76.6328 243.633 77.3685 244.297 77.8633C244.961 78.3581 245.827 78.6055 246.895 78.6055C247.949 78.6055 248.802 78.3581 249.453 77.8633C250.117 77.3685 250.599 76.6328 250.898 75.6563C251.211 74.6797 251.367 73.4753 251.367 72.043C251.367 70.5977 251.211 69.3997 250.898 68.4492C250.599 67.4857 250.117 66.763 249.453 66.2813C248.789 65.7995 247.923 65.5586 246.855 65.5586C245.28 65.5586 244.134 66.099 243.418 67.1797C242.715 68.2604 242.363 69.8815 242.363 72.043ZM275.688 83.3906C273.253 83.3906 271.267 82.4401 269.73 80.5391C268.207 78.625 267.445 75.819 267.445 72.1211C267.445 68.3841 268.22 65.5586 269.77 63.6445C271.319 61.7174 273.344 60.7539 275.844 60.7539C276.885 60.7539 277.803 60.8971 278.598 61.1836C279.392 61.4701 280.076 61.8542 280.648 62.3359C281.234 62.8177 281.729 63.3581 282.133 63.957H282.328C282.25 63.5404 282.152 62.9284 282.035 62.1211C281.931 61.3008 281.879 60.4609 281.879 59.6016V52.6094H287.855V83H283.285L282.133 80.168H281.879C281.501 80.7669 281.026 81.3138 280.453 81.8086C279.893 82.2904 279.223 82.6745 278.441 82.9609C277.66 83.2474 276.742 83.3906 275.688 83.3906ZM277.777 78.6445C279.405 78.6445 280.551 78.1628 281.215 77.1992C281.892 76.2227 282.25 74.7578 282.289 72.8047V72.1602C282.289 70.0378 281.964 68.4167 281.312 67.2969C280.661 66.1641 279.451 65.5977 277.68 65.5977C276.365 65.5977 275.336 66.1641 274.594 67.2969C273.852 68.4297 273.48 70.0638 273.48 72.1992C273.48 74.3346 273.852 75.9427 274.594 77.0234C275.349 78.1042 276.41 78.6445 277.777 78.6445ZM301.09 60.7539C303.108 60.7539 304.846 61.1445 306.305 61.9258C307.763 62.694 308.889 63.8138 309.684 65.2852C310.478 66.7565 310.875 68.5534 310.875 70.6758V73.5664H296.793C296.858 75.2461 297.359 76.5677 298.297 77.5313C299.247 78.4818 300.562 78.957 302.242 78.957C303.635 78.957 304.911 78.8138 306.07 78.5273C307.229 78.2409 308.421 77.8112 309.645 77.2383V81.8477C308.564 82.3815 307.431 82.7721 306.246 83.0195C305.074 83.2669 303.648 83.3906 301.969 83.3906C299.781 83.3906 297.841 82.987 296.148 82.1797C294.469 81.3724 293.147 80.1419 292.184 78.4883C291.233 76.8346 290.758 74.7513 290.758 72.2383C290.758 69.6862 291.188 67.5638 292.047 65.8711C292.919 64.1654 294.13 62.8893 295.68 62.043C297.229 61.1836 299.033 60.7539 301.09 60.7539ZM301.129 64.9922C299.97 64.9922 299.007 65.3633 298.238 66.1055C297.483 66.8477 297.047 68.013 296.93 69.6016H305.289C305.276 68.7161 305.113 67.9284 304.801 67.2383C304.501 66.5482 304.046 66.0013 303.434 65.5977C302.835 65.194 302.066 64.9922 301.129 64.9922ZM327.305 83L318.984 61.1641H325.215L329.434 73.6055C329.668 74.3346 329.85 75.1029 329.98 75.9102C330.124 76.7174 330.221 77.4401 330.273 78.0781H330.43C330.469 77.388 330.56 76.6523 330.703 75.8711C330.859 75.0898 331.061 74.3346 331.309 73.6055L335.508 61.1641H341.738L333.418 83H327.305ZM362.727 72.043C362.727 73.8659 362.479 75.4805 361.984 76.8867C361.503 78.293 360.793 79.4844 359.855 80.4609C358.931 81.4245 357.811 82.1536 356.496 82.6484C355.194 83.1432 353.723 83.3906 352.082 83.3906C350.546 83.3906 349.133 83.1432 347.844 82.6484C346.568 82.1536 345.454 81.4245 344.504 80.4609C343.566 79.4844 342.837 78.293 342.316 76.8867C341.809 75.4805 341.555 73.8659 341.555 72.043C341.555 69.6211 341.984 67.5703 342.844 65.8906C343.703 64.2109 344.927 62.9349 346.516 62.0625C348.104 61.1901 349.999 60.7539 352.199 60.7539C354.243 60.7539 356.053 61.1901 357.629 62.0625C359.217 62.9349 360.461 64.2109 361.359 65.8906C362.271 67.5703 362.727 69.6211 362.727 72.043ZM347.629 72.043C347.629 73.4753 347.785 74.6797 348.098 75.6563C348.41 76.6328 348.898 77.3685 349.562 77.8633C350.227 78.3581 351.092 78.6055 352.16 78.6055C353.215 78.6055 354.068 78.3581 354.719 77.8633C355.383 77.3685 355.865 76.6328 356.164 75.6563C356.477 74.6797 356.633 73.4753 356.633 72.043C356.633 70.5977 356.477 69.3997 356.164 68.4492C355.865 67.4857 355.383 66.763 354.719 66.2813C354.055 65.7995 353.189 65.5586 352.121 65.5586C350.546 65.5586 349.4 66.099 348.684 67.1797C347.98 68.2604 347.629 69.8815 347.629 72.043ZM374.516 83.3906C372.354 83.3906 370.512 83 368.988 82.2188C367.465 81.4245 366.306 80.2005 365.512 78.5469C364.717 76.8932 364.32 74.7773 364.32 72.1992C364.32 69.5299 364.77 67.3555 365.668 65.6758C366.579 63.9831 367.836 62.7396 369.438 61.9453C371.052 61.151 372.921 60.7539 375.043 60.7539C376.553 60.7539 377.855 60.9036 378.949 61.2031C380.056 61.4896 381.02 61.8346 381.84 62.2383L380.082 66.8477C379.145 66.4701 378.272 66.1641 377.465 65.9297C376.658 65.6823 375.85 65.5586 375.043 65.5586C374.001 65.5586 373.135 65.806 372.445 66.3008C371.755 66.7826 371.241 67.5117 370.902 68.4883C370.564 69.4648 370.395 70.6888 370.395 72.1602C370.395 73.6055 370.577 74.8034 370.941 75.7539C371.306 76.7044 371.833 77.4141 372.523 77.8828C373.214 78.3385 374.053 78.5664 375.043 78.5664C376.28 78.5664 377.38 78.4036 378.344 78.0781C379.307 77.7396 380.245 77.2708 381.156 76.6719V81.7695C380.245 82.3424 379.288 82.7526 378.285 83C377.296 83.2604 376.039 83.3906 374.516 83.3906ZM393.238 60.7539C395.257 60.7539 396.995 61.1445 398.453 61.9258C399.911 62.694 401.038 63.8138 401.832 65.2852C402.626 66.7565 403.023 68.5534 403.023 70.6758V73.5664H388.941C389.007 75.2461 389.508 76.5677 390.445 77.5313C391.396 78.4818 392.711 78.957 394.391 78.957C395.784 78.957 397.06 78.8138 398.219 78.5273C399.378 78.2409 400.569 77.8112 401.793 77.2383V81.8477C400.712 82.3815 399.579 82.7721 398.395 83.0195C397.223 83.2669 395.797 83.3906 394.117 83.3906C391.93 83.3906 389.99 82.987 388.297 82.1797C386.617 81.3724 385.296 80.1419 384.332 78.4883C383.382 76.8346 382.906 74.7513 382.906 72.2383C382.906 69.6862 383.336 67.5638 384.195 65.8711C385.068 64.1654 386.279 62.8893 387.828 62.043C389.378 61.1836 391.181 60.7539 393.238 60.7539ZM393.277 64.9922C392.118 64.9922 391.155 65.3633 390.387 66.1055C389.632 66.8477 389.195 68.013 389.078 69.6016H397.438C397.424 68.7161 397.262 67.9284 396.949 67.2383C396.65 66.5482 396.194 66.0013 395.582 65.5977C394.983 65.194 394.215 64.9922 393.277 64.9922ZM396.461 52.3555C396.839 52.9544 397.327 53.6185 397.926 54.3477C398.538 55.0768 399.163 55.7865 399.801 56.4766C400.439 57.1667 400.992 57.7526 401.461 58.2344V58.7617L397.516 58.7617C396.812 58.3451 396.044 57.8503 395.211 57.2773C394.391 56.6914 393.635 56.0404 392.945 55.3242C392.242 56.0404 391.493 56.6849 390.699 57.2578C389.905 57.8177 389.163 58.319 388.473 58.7617H384.508V58.2344C385.003 57.7396 385.569 57.1536 386.207 56.4766C386.845 55.7865 387.464 55.0768 388.062 54.3477C388.661 53.6185 389.143 52.9544 389.508 52.3555H396.461ZM410.867 73.5273H406.102L405.105 54.4453H411.863L410.867 73.5273ZM405.027 80.207C405.027 78.9831 405.359 78.1237 406.023 77.6289C406.701 77.1341 407.514 76.8867 408.465 76.8867C409.389 76.8867 410.184 77.1341 410.848 77.6289C411.525 78.1237 411.863 78.9831 411.863 80.207C411.863 81.3789 411.525 82.2253 410.848 82.7461C410.184 83.2669 409.389 83.5273 408.465 83.5273C407.514 83.5273 406.701 83.2669 406.023 82.7461C405.359 82.2253 405.027 81.3789 405.027 80.207Z" fill="#C23234"/>
</svg>
